<?xml version="1.0" standalone="no"?>
 <!DOCTYPE svg PUBLIC "-//W3C//DTD SVG 1.1//EN" 
 "http://www.w3.org/Graphics/SVG/1.1/DTD/svg11.dtd"> 
<svg xmlns="http://www.w3.org/2000/svg" version="1.1" 
    width="29.7002cm" height="21.0007cm" viewBox="0 0 116930 82680 ">
<title>SVG Picture created as ActiveSpeakers_KiCad-B_Cu.svg date 2020/11/08 19:39:30 </title>
  <desc>Picture generated by PCBNEW </desc>
<g style="fill:#000000; fill-opacity:1;stroke:#000000; stroke-opacity:1;
stroke-linecap:round; stroke-linejoin:round; "
 transform="translate(0 0) scale(1 1)">
</g>
<g style="fill:#000000; fill-opacity:0.0; 
stroke:#000000; stroke-width:-0.000393701; stroke-opacity:1; 
stroke-linecap:round; stroke-linejoin:round;">
</g>
<g style="fill:#000000; fill-opacity:1.0; 
stroke:#000000; stroke-width:39.3701; stroke-opacity:1; 
stroke-linecap:round; stroke-linejoin:round;">
<rect x="50182.8" y="28639.9" width="18910.8" height="19028" rx="0" />
</g>
<g style="fill:#FFFFFF; fill-opacity:1.0; 
stroke:#FFFFFF; stroke-width:39.3701; stroke-opacity:1; 
stroke-linecap:round; stroke-linejoin:round;">
</g>
<g style="fill:#FFFFFF; fill-opacity:1.0; 
stroke:#FFFFFF; stroke-width:19.685; stroke-opacity:1; 
stroke-linecap:round; stroke-linejoin:round;">
</g>
<g style="fill:#FFFFFF; fill-opacity:0.0; 
stroke:#FFFFFF; stroke-width:19.685; stroke-opacity:1; 
stroke-linecap:round; stroke-linejoin:round;">
<path d="M67091 43126
L52161 43126
" />
<path d="M67091 43126
L67091 30618
" />
<path d="M52161 43126
L52161 30618
" />
<path d="M67091 30618
L52161 30618
" />
<g >
</g>
<g style="fill:#FFFFFF; fill-opacity:0.0; 
stroke:#FFFFFF; stroke-width:0; stroke-opacity:1; 
stroke-linecap:round; stroke-linejoin:round;">
</g>
<g style="fill:#FFFFFF; fill-opacity:1.0; 
stroke:#FFFFFF; stroke-width:0; stroke-opacity:1; 
stroke-linecap:round; stroke-linejoin:round;">
<path style="fill:#FFFFFF; fill-opacity:1.0; 
stroke:#FFFFFF; stroke-width:0; stroke-opacity:1; 
stroke-linecap:round; stroke-linejoin:round;fill-rule:evenodd;"
d="M 62648.1,32272.5
62657.7,32273.9
62667,32276.2
62676.1,32279.5
62684.9,32283.6
62693.1,32288.6
62700.9,32294.3
62708.1,32300.8
62714.5,32308
62720.3,32315.8
62725.3,32324
62729.4,32332.8
62732.6,32341.9
62735,32351.2
62736.4,32360.8
62736.9,32370.4
62736.9,32862.6
62736.4,32872.2
62735,32881.8
62732.6,32891.1
62729.4,32900.2
62725.3,32909
62720.3,32917.2
62714.5,32925
62708.1,32932.2
62700.9,32938.6
62693.1,32944.4
62684.9,32949.4
62676.1,32953.5
62667,32956.7
62657.7,32959.1
62648.1,32960.5
62638.5,32961
62274.3,32961
62264.6,32960.5
62255.1,32959.1
62245.7,32956.7
62236.6,32953.5
62227.9,32949.4
62219.6,32944.4
62211.8,32938.6
62204.7,32932.2
62198.2,32925
62192.4,32917.2
62187.5,32909
62183.4,32900.2
62180.1,32891.1
62177.7,32881.8
62176.3,32872.2
62175.9,32862.6
62175.9,32370.4
62176.3,32360.8
62177.7,32351.2
62180.1,32341.9
62183.4,32332.8
62187.5,32324
62192.4,32315.8
62198.2,32308
62204.7,32300.8
62211.8,32294.3
62219.6,32288.6
62227.9,32283.6
62236.6,32279.5
62245.7,32276.2
62255.1,32273.9
62264.6,32272.5
62274.3,32272
62638.5,32272
Z" /> 
<path style="fill:#FFFFFF; fill-opacity:1.0; 
stroke:#FFFFFF; stroke-width:0; stroke-opacity:1; 
stroke-linecap:round; stroke-linejoin:round;fill-rule:evenodd;"
d="M 63819.4,32272.5
63828.9,32273.9
63838.3,32276.2
63847.4,32279.5
63856.1,32283.6
63864.4,32288.6
63872.2,32294.3
63879.3,32300.8
63885.8,32308
63891.6,32315.8
63896.5,32324
63900.6,32332.8
63903.9,32341.9
63906.3,32351.2
63907.7,32360.8
63908.1,32370.4
63908.1,32862.6
63907.7,32872.2
63906.3,32881.8
63903.9,32891.1
63900.6,32900.2
63896.5,32909
63891.6,32917.2
63885.8,32925
63879.3,32932.2
63872.2,32938.6
63864.4,32944.4
63856.1,32949.4
63847.4,32953.5
63838.3,32956.7
63828.9,32959.1
63819.4,32960.5
63809.7,32961
63445.5,32961
63435.9,32960.5
63426.3,32959.1
63417,32956.7
63407.9,32953.5
63399.1,32949.4
63390.9,32944.4
63383.1,32938.6
63375.9,32932.2
63369.5,32925
63363.7,32917.2
63358.7,32909
63354.6,32900.2
63351.4,32891.1
63349,32881.8
63347.6,32872.2
63347.1,32862.6
63347.1,32370.4
63347.6,32360.8
63349,32351.2
63351.4,32341.9
63354.6,32332.8
63358.7,32324
63363.7,32315.8
63369.5,32308
63375.9,32300.8
63383.1,32294.3
63390.9,32288.6
63399.1,32283.6
63407.9,32279.5
63417,32276.2
63426.3,32273.9
63435.9,32272.5
63445.5,32272
63809.7,32272
Z" /> 
</g>
<g >
</g>
<g style="fill:#FFFFFF; fill-opacity:1.0; 
stroke:#FFFFFF; stroke-width:0; stroke-opacity:1; 
stroke-linecap:round; stroke-linejoin:round;">
<path style="fill:#FFFFFF; fill-opacity:1.0; 
stroke:#FFFFFF; stroke-width:0; stroke-opacity:1; 
stroke-linecap:round; stroke-linejoin:round;fill-rule:evenodd;"
d="M 63819.4,30944
63828.9,30945.4
63838.3,30947.7
63847.4,30951
63856.1,30955.1
63864.4,30960.1
63872.2,30965.9
63879.3,30972.3
63885.8,30979.5
63891.6,30987.3
63896.5,30995.5
63900.6,31004.3
63903.9,31013.4
63906.3,31022.7
63907.7,31032.3
63908.1,31041.9
63908.1,31534.1
63907.7,31543.7
63906.3,31553.3
63903.9,31562.6
63900.6,31571.7
63896.5,31580.5
63891.6,31588.7
63885.8,31596.5
63879.3,31603.7
63872.2,31610.1
63864.4,31615.9
63856.1,31620.9
63847.4,31625
63838.3,31628.2
63828.9,31630.6
63819.4,31632
63809.7,31632.5
63445.5,31632.5
63435.9,31632
63426.3,31630.6
63417,31628.2
63407.9,31625
63399.1,31620.9
63390.9,31615.9
63383.1,31610.1
63375.9,31603.7
63369.5,31596.5
63363.7,31588.7
63358.7,31580.5
63354.6,31571.7
63351.4,31562.6
63349,31553.3
63347.6,31543.7
63347.1,31534.1
63347.1,31041.9
63347.6,31032.3
63349,31022.7
63351.4,31013.4
63354.6,31004.3
63358.7,30995.5
63363.7,30987.3
63369.5,30979.5
63375.9,30972.3
63383.1,30965.9
63390.9,30960.1
63399.1,30955.1
63407.9,30951
63417,30947.7
63426.3,30945.4
63435.9,30944
63445.5,30943.5
63809.7,30943.5
Z" /> 
<path style="fill:#FFFFFF; fill-opacity:1.0; 
stroke:#FFFFFF; stroke-width:0; stroke-opacity:1; 
stroke-linecap:round; stroke-linejoin:round;fill-rule:evenodd;"
d="M 62648.1,30944
62657.7,30945.4
62667,30947.7
62676.1,30951
62684.9,30955.1
62693.1,30960.1
62700.9,30965.9
62708.1,30972.3
62714.5,30979.5
62720.3,30987.3
62725.3,30995.5
62729.4,31004.3
62732.6,31013.4
62735,31022.7
62736.4,31032.3
62736.9,31041.9
62736.9,31534.1
62736.4,31543.7
62735,31553.3
62732.6,31562.6
62729.4,31571.7
62725.3,31580.5
62720.3,31588.7
62714.5,31596.5
62708.1,31603.7
62700.9,31610.1
62693.1,31615.9
62684.9,31620.9
62676.1,31625
62667,31628.2
62657.7,31630.6
62648.1,31632
62638.5,31632.5
62274.3,31632.5
62264.6,31632
62255.1,31630.6
62245.7,31628.2
62236.6,31625
62227.9,31620.9
62219.6,31615.9
62211.8,31610.1
62204.7,31603.7
62198.2,31596.5
62192.4,31588.7
62187.5,31580.5
62183.4,31571.7
62180.1,31562.6
62177.7,31553.3
62176.3,31543.7
62175.9,31534.1
62175.9,31041.9
62176.3,31032.3
62177.7,31022.7
62180.1,31013.4
62183.4,31004.3
62187.5,30995.5
62192.4,30987.3
62198.2,30979.5
62204.7,30972.3
62211.8,30965.9
62219.6,30960.1
62227.9,30955.1
62236.6,30951
62245.7,30947.7
62255.1,30945.4
62264.6,30944
62274.3,30943.5
62638.5,30943.5
Z" /> 
</g>
<g >
</g>
<g >
</g>
<g >
</g>
<g style="fill:#FFFFFF; fill-opacity:1.0; 
stroke:#FFFFFF; stroke-width:0; stroke-opacity:1; 
stroke-linecap:round; stroke-linejoin:round;">
<circle cx="62812" cy="34585" r="295.276" /> 
</g>
<g style="fill:#FFFFFF; fill-opacity:1.0; 
stroke:#FFFFFF; stroke-width:39.3701; stroke-opacity:1; 
stroke-linecap:round; stroke-linejoin:round;">
</g>
<g style="fill:#FFFFFF; fill-opacity:1.0; 
stroke:#FFFFFF; stroke-width:0; stroke-opacity:1; 
stroke-linecap:round; stroke-linejoin:round;">
<circle cx="63796.3" cy="34585" r="295.276" /> 
</g>
<g style="fill:#FFFFFF; fill-opacity:1.0; 
stroke:#FFFFFF; stroke-width:39.3701; stroke-opacity:1; 
stroke-linecap:round; stroke-linejoin:round;">
</g>
<g >
</g>
<g style="fill:#FFFFFF; fill-opacity:1.0; 
stroke:#FFFFFF; stroke-width:39.3701; stroke-opacity:1; 
stroke-linecap:round; stroke-linejoin:round;">
</g>
<g style="fill:#FFFFFF; fill-opacity:1.0; 
stroke:#FFFFFF; stroke-width:0; stroke-opacity:1; 
stroke-linecap:round; stroke-linejoin:round;">
<circle cx="63796.3" cy="37419" r="295.276" /> 
</g>
<g style="fill:#FFFFFF; fill-opacity:1.0; 
stroke:#FFFFFF; stroke-width:39.3701; stroke-opacity:1; 
stroke-linecap:round; stroke-linejoin:round;">
</g>
<g style="fill:#FFFFFF; fill-opacity:1.0; 
stroke:#FFFFFF; stroke-width:0; stroke-opacity:1; 
stroke-linecap:round; stroke-linejoin:round;">
<circle cx="62812" cy="37419" r="295.276" /> 
</g>
<g style="fill:#FFFFFF; fill-opacity:1.0; 
stroke:#FFFFFF; stroke-width:39.3701; stroke-opacity:1; 
stroke-linecap:round; stroke-linejoin:round;">
</g>
<g >
</g>
<g style="fill:#FFFFFF; fill-opacity:1.0; 
stroke:#FFFFFF; stroke-width:39.3701; stroke-opacity:1; 
stroke-linecap:round; stroke-linejoin:round;">
</g>
<g style="fill:#FFFFFF; fill-opacity:1.0; 
stroke:#FFFFFF; stroke-width:0; stroke-opacity:1; 
stroke-linecap:round; stroke-linejoin:round;">
<circle cx="61596" cy="32616.5" r="295.276" /> 
</g>
<g style="fill:#FFFFFF; fill-opacity:1.0; 
stroke:#FFFFFF; stroke-width:39.3701; stroke-opacity:1; 
stroke-linecap:round; stroke-linejoin:round;">
</g>
<g style="fill:#FFFFFF; fill-opacity:1.0; 
stroke:#FFFFFF; stroke-width:0; stroke-opacity:1; 
stroke-linecap:round; stroke-linejoin:round;">
<circle cx="61596" cy="34585" r="295.276" /> 
</g>
<g style="fill:#FFFFFF; fill-opacity:1.0; 
stroke:#FFFFFF; stroke-width:39.3701; stroke-opacity:1; 
stroke-linecap:round; stroke-linejoin:round;">
</g>
<g >
</g>
<g style="fill:#FFFFFF; fill-opacity:1.0; 
stroke:#FFFFFF; stroke-width:39.3701; stroke-opacity:1; 
stroke-linecap:round; stroke-linejoin:round;">
</g>
<g style="fill:#FFFFFF; fill-opacity:1.0; 
stroke:#FFFFFF; stroke-width:0; stroke-opacity:1; 
stroke-linecap:round; stroke-linejoin:round;">
<circle cx="61596" cy="37419" r="295.276" /> 
</g>
<g style="fill:#FFFFFF; fill-opacity:1.0; 
stroke:#FFFFFF; stroke-width:39.3701; stroke-opacity:1; 
stroke-linecap:round; stroke-linejoin:round;">
</g>
<g style="fill:#FFFFFF; fill-opacity:1.0; 
stroke:#FFFFFF; stroke-width:0; stroke-opacity:1; 
stroke-linecap:round; stroke-linejoin:round;">
<circle cx="61596" cy="39387.5" r="295.276" /> 
</g>
<g style="fill:#FFFFFF; fill-opacity:1.0; 
stroke:#FFFFFF; stroke-width:39.3701; stroke-opacity:1; 
stroke-linecap:round; stroke-linejoin:round;">
</g>
<g >
</g>
<g >
</g>
<g >
</g>
<g >
</g>
<g style="fill:#FFFFFF; fill-opacity:1.0; 
stroke:#FFFFFF; stroke-width:39.3701; stroke-opacity:1; 
stroke-linecap:round; stroke-linejoin:round;">
</g>
<g style="fill:#FFFFFF; fill-opacity:1.0; 
stroke:#FFFFFF; stroke-width:0; stroke-opacity:1; 
stroke-linecap:round; stroke-linejoin:round;">
<circle cx="53380" cy="41536" r="393.701" /> 
</g>
<g style="fill:#FFFFFF; fill-opacity:1.0; 
stroke:#FFFFFF; stroke-width:39.3701; stroke-opacity:1; 
stroke-linecap:round; stroke-linejoin:round;">
</g>
<g style="fill:#FFFFFF; fill-opacity:1.0; 
stroke:#FFFFFF; stroke-width:0; stroke-opacity:1; 
stroke-linecap:round; stroke-linejoin:round;">
<circle cx="54380" cy="41536" r="393.701" /> 
</g>
<g style="fill:#FFFFFF; fill-opacity:1.0; 
stroke:#FFFFFF; stroke-width:39.3701; stroke-opacity:1; 
stroke-linecap:round; stroke-linejoin:round;">
</g>
<g style="fill:#FFFFFF; fill-opacity:1.0; 
stroke:#FFFFFF; stroke-width:0; stroke-opacity:1; 
stroke-linecap:round; stroke-linejoin:round;">
<circle cx="55380" cy="41536" r="393.701" /> 
</g>
<g style="fill:#FFFFFF; fill-opacity:1.0; 
stroke:#FFFFFF; stroke-width:39.3701; stroke-opacity:1; 
stroke-linecap:round; stroke-linejoin:round;">
</g>
<g style="fill:#FFFFFF; fill-opacity:1.0; 
stroke:#FFFFFF; stroke-width:0; stroke-opacity:1; 
stroke-linecap:round; stroke-linejoin:round;">
<circle cx="56380" cy="41536" r="393.701" /> 
</g>
<g style="fill:#FFFFFF; fill-opacity:1.0; 
stroke:#FFFFFF; stroke-width:39.3701; stroke-opacity:1; 
stroke-linecap:round; stroke-linejoin:round;">
</g>
<g >
</g>
<g style="fill:#FFFFFF; fill-opacity:1.0; 
stroke:#FFFFFF; stroke-width:39.3701; stroke-opacity:1; 
stroke-linecap:round; stroke-linejoin:round;">
</g>
<g style="fill:#FFFFFF; fill-opacity:1.0; 
stroke:#FFFFFF; stroke-width:0; stroke-opacity:1; 
stroke-linecap:round; stroke-linejoin:round;">
<circle cx="64880" cy="41536" r="393.701" /> 
</g>
<g style="fill:#FFFFFF; fill-opacity:1.0; 
stroke:#FFFFFF; stroke-width:39.3701; stroke-opacity:1; 
stroke-linecap:round; stroke-linejoin:round;">
</g>
<g style="fill:#FFFFFF; fill-opacity:1.0; 
stroke:#FFFFFF; stroke-width:0; stroke-opacity:1; 
stroke-linecap:round; stroke-linejoin:round;">
<circle cx="65880" cy="41536" r="393.701" /> 
</g>
<g style="fill:#FFFFFF; fill-opacity:1.0; 
stroke:#FFFFFF; stroke-width:39.3701; stroke-opacity:1; 
stroke-linecap:round; stroke-linejoin:round;">
</g>
<g >
</g>
<g style="fill:#FFFFFF; fill-opacity:1.0; 
stroke:#FFFFFF; stroke-width:39.3701; stroke-opacity:1; 
stroke-linecap:round; stroke-linejoin:round;">
</g>
<g style="fill:#FFFFFF; fill-opacity:1.0; 
stroke:#FFFFFF; stroke-width:0; stroke-opacity:1; 
stroke-linecap:round; stroke-linejoin:round;">
<circle cx="58880" cy="41536" r="393.701" /> 
</g>
<g style="fill:#FFFFFF; fill-opacity:1.0; 
stroke:#FFFFFF; stroke-width:39.3701; stroke-opacity:1; 
stroke-linecap:round; stroke-linejoin:round;">
</g>
<g style="fill:#FFFFFF; fill-opacity:1.0; 
stroke:#FFFFFF; stroke-width:0; stroke-opacity:1; 
stroke-linecap:round; stroke-linejoin:round;">
<circle cx="59880" cy="41536" r="393.701" /> 
</g>
<g style="fill:#FFFFFF; fill-opacity:1.0; 
stroke:#FFFFFF; stroke-width:39.3701; stroke-opacity:1; 
stroke-linecap:round; stroke-linejoin:round;">
</g>
<g style="fill:#FFFFFF; fill-opacity:1.0; 
stroke:#FFFFFF; stroke-width:0; stroke-opacity:1; 
stroke-linecap:round; stroke-linejoin:round;">
<circle cx="60880" cy="41536" r="393.701" /> 
</g>
<g style="fill:#FFFFFF; fill-opacity:1.0; 
stroke:#FFFFFF; stroke-width:39.3701; stroke-opacity:1; 
stroke-linecap:round; stroke-linejoin:round;">
</g>
<g style="fill:#FFFFFF; fill-opacity:1.0; 
stroke:#FFFFFF; stroke-width:0; stroke-opacity:1; 
stroke-linecap:round; stroke-linejoin:round;">
<circle cx="61880" cy="41536" r="393.701" /> 
</g>
<g style="fill:#FFFFFF; fill-opacity:1.0; 
stroke:#FFFFFF; stroke-width:39.3701; stroke-opacity:1; 
stroke-linecap:round; stroke-linejoin:round;">
</g>
<g style="fill:#FFFFFF; fill-opacity:1.0; 
stroke:#FFFFFF; stroke-width:0; stroke-opacity:1; 
stroke-linecap:round; stroke-linejoin:round;">
<circle cx="62880" cy="41536" r="393.701" /> 
</g>
<g style="fill:#FFFFFF; fill-opacity:1.0; 
stroke:#FFFFFF; stroke-width:39.3701; stroke-opacity:1; 
stroke-linecap:round; stroke-linejoin:round;">
</g>
<g style="fill:#FFFFFF; fill-opacity:1.0; 
stroke:#FFFFFF; stroke-width:0; stroke-opacity:1; 
stroke-linecap:round; stroke-linejoin:round;">
<circle cx="63880" cy="41536" r="393.701" /> 
</g>
<g style="fill:#FFFFFF; fill-opacity:1.0; 
stroke:#FFFFFF; stroke-width:39.3701; stroke-opacity:1; 
stroke-linecap:round; stroke-linejoin:round;">
</g>
<g >
</g>
<g style="fill:#FFFFFF; fill-opacity:1.0; 
stroke:#FFFFFF; stroke-width:39.3701; stroke-opacity:1; 
stroke-linecap:round; stroke-linejoin:round;">
</g>
<g style="fill:#FFFFFF; fill-opacity:1.0; 
stroke:#FFFFFF; stroke-width:0; stroke-opacity:1; 
stroke-linecap:round; stroke-linejoin:round;">
<path style="fill:#FFFFFF; fill-opacity:1.0; 
stroke:#FFFFFF; stroke-width:0; stroke-opacity:1; 
stroke-linecap:round; stroke-linejoin:round;fill-rule:evenodd;"
d="M 64615.7,38728
64625.3,38729.4
64634.7,38731.8
64643.8,38735
64652.5,38739.1
64660.8,38744.1
64668.5,38749.9
64675.7,38756.3
64682.2,38763.5
64687.9,38771.3
64692.9,38779.5
64697,38788.3
64700.3,38797.4
64702.6,38806.7
64704,38816.3
64704.5,38825.9
64704.5,39318.1
64704,39327.7
64702.6,39337.3
64700.3,39346.6
64697,39355.7
64692.9,39364.5
64687.9,39372.7
64682.2,39380.5
64675.7,39387.7
64668.5,39394.1
64660.8,39399.9
64652.5,39404.9
64643.8,39409
64634.7,39412.2
64625.3,39414.6
64615.7,39416
64606.1,39416.5
64241.9,39416.5
64232.3,39416
64222.7,39414.6
64213.3,39412.2
64204.2,39409
64195.5,39404.9
64187.2,39399.9
64179.5,39394.1
64172.3,39387.7
64165.8,39380.5
64160.1,39372.7
64155.1,39364.5
64151,39355.7
64147.7,39346.6
64145.4,39337.3
64144,39327.7
64143.5,39318.1
64143.5,38825.9
64144,38816.3
64145.4,38806.7
64147.7,38797.4
64151,38788.3
64155.1,38779.5
64160.1,38771.3
64165.8,38763.5
64172.3,38756.3
64179.5,38749.9
64187.2,38744.1
64195.5,38739.1
64204.2,38735
64213.3,38731.8
64222.7,38729.4
64232.3,38728
64241.9,38727.5
64606.1,38727.5
Z" /> 
<path style="fill:#FFFFFF; fill-opacity:1.0; 
stroke:#FFFFFF; stroke-width:0; stroke-opacity:1; 
stroke-linecap:round; stroke-linejoin:round;fill-rule:evenodd;"
d="M 65787,38728
65796.5,38729.4
65805.9,38731.8
65815,38735
65823.7,38739.1
65832,38744.1
65839.8,38749.9
65846.9,38756.3
65853.4,38763.5
65859.2,38771.3
65864.1,38779.5
65868.3,38788.3
65871.5,38797.4
65873.9,38806.7
65875.3,38816.3
65875.8,38825.9
65875.8,39318.1
65875.3,39327.7
65873.9,39337.3
65871.5,39346.6
65868.3,39355.7
65864.1,39364.5
65859.2,39372.7
65853.4,39380.5
65846.9,39387.7
65839.8,39394.1
65832,39399.9
65823.7,39404.9
65815,39409
65805.9,39412.2
65796.5,39414.6
65787,39416
65777.3,39416.5
65413.2,39416.5
65403.5,39416
65394,39414.6
65384.6,39412.2
65375.5,39409
65366.8,39404.9
65358.5,39399.9
65350.7,39394.1
65343.6,39387.7
65337.1,39380.5
65331.3,39372.7
65326.4,39364.5
65322.2,39355.7
65319,39346.6
65316.6,39337.3
65315.2,39327.7
65314.7,39318.1
65314.7,38825.9
65315.2,38816.3
65316.6,38806.7
65319,38797.4
65322.2,38788.3
65326.4,38779.5
65331.3,38771.3
65337.1,38763.5
65343.6,38756.3
65350.7,38749.9
65358.5,38744.1
65366.8,38739.1
65375.5,38735
65384.6,38731.8
65394,38729.4
65403.5,38728
65413.2,38727.5
65777.3,38727.5
Z" /> 
</g>
<g >
</g>
<g >
</g>
<g style="fill:#FFFFFF; fill-opacity:1.0; 
stroke:#FFFFFF; stroke-width:0; stroke-opacity:1; 
stroke-linecap:round; stroke-linejoin:round;">
<path style="fill:#FFFFFF; fill-opacity:1.0; 
stroke:#FFFFFF; stroke-width:0; stroke-opacity:1; 
stroke-linecap:round; stroke-linejoin:round;fill-rule:evenodd;"
d="M 54292.3,36789.4
55079.7,36789.4
55079.7,38561.1
54292.3,38561.1
Z" /> 
<path style="fill:#FFFFFF; fill-opacity:1.0; 
stroke:#FFFFFF; stroke-width:0; stroke-opacity:1; 
stroke-linecap:round; stroke-linejoin:round;fill-rule:evenodd;"
d="M 54292.3,33442.9
55079.7,33442.9
55079.7,35214.6
54292.3,35214.6
Z" /> 
</g>
<g >
</g>
<g >
</g>
<g style="fill:#FFFFFF; fill-opacity:1.0; 
stroke:#FFFFFF; stroke-width:0; stroke-opacity:1; 
stroke-linecap:round; stroke-linejoin:round;">
<path style="fill:#FFFFFF; fill-opacity:1.0; 
stroke:#FFFFFF; stroke-width:0; stroke-opacity:1; 
stroke-linecap:round; stroke-linejoin:round;fill-rule:evenodd;"
d="M 60419.7,35366
60429.3,35367.4
60438.7,35369.8
60447.8,35373
60456.5,35377.1
60464.8,35382.1
60472.5,35387.9
60479.7,35394.3
60486.2,35401.5
60491.9,35409.3
60496.9,35417.5
60501,35426.3
60504.3,35435.4
60506.6,35444.7
60508,35454.3
60508.5,35463.9
60508.5,35956.1
60508,35965.7
60506.6,35975.3
60504.3,35984.6
60501,35993.7
60496.9,36002.5
60491.9,36010.7
60486.2,36018.5
60479.7,36025.7
60472.5,36032.1
60464.8,36037.9
60456.5,36042.9
60447.8,36047
60438.7,36050.2
60429.3,36052.6
60419.7,36054
60410.1,36054.5
60045.9,36054.5
60036.3,36054
60026.7,36052.6
60017.3,36050.2
60008.2,36047
59999.5,36042.9
59991.2,36037.9
59983.5,36032.1
59976.3,36025.7
59969.8,36018.5
59964.1,36010.7
59959.1,36002.5
59955,35993.7
59951.7,35984.6
59949.4,35975.3
59948,35965.7
59947.5,35956.1
59947.5,35463.9
59948,35454.3
59949.4,35444.7
59951.7,35435.4
59955,35426.3
59959.1,35417.5
59964.1,35409.3
59969.8,35401.5
59976.3,35394.3
59983.5,35387.9
59991.2,35382.1
59999.5,35377.1
60008.2,35373
60017.3,35369.8
60026.7,35367.4
60036.3,35366
60045.9,35365.5
60410.1,35365.5
Z" /> 
<path style="fill:#FFFFFF; fill-opacity:1.0; 
stroke:#FFFFFF; stroke-width:0; stroke-opacity:1; 
stroke-linecap:round; stroke-linejoin:round;fill-rule:evenodd;"
d="M 61591,35366
61600.5,35367.4
61609.9,35369.8
61619,35373
61627.7,35377.1
61636,35382.1
61643.8,35387.9
61650.9,35394.3
61657.4,35401.5
61663.2,35409.3
61668.1,35417.5
61672.3,35426.3
61675.5,35435.4
61677.9,35444.7
61679.3,35454.3
61679.8,35463.9
61679.8,35956.1
61679.3,35965.7
61677.9,35975.3
61675.5,35984.6
61672.3,35993.7
61668.1,36002.5
61663.2,36010.7
61657.4,36018.5
61650.9,36025.7
61643.8,36032.1
61636,36037.9
61627.7,36042.9
61619,36047
61609.9,36050.2
61600.5,36052.6
61591,36054
61581.3,36054.5
61217.2,36054.5
61207.5,36054
61198,36052.6
61188.6,36050.2
61179.5,36047
61170.8,36042.9
61162.5,36037.9
61154.7,36032.1
61147.6,36025.7
61141.1,36018.5
61135.3,36010.7
61130.4,36002.5
61126.2,35993.7
61123,35984.6
61120.6,35975.3
61119.2,35965.7
61118.7,35956.1
61118.7,35463.9
61119.2,35454.3
61120.6,35444.7
61123,35435.4
61126.2,35426.3
61130.4,35417.5
61135.3,35409.3
61141.1,35401.5
61147.6,35394.3
61154.7,35387.9
61162.5,35382.1
61170.8,35377.1
61179.5,35373
61188.6,35369.8
61198,35367.4
61207.5,35366
61217.2,35365.5
61581.3,35365.5
Z" /> 
</g>
<g >
</g>
<g >
</g>
<g style="fill:#FFFFFF; fill-opacity:1.0; 
stroke:#FFFFFF; stroke-width:0; stroke-opacity:1; 
stroke-linecap:round; stroke-linejoin:round;">
<path style="fill:#FFFFFF; fill-opacity:1.0; 
stroke:#FFFFFF; stroke-width:0; stroke-opacity:1; 
stroke-linecap:round; stroke-linejoin:round;fill-rule:evenodd;"
d="M 57770.7,39437.3
57780.3,39438.7
57789.6,39441.1
57798.7,39444.4
57807.5,39448.5
57815.7,39453.4
57823.5,39459.2
57830.7,39465.7
57837.1,39472.8
57842.9,39480.6
57847.9,39488.9
57852,39497.6
57855.2,39506.7
57857.6,39516.1
57859,39525.6
57859.5,39535.3
57859.5,39899.5
57859,39909.1
57857.6,39918.7
57855.2,39928
57852,39937.1
57847.9,39945.9
57842.9,39954.1
57837.1,39961.9
57830.7,39969.1
57823.5,39975.5
57815.7,39981.3
57807.5,39986.3
57798.7,39990.4
57789.6,39993.6
57780.3,39996
57770.7,39997.4
57761.1,39997.9
57268.9,39997.9
57259.3,39997.4
57249.7,39996
57240.4,39993.6
57231.3,39990.4
57222.5,39986.3
57214.3,39981.3
57206.5,39975.5
57199.3,39969.1
57192.9,39961.9
57187.1,39954.1
57182.1,39945.9
57178,39937.1
57174.8,39928
57172.4,39918.7
57171,39909.1
57170.5,39899.5
57170.5,39535.3
57171,39525.6
57172.4,39516.1
57174.8,39506.7
57178,39497.6
57182.1,39488.9
57187.1,39480.6
57192.9,39472.8
57199.3,39465.7
57206.5,39459.2
57214.3,39453.4
57222.5,39448.5
57231.3,39444.4
57240.4,39441.1
57249.7,39438.7
57259.3,39437.3
57268.9,39436.9
57761.1,39436.9
Z" /> 
<path style="fill:#FFFFFF; fill-opacity:1.0; 
stroke:#FFFFFF; stroke-width:0; stroke-opacity:1; 
stroke-linecap:round; stroke-linejoin:round;fill-rule:evenodd;"
d="M 57770.7,40608.6
57780.3,40610
57789.6,40612.4
57798.7,40615.6
57807.5,40619.7
57815.7,40624.7
57823.5,40630.5
57830.7,40636.9
57837.1,40644.1
57842.9,40651.9
57847.9,40660.1
57852,40668.9
57855.2,40678
57857.6,40687.3
57859,40696.9
57859.5,40706.5
57859.5,41070.7
57859,41080.4
57857.6,41089.9
57855.2,41099.3
57852,41108.4
57847.9,41117.1
57842.9,41125.4
57837.1,41133.2
57830.7,41140.3
57823.5,41146.8
57815.7,41152.6
57807.5,41157.5
57798.7,41161.6
57789.6,41164.9
57780.3,41167.3
57770.7,41168.7
57761.1,41169.1
57268.9,41169.1
57259.3,41168.7
57249.7,41167.3
57240.4,41164.9
57231.3,41161.6
57222.5,41157.5
57214.3,41152.6
57206.5,41146.8
57199.3,41140.3
57192.9,41133.2
57187.1,41125.4
57182.1,41117.1
57178,41108.4
57174.8,41099.3
57172.4,41089.9
57171,41080.4
57170.5,41070.7
57170.5,40706.5
57171,40696.9
57172.4,40687.3
57174.8,40678
57178,40668.9
57182.1,40660.1
57187.1,40651.9
57192.9,40644.1
57199.3,40636.9
57206.5,40630.5
57214.3,40624.7
57222.5,40619.7
57231.3,40615.6
57240.4,40612.4
57249.7,40610
57259.3,40608.6
57268.9,40608.1
57761.1,40608.1
Z" /> 
</g>
<g >
</g>
<g >
</g>
<g >
</g>
<g >
</g>
<g >
</g>
<g style="fill:#FFFFFF; fill-opacity:1.0; 
stroke:#FFFFFF; stroke-width:0; stroke-opacity:1; 
stroke-linecap:round; stroke-linejoin:round;">
<path style="fill:#FFFFFF; fill-opacity:1.0; 
stroke:#FFFFFF; stroke-width:0; stroke-opacity:1; 
stroke-linecap:round; stroke-linejoin:round;fill-rule:evenodd;"
d="M 56415.7,35136.3
56425.3,35137.8
56434.6,35140.1
56443.7,35143.4
56452.5,35147.5
56460.7,35152.4
56468.5,35158.2
56475.7,35164.7
56482.1,35171.8
56487.9,35179.6
56492.9,35187.9
56497,35196.6
56500.2,35205.7
56502.6,35215.1
56504,35224.6
56504.5,35234.3
56504.5,35598.5
56504,35608.1
56502.6,35617.7
56500.2,35627
56497,35636.1
56492.9,35644.9
56487.9,35653.1
56482.1,35660.9
56475.7,35668.1
56468.5,35674.5
56460.7,35680.3
56452.5,35685.3
56443.7,35689.4
56434.6,35692.6
56425.3,35695
56415.7,35696.4
56406.1,35696.9
55913.9,35696.9
55904.3,35696.4
55894.7,35695
55885.4,35692.6
55876.3,35689.4
55867.5,35685.3
55859.3,35680.3
55851.5,35674.5
55844.3,35668.1
55837.9,35660.9
55832.1,35653.1
55827.1,35644.9
55823,35636.1
55819.7,35627
55817.4,35617.7
55816,35608.1
55815.5,35598.5
55815.5,35234.3
55816,35224.6
55817.4,35215.1
55819.7,35205.7
55823,35196.6
55827.1,35187.9
55832.1,35179.6
55837.9,35171.8
55844.3,35164.7
55851.5,35158.2
55859.3,35152.4
55867.5,35147.5
55876.3,35143.4
55885.4,35140.1
55894.7,35137.8
55904.3,35136.3
55913.9,35135.9
56406.1,35135.9
Z" /> 
<path style="fill:#FFFFFF; fill-opacity:1.0; 
stroke:#FFFFFF; stroke-width:0; stroke-opacity:1; 
stroke-linecap:round; stroke-linejoin:round;fill-rule:evenodd;"
d="M 56415.7,36307.6
56425.3,36309
56434.6,36311.4
56443.7,36314.6
56452.5,36318.7
56460.7,36323.7
56468.5,36329.5
56475.7,36335.9
56482.1,36343.1
56487.9,36350.9
56492.9,36359.1
56497,36367.9
56500.2,36377
56502.6,36386.3
56504,36395.9
56504.5,36405.5
56504.5,36769.7
56504,36779.4
56502.6,36788.9
56500.2,36798.3
56497,36807.4
56492.9,36816.1
56487.9,36824.4
56482.1,36832.2
56475.7,36839.3
56468.5,36845.8
56460.7,36851.6
56452.5,36856.5
56443.7,36860.7
56434.6,36863.9
56425.3,36866.3
56415.7,36867.7
56406.1,36868.1
55913.9,36868.1
55904.3,36867.7
55894.7,36866.3
55885.4,36863.9
55876.3,36860.7
55867.5,36856.5
55859.3,36851.6
55851.5,36845.8
55844.3,36839.3
55837.9,36832.2
55832.1,36824.4
55827.1,36816.1
55823,36807.4
55819.7,36798.3
55817.4,36788.9
55816,36779.4
55815.5,36769.7
55815.5,36405.5
55816,36395.9
55817.4,36386.3
55819.7,36377
55823,36367.9
55827.1,36359.1
55832.1,36350.9
55837.9,36343.1
55844.3,36335.9
55851.5,36329.5
55859.3,36323.7
55867.5,36318.7
55876.3,36314.6
55885.4,36311.4
55894.7,36309
55904.3,36307.6
55913.9,36307.1
56406.1,36307.1
Z" /> 
</g>
<g >
</g>
<g >
</g>
<g >
</g>
<g style="fill:#FFFFFF; fill-opacity:1.0; 
stroke:#FFFFFF; stroke-width:0; stroke-opacity:1; 
stroke-linecap:round; stroke-linejoin:round;">
<path style="fill:#FFFFFF; fill-opacity:1.0; 
stroke:#FFFFFF; stroke-width:0; stroke-opacity:1; 
stroke-linecap:round; stroke-linejoin:round;fill-rule:evenodd;"
d="M 64615.7,39676.8
64625.3,39678.2
64634.7,39680.6
64643.8,39683.8
64652.5,39688
64660.8,39692.9
64668.5,39698.7
64675.7,39705.2
64682.2,39712.3
64687.9,39720.1
64692.9,39728.4
64697,39737.1
64700.3,39746.2
64702.6,39755.6
64704,39765.1
64704.5,39774.8
64704.5,40621.2
64704,40630.9
64702.6,40640.4
64700.3,40649.8
64697,40658.9
64692.9,40667.6
64687.9,40675.9
64682.2,40683.7
64675.7,40690.8
64668.5,40697.3
64660.8,40703.1
64652.5,40708
64643.8,40712.2
64634.7,40715.4
64625.3,40717.8
64615.7,40719.2
64606.1,40719.7
64241.9,40719.7
64232.3,40719.2
64222.7,40717.8
64213.3,40715.4
64204.2,40712.2
64195.5,40708
64187.2,40703.1
64179.5,40697.3
64172.3,40690.8
64165.8,40683.7
64160.1,40675.9
64155.1,40667.6
64151,40658.9
64147.7,40649.8
64145.4,40640.4
64144,40630.9
64143.5,40621.2
64143.5,39774.8
64144,39765.1
64145.4,39755.6
64147.7,39746.2
64151,39737.1
64155.1,39728.4
64160.1,39720.1
64165.8,39712.3
64172.3,39705.2
64179.5,39698.7
64187.2,39692.9
64195.5,39688
64204.2,39683.8
64213.3,39680.6
64222.7,39678.2
64232.3,39676.8
64241.9,39676.3
64606.1,39676.3
Z" /> 
<path style="fill:#FFFFFF; fill-opacity:1.0; 
stroke:#FFFFFF; stroke-width:0; stroke-opacity:1; 
stroke-linecap:round; stroke-linejoin:round;fill-rule:evenodd;"
d="M 65787,39676.8
65796.5,39678.2
65805.9,39680.6
65815,39683.8
65823.7,39688
65832,39692.9
65839.8,39698.7
65846.9,39705.2
65853.4,39712.3
65859.2,39720.1
65864.1,39728.4
65868.3,39737.1
65871.5,39746.2
65873.9,39755.6
65875.3,39765.1
65875.8,39774.8
65875.8,40621.2
65875.3,40630.9
65873.9,40640.4
65871.5,40649.8
65868.3,40658.9
65864.1,40667.6
65859.2,40675.9
65853.4,40683.7
65846.9,40690.8
65839.8,40697.3
65832,40703.1
65823.7,40708
65815,40712.2
65805.9,40715.4
65796.5,40717.8
65787,40719.2
65777.3,40719.7
65413.2,40719.7
65403.5,40719.2
65394,40717.8
65384.6,40715.4
65375.5,40712.2
65366.8,40708
65358.5,40703.1
65350.7,40697.3
65343.6,40690.8
65337.1,40683.7
65331.3,40675.9
65326.4,40667.6
65322.2,40658.9
65319,40649.8
65316.6,40640.4
65315.2,40630.9
65314.7,40621.2
65314.7,39774.8
65315.2,39765.1
65316.6,39755.6
65319,39746.2
65322.2,39737.1
65326.4,39728.4
65331.3,39720.1
65337.1,39712.3
65343.6,39705.2
65350.7,39698.7
65358.5,39692.9
65366.8,39688
65375.5,39683.8
65384.6,39680.6
65394,39678.2
65403.5,39676.8
65413.2,39676.3
65777.3,39676.3
Z" /> 
</g>
<g >
</g>
<g >
</g>
<g >
</g>
<g style="fill:#FFFFFF; fill-opacity:1.0; 
stroke:#FFFFFF; stroke-width:0; stroke-opacity:1; 
stroke-linecap:round; stroke-linejoin:round;">
<circle cx="58756.6" cy="32058" r="236.22" /> 
</g>
<g style="fill:#FFFFFF; fill-opacity:1.0; 
stroke:#FFFFFF; stroke-width:39.3701; stroke-opacity:1; 
stroke-linecap:round; stroke-linejoin:round;">
</g>
<g style="fill:#FFFFFF; fill-opacity:1.0; 
stroke:#FFFFFF; stroke-width:0; stroke-opacity:1; 
stroke-linecap:round; stroke-linejoin:round;">
<path style="fill:#FFFFFF; fill-opacity:1.0; 
stroke:#FFFFFF; stroke-width:0; stroke-opacity:1; 
stroke-linecap:round; stroke-linejoin:round;fill-rule:evenodd;"
d="M 59780.2,31821.8
59780.2,32294.2
59307.8,32294.2
59307.8,31821.8
Z" /> 
</g>
<g >
</g>
<g >
</g>
<g >
</g>
<g >
</g>
<g style="fill:#FFFFFF; fill-opacity:1.0; 
stroke:#FFFFFF; stroke-width:0; stroke-opacity:1; 
stroke-linecap:round; stroke-linejoin:round;">
<circle cx="56160" cy="34585" r="314.961" /> 
</g>
<g style="fill:#FFFFFF; fill-opacity:1.0; 
stroke:#FFFFFF; stroke-width:39.3701; stroke-opacity:1; 
stroke-linecap:round; stroke-linejoin:round;">
</g>
<g style="fill:#FFFFFF; fill-opacity:1.0; 
stroke:#FFFFFF; stroke-width:0; stroke-opacity:1; 
stroke-linecap:round; stroke-linejoin:round;">
<circle cx="56160" cy="37419.3" r="314.961" /> 
</g>
<g style="fill:#FFFFFF; fill-opacity:1.0; 
stroke:#FFFFFF; stroke-width:39.3701; stroke-opacity:1; 
stroke-linecap:round; stroke-linejoin:round;">
</g>
<g style="fill:#FFFFFF; fill-opacity:1.0; 
stroke:#FFFFFF; stroke-width:0; stroke-opacity:1; 
stroke-linecap:round; stroke-linejoin:round;">
<circle cx="61083" cy="33752" r="314.961" /> 
</g>
<g style="fill:#FFFFFF; fill-opacity:1.0; 
stroke:#FFFFFF; stroke-width:39.3701; stroke-opacity:1; 
stroke-linecap:round; stroke-linejoin:round;">
</g>
<g style="fill:#FFFFFF; fill-opacity:1.0; 
stroke:#FFFFFF; stroke-width:0; stroke-opacity:1; 
stroke-linecap:round; stroke-linejoin:round;">
<circle cx="56246" cy="39235" r="314.961" /> 
</g>
<g style="fill:#FFFFFF; fill-opacity:1.0; 
stroke:#FFFFFF; stroke-width:39.3701; stroke-opacity:1; 
stroke-linecap:round; stroke-linejoin:round;">
</g>
<g style="fill:#FFFFFF; fill-opacity:1.0; 
stroke:#FFFFFF; stroke-width:0; stroke-opacity:1; 
stroke-linecap:round; stroke-linejoin:round;">
<circle cx="63519" cy="40516" r="314.961" /> 
</g>
<g style="fill:#FFFFFF; fill-opacity:1.0; 
stroke:#FFFFFF; stroke-width:39.3701; stroke-opacity:1; 
stroke-linecap:round; stroke-linejoin:round;">
</g>
<g style="fill:#FFFFFF; fill-opacity:1.0; 
stroke:#FFFFFF; stroke-width:0; stroke-opacity:1; 
stroke-linecap:round; stroke-linejoin:round;">
<circle cx="58461" cy="38671" r="314.961" /> 
</g>
<g style="fill:#FFFFFF; fill-opacity:1.0; 
stroke:#FFFFFF; stroke-width:39.3701; stroke-opacity:1; 
stroke-linecap:round; stroke-linejoin:round;">
</g>
<g style="fill:#FFFFFF; fill-opacity:1.0; 
stroke:#FFFFFF; stroke-width:0; stroke-opacity:1; 
stroke-linecap:round; stroke-linejoin:round;">
<circle cx="57585.7" cy="32071" r="314.961" /> 
</g>
<g style="fill:#FFFFFF; fill-opacity:1.0; 
stroke:#FFFFFF; stroke-width:39.3701; stroke-opacity:1; 
stroke-linecap:round; stroke-linejoin:round;">
</g>
<g style="fill:#FFFFFF; fill-opacity:1.0; 
stroke:#FFFFFF; stroke-width:0; stroke-opacity:1; 
stroke-linecap:round; stroke-linejoin:round;">
<circle cx="61083" cy="38256" r="314.961" /> 
</g>
<g style="fill:#FFFFFF; fill-opacity:1.0; 
stroke:#FFFFFF; stroke-width:39.3701; stroke-opacity:1; 
stroke-linecap:round; stroke-linejoin:round;">
</g>
<g style="fill:#FFFFFF; fill-opacity:1.0; 
stroke:#FFFFFF; stroke-width:0; stroke-opacity:1; 
stroke-linecap:round; stroke-linejoin:round;">
<circle cx="60421" cy="31985" r="314.961" /> 
</g>
<g style="fill:#FFFFFF; fill-opacity:1.0; 
stroke:#FFFFFF; stroke-width:39.3701; stroke-opacity:1; 
stroke-linecap:round; stroke-linejoin:round;">
</g>
<g style="fill:#FFFFFF; fill-opacity:1.0; 
stroke:#FFFFFF; stroke-width:0; stroke-opacity:1; 
stroke-linecap:round; stroke-linejoin:round;">
<circle cx="60952" cy="36516" r="314.961" /> 
</g>
<g style="fill:#FFFFFF; fill-opacity:1.0; 
stroke:#FFFFFF; stroke-width:39.3701; stroke-opacity:1; 
stroke-linecap:round; stroke-linejoin:round;">
</g>
<g >
</g>
<g style="fill:#FFFFFF; fill-opacity:1.0; 
stroke:#FFFFFF; stroke-width:39.3701; stroke-opacity:1; 
stroke-linecap:round; stroke-linejoin:round;">
</g>
<g style="fill:#FFFFFF; fill-opacity:1.0; 
stroke:#FFFFFF; stroke-width:196.85; stroke-opacity:1; 
stroke-linecap:round; stroke-linejoin:round;">
</g>
<g style="fill:#FFFFFF; fill-opacity:0.0; 
stroke:#FFFFFF; stroke-width:196.85; stroke-opacity:1; 
stroke-linecap:round; stroke-linejoin:round;">
<path d="M56160 35416
L56160 34585
" />
<path d="M55903 34328
L56160 34585
" />
<path d="M54685 34328
L55903 34328
" />
<path d="M55904 37675
L56160 37419
" />
<path d="M54685 37675
L55904 37675
" />
<path d="M56160 36587
L56159 36587
" />
<path d="M56160 37419
L56160 36587
" />
</g>
<g style="fill:#FFFFFF; fill-opacity:0.0; 
stroke:#FFFFFF; stroke-width:393.701; stroke-opacity:1; 
stroke-linecap:round; stroke-linejoin:round;">
<path d="M61861 33751
L61083 33751
" />
<path d="M62456 32616
L62456 33156
" />
<path d="M62456 33156
L61861 33751
" />
<path d="M58880 40820
L58880 41536
" />
<path d="M58370 40310
L58880 40820
" />
<path d="M56724 40310
L58370 40310
" />
<path d="M56246 39235
L56246 39832
" />
<path d="M56246 39832
L56724 40310
" />
<path d="M63519 40516
L63519 39513
" />
<path d="M63960 39072
L64424 39072
" />
<path d="M63519 39513
L63960 39072
" />
<path d="M58756 37551
L58756 32058
" />
<path d="M59415 38210
L58756 37551
" />
<path d="M59415 39302
L59415 38210
" />
<path d="M60880 41536
L60880 40767
" />
<path d="M60880 40767
L59415 39302
" />
<path d="M58103 38671
L58461 38671
" />
<path d="M57515 39717
L57515 39259
" />
<path d="M57515 39259
L58103 38671
" />
<path d="M58368 31287
L62456 31287
" />
<path d="M57585 32071
L58368 31287
" />
<path d="M60747 37919
L61083 38255
" />
<path d="M60747 37415
L60747 37919
" />
<path d="M60228 36896
L60747 37415
" />
<path d="M60228 36896
L60228 35710
" />
<path d="M60035 38974
L61880 40819
" />
<path d="M60421 33207
L59425 34203
" />
<path d="M60035 37844
L60035 38974
" />
<path d="M61880 40819
L61880 41536
" />
<path d="M60421 31984
L60421 33207
" />
<path d="M59425 34203
L59425 37234
" />
<path d="M59425 37234
L60035 37844
" />
<path d="M65595 40198
L65595 39072
" />
<path d="M65595 38840
L65595 39072
" />
<path d="M65079 38324
L65595 38840
" />
<path d="M65079 37181
L65079 38324
" />
<path d="M61399 35710
L63608 35710
" />
<path d="M63608 35710
L65079 37181
" />
<path d="M65595 34153
L65595 38727
" />
<path d="M63627 32616
L64058 32616
" />
<path d="M65595 38727
L65595 39072
" />
<path d="M64058 32616
L65595 34153
" />
<path d="M66213 38372
L65595 38989
" />
<path d="M66213 33592
L66213 38372
" />
<path d="M65595 38989
L65595 39072
" />
<path d="M63627 31287
L63908 31287
" />
<path d="M63908 31287
L66213 33592
" />
<path d="M61893 36516
L62197 36820
" />
<path d="M62653 40589
L62880 40816
" />
<path d="M60952 36516
L61893 36516
" />
<path d="M62653 39137
L62653 40589
" />
<path d="M62880 40816
L62880 41536
" />
<path d="M62197 36820
L62197 38681
" />
<path d="M62197 38681
L62653 39137
" />
<path d="M63880 41259
L63880 41536
" />
<path d="M64424 40198
L64424 40715
" />
<path d="M64424 40715
L63880 41259
" />
<path d="M63880 42092
L63491 42481
" />
<path d="M63880 41536
L63880 42092
" />
<path d="M63491 42481
L57863 42481
" />
<path d="M57515 42133
L57515 40888
" />
<path d="M57863 42481
L57515 42133
" />
</g>
<g >
</g>
<g style="fill:#FFFFFF; fill-opacity:0.0; 
stroke:#FFFFFF; stroke-width:393.701; stroke-opacity:1; 
stroke-linecap:round; stroke-linejoin:round;">
</g>
<g style="fill:#FFFFFF; fill-opacity:1.0; 
stroke:#FFFFFF; stroke-width:100; stroke-opacity:1; 
stroke-linecap:round; stroke-linejoin:round;">
<path style="fill:#FFFFFF; fill-opacity:1.0; 
stroke:#FFFFFF; stroke-width:100; stroke-opacity:1; 
stroke-linecap:round; stroke-linejoin:round;fill-rule:evenodd;"
d="M 58187.7,30878.1
58119.3,30914.7
58068.3,30956.5
58068.3,30956.5
58051.2,30970.5
58037.2,30987.5
57515.9,31508.9
57420.9,31527.8
57318.1,31570.3
57225.6,31632.2
57146.9,31710.9
57085.1,31803.4
57042.5,31906.2
57020.8,32015.4
57020.8,32126.6
57042.5,32235.8
57085.1,32338.6
57146.9,32431.1
57225.6,32509.8
57318.1,32571.7
57420.9,32614.2
57530.1,32636
57641.4,32636
57750.5,32614.2
57853.3,32571.7
57945.9,32509.8
58024.6,32431.1
58086.4,32338.6
58129,32235.8
58147.9,32140.8
58270.4,32018.3
58270.4,32105.9
58289.1,32199.8
58309.7,32249.8
58309.7,37529.6
58307.6,37551.6
58310.2,37578.1
58316.2,37639.2
58341.8,37723.4
58383.3,37801.1
58439.1,37869.1
58456.2,37883.1
58773.2,38200.1
58728.6,38170.3
58625.8,38127.8
58516.6,38106
58405.4,38106
58296.2,38127.8
58193.4,38170.3
58114.4,38223.1
58103,38222
58081.1,38224.1
58081.1,38224.1
58015.4,38230.6
57931.2,38256.2
57853.5,38297.7
57785.5,38353.5
57771.5,38370.6
57214.6,38927.5
57197.5,38941.5
57141.7,39009.5
57100.2,39087.2
57074.6,39171.4
57069.5,39223.5
57066.8,39251.1
57021.7,39288.1
56978.2,39341
56945.9,39401.5
56926,39467.1
56919.3,39535.3
56919.3,39899.5
56926,39967.7
56945.9,40033.3
56978.2,40093.7
57021.7,40146.7
57074.7,40190.2
57135.1,40222.5
57200.7,40242.4
57268.9,40249.1
57761.1,40249.1
57829.3,40242.4
57894.9,40222.5
57955.3,40190.2
58008.3,40146.7
58051.8,40093.7
58084.1,40033.3
58104,39967.7
58110.7,39899.5
58110.7,39535.3
58104,39467.1
58084.1,39401.5
58056.3,39349.6
58222.3,39183.6
58296.2,39214.2
58405.4,39236
58516.6,39236
58625.8,39214.2
58728.6,39171.7
58821.1,39109.8
58899.8,39031.1
58961.7,38938.6
58968.1,38922.9
58968.1,39280.1
58966,39302
58968.1,39323.9
58974.6,39389.6
59000.2,39473.8
59041.7,39551.5
59097.5,39619.5
59114.6,39633.5
60433.2,40952.1
60433.2,41072.5
60380,41125.7
60380,41125.7
60380,41125.7
60290.3,41036
60184.9,40965.6
60067.8,40917
59943.4,40892.3
59816.6,40892.3
59692.2,40917
59575.1,40965.6
59469.7,41036
59380,41125.7
59380,41125.7
59380,41125.7
59290.3,41036
59184.9,40965.6
59067.8,40917
58943.4,40892.3
58816.6,40892.3
58692.2,40917
58575.1,40965.6
58469.7,41036
58380,41125.7
58309.6,41231.1
58261,41348.2
58236.3,41472.6
58236.3,41599.4
58261,41723.8
58309.6,41840.9
58380,41946.3
58467.8,42034.1
58048.1,42034.1
57961.9,41947.9
57961.9,41356.1
58008.3,41317.9
58051.8,41265
58084.1,41204.5
58104,41138.9
58110.7,41070.7
58110.7,40706.5
58104,40638.3
58084.1,40572.7
58051.8,40512.3
58008.3,40459.3
57955.3,40415.8
57894.9,40383.5
57829.3,40363.6
57761.1,40356.9
57268.9,40356.9
57200.7,40363.6
57135.1,40383.5
57074.7,40415.8
57021.7,40459.3
56978.2,40512.3
56945.9,40572.7
56926,40638.3
56919.3,40706.5
56919.3,41070.7
56926,41138.9
56945.9,41204.5
56978.2,41265
57021.7,41317.9
57068.2,41356.1
57068.1,42111.1
57066,42133
57068.1,42154.9
57074.6,42220.6
57100.2,42304.8
57141.7,42382.5
57197.5,42450.5
57214.6,42464.5
57531.5,42781.5
57545.5,42798.5
57562.5,42812.5
57562.5,42812.5
57613.5,42854.3
57636.1,42866.4
52421,42866.4
52421,41472.6
52736.3,41472.6
52736.3,41599.4
52761,41723.8
52809.6,41840.9
52880,41946.3
52969.7,42036
53075.1,42106.4
53192.2,42155
53316.6,42179.7
53443.4,42179.7
53567.8,42155
53684.9,42106.4
53790.3,42036
53880,41946.3
53880,41946.3
53880,41946.3
53969.7,42036
54075.1,42106.4
54192.2,42155
54316.6,42179.7
54443.4,42179.7
54567.8,42155
54684.9,42106.4
54790.3,42036
54880,41946.3
54880,41946.3
54880,41946.3
54969.7,42036
55075.1,42106.4
55192.2,42155
55316.6,42179.7
55443.4,42179.7
55567.8,42155
55684.9,42106.4
55790.3,42036
55880,41946.3
55880,41946.3
55880,41946.3
55969.7,42036
56075.1,42106.4
56192.2,42155
56316.6,42179.7
56443.4,42179.7
56567.8,42155
56684.9,42106.4
56790.3,42036
56880,41946.3
56950.4,41840.9
56999,41723.8
57023.7,41599.4
57023.7,41472.6
56999,41348.2
56950.4,41231.1
56880,41125.7
56790.3,41036
56684.9,40965.6
56567.8,40917
56443.4,40892.3
56316.6,40892.3
56192.2,40917
56075.1,40965.6
55969.7,41036
55880,41125.7
55880,41125.7
55880,41125.7
55790.3,41036
55684.9,40965.6
55567.8,40917
55443.4,40892.3
55316.6,40892.3
55192.2,40917
55075.1,40965.6
54969.7,41036
54880,41125.7
54880,41125.7
54880,41125.7
54790.3,41036
54684.9,40965.6
54567.8,40917
54443.4,40892.3
54316.6,40892.3
54192.2,40917
54075.1,40965.6
53969.7,41036
53880,41125.7
53880,41125.7
53880,41125.7
53790.3,41036
53684.9,40965.6
53567.8,40917
53443.4,40892.3
53316.6,40892.3
53192.2,40917
53075.1,40965.6
52969.7,41036
52880,41125.7
52809.6,41231.1
52761,41348.2
52736.3,41472.6
52421,41472.6
52421,36789.4
54041.1,36789.4
54041.1,38561.1
54045.9,38610.1
54060.2,38657.2
54083.4,38700.6
54114.7,38738.7
54152.7,38769.9
54196.2,38793.1
54243.3,38807.4
54292.3,38812.3
55079.7,38812.3
55128.7,38807.4
55175.8,38793.1
55219.3,38769.9
55257.3,38738.7
55288.6,38700.6
55311.8,38657.2
55326.1,38610.1
55330.9,38561.1
55330.9,38023.7
55887,38023.7
55904.1,38025.3
55921.2,38023.7
55921.2,38023.7
55972.4,38018.6
56038.1,37998.7
56075.7,37978.6
56104.4,37984.3
56215.6,37984.3
56324.8,37962.6
56427.6,37920
56520.1,37858.2
56598.8,37779.5
56660.7,37686.9
56703.2,37584.1
56725,37475
56725,37363.7
56703.2,37254.5
56660.7,37151.7
56599.8,37060.7
56600.3,37060.4
56653.3,37016.9
56696.8,36964
56729.1,36903.5
56749,36837.9
56755.7,36769.7
56755.7,36405.5
56749,36337.3
56729.1,36271.7
56696.8,36211.3
56653.3,36158.3
56600.3,36114.8
56539.9,36082.5
56474.3,36062.6
56406.1,36055.9
55913.9,36055.9
55845.7,36062.6
55780.1,36082.5
55719.7,36114.8
55666.7,36158.3
55623.2,36211.3
55590.9,36271.7
55571,36337.3
55564.3,36405.5
55564.3,36769.7
55571,36837.9
55590.9,36903.5
55623.2,36964
55666.7,37016.9
55719.7,37060.4
55720.2,37060.7
55659.3,37151.7
55616.8,37254.5
55602.4,37326.8
55330.9,37326.8
55330.9,36789.4
55326.1,36740.4
55311.8,36693.3
55288.6,36649.8
55257.3,36611.8
55219.3,36580.5
55175.8,36557.3
55128.7,36543
55079.7,36538.2
54292.3,36538.2
54243.3,36543
54196.2,36557.3
54152.7,36580.5
54114.7,36611.8
54083.4,36649.8
54060.2,36693.3
54045.9,36740.4
54041.1,36789.4
52421,36789.4
52421,33442.9
54041.1,33442.9
54041.1,35214.6
54045.9,35263.6
54060.2,35310.7
54083.4,35354.2
54114.7,35392.2
54152.7,35423.5
54196.2,35446.7
54243.3,35461
54292.3,35465.8
55079.7,35465.8
55128.7,35461
55175.8,35446.7
55219.3,35423.5
55257.3,35392.2
55288.6,35354.2
55311.8,35310.7
55326.1,35263.6
55330.9,35214.6
55330.9,34677.2
55602.3,34677.2
55616.8,34749.8
55659.3,34852.6
55720,34943.4
55719.7,34943.6
55666.7,34987.1
55623.2,35040
55590.9,35100.5
55571,35166.1
55564.3,35234.3
55564.3,35598.5
55571,35666.7
55590.9,35732.3
55623.2,35792.7
55666.7,35845.7
55719.7,35889.2
55780.1,35921.5
55845.7,35941.4
55913.9,35948.1
56406.1,35948.1
56474.3,35941.4
56539.9,35921.5
56600.3,35889.2
56653.3,35845.7
56696.8,35792.7
56729.1,35732.3
56749,35666.7
56755.7,35598.5
56755.7,35234.3
56749,35166.1
56729.1,35100.5
56696.8,35040
56653.3,34987.1
56600.3,34943.6
56600,34943.4
56660.7,34852.6
56703.2,34749.8
56725,34640.6
56725,34529.4
56703.2,34420.2
56660.7,34317.4
56598.8,34224.9
56520.1,34146.2
56427.6,34084.3
56324.8,34041.8
56215.6,34020
56104.4,34020
56075.9,34025.7
56037.8,34005.3
55992,33991.4
55972.1,33985.4
55965.7,33984.8
55920.9,33980.3
55920.9,33980.3
55903.8,33978.7
55886.7,33980.3
55330.9,33980.3
55330.9,33442.9
55326.1,33393.9
55311.8,33346.8
55288.6,33303.4
55257.3,33265.3
55219.3,33234.1
55175.8,33210.9
55128.7,33196.6
55079.7,33191.7
54292.3,33191.7
54243.3,33196.6
54196.2,33210.9
54152.7,33234.1
54114.7,33265.3
54083.4,33303.4
54060.2,33346.8
54045.9,33393.9
54041.1,33442.9
52421,33442.9
52421,30878.1
Z" /> 
</g>
</g>
<g style="fill:#000000; fill-opacity:1.0; 
stroke:#000000; stroke-width:100; stroke-opacity:1; 
stroke-linecap:round; stroke-linejoin:round;">
</g>
<g style="fill:#000000; fill-opacity:1.0; 
stroke:#000000; stroke-width:0; stroke-opacity:1; 
stroke-linecap:round; stroke-linejoin:round;">
<circle cx="56160" cy="34585" r="98.4252" /> 
</g>
<g style="fill:#000000; fill-opacity:1.0; 
stroke:#000000; stroke-width:39.3701; stroke-opacity:1; 
stroke-linecap:round; stroke-linejoin:round;">
</g>
<g style="fill:#000000; fill-opacity:1.0; 
stroke:#000000; stroke-width:0; stroke-opacity:1; 
stroke-linecap:round; stroke-linejoin:round;">
<circle cx="56160" cy="37419.3" r="98.4252" /> 
</g>
<g style="fill:#000000; fill-opacity:1.0; 
stroke:#000000; stroke-width:39.3701; stroke-opacity:1; 
stroke-linecap:round; stroke-linejoin:round;">
</g>
<g style="fill:#000000; fill-opacity:1.0; 
stroke:#000000; stroke-width:0; stroke-opacity:1; 
stroke-linecap:round; stroke-linejoin:round;">
<circle cx="61083" cy="33752" r="98.4252" /> 
</g>
<g style="fill:#000000; fill-opacity:1.0; 
stroke:#000000; stroke-width:39.3701; stroke-opacity:1; 
stroke-linecap:round; stroke-linejoin:round;">
</g>
<g style="fill:#000000; fill-opacity:1.0; 
stroke:#000000; stroke-width:0; stroke-opacity:1; 
stroke-linecap:round; stroke-linejoin:round;">
<circle cx="56246" cy="39235" r="98.4252" /> 
</g>
<g style="fill:#000000; fill-opacity:1.0; 
stroke:#000000; stroke-width:39.3701; stroke-opacity:1; 
stroke-linecap:round; stroke-linejoin:round;">
</g>
<g style="fill:#000000; fill-opacity:1.0; 
stroke:#000000; stroke-width:0; stroke-opacity:1; 
stroke-linecap:round; stroke-linejoin:round;">
<circle cx="63519" cy="40516" r="98.4252" /> 
</g>
<g style="fill:#000000; fill-opacity:1.0; 
stroke:#000000; stroke-width:39.3701; stroke-opacity:1; 
stroke-linecap:round; stroke-linejoin:round;">
</g>
<g style="fill:#000000; fill-opacity:1.0; 
stroke:#000000; stroke-width:0; stroke-opacity:1; 
stroke-linecap:round; stroke-linejoin:round;">
<circle cx="58461" cy="38671" r="98.4252" /> 
</g>
<g style="fill:#000000; fill-opacity:1.0; 
stroke:#000000; stroke-width:39.3701; stroke-opacity:1; 
stroke-linecap:round; stroke-linejoin:round;">
</g>
<g style="fill:#000000; fill-opacity:1.0; 
stroke:#000000; stroke-width:0; stroke-opacity:1; 
stroke-linecap:round; stroke-linejoin:round;">
<circle cx="57585.7" cy="32071" r="98.4252" /> 
</g>
<g style="fill:#000000; fill-opacity:1.0; 
stroke:#000000; stroke-width:39.3701; stroke-opacity:1; 
stroke-linecap:round; stroke-linejoin:round;">
</g>
<g style="fill:#000000; fill-opacity:1.0; 
stroke:#000000; stroke-width:0; stroke-opacity:1; 
stroke-linecap:round; stroke-linejoin:round;">
<circle cx="61083" cy="38256" r="98.4252" /> 
</g>
<g style="fill:#000000; fill-opacity:1.0; 
stroke:#000000; stroke-width:39.3701; stroke-opacity:1; 
stroke-linecap:round; stroke-linejoin:round;">
</g>
<g style="fill:#000000; fill-opacity:1.0; 
stroke:#000000; stroke-width:0; stroke-opacity:1; 
stroke-linecap:round; stroke-linejoin:round;">
<circle cx="60421" cy="31985" r="98.4252" /> 
</g>
<g style="fill:#000000; fill-opacity:1.0; 
stroke:#000000; stroke-width:39.3701; stroke-opacity:1; 
stroke-linecap:round; stroke-linejoin:round;">
</g>
<g style="fill:#000000; fill-opacity:1.0; 
stroke:#000000; stroke-width:0; stroke-opacity:1; 
stroke-linecap:round; stroke-linejoin:round;">
<circle cx="60952" cy="36516" r="98.4252" /> 
</g>
<g style="fill:#000000; fill-opacity:1.0; 
stroke:#000000; stroke-width:39.3701; stroke-opacity:1; 
stroke-linecap:round; stroke-linejoin:round;">
</g>
<g style="fill:#000000; fill-opacity:1.0; 
stroke:#000000; stroke-width:0; stroke-opacity:1; 
stroke-linecap:round; stroke-linejoin:round;">
<circle cx="62812" cy="34585" r="108.268" /> 
</g>
<g style="fill:#000000; fill-opacity:1.0; 
stroke:#000000; stroke-width:39.3701; stroke-opacity:1; 
stroke-linecap:round; stroke-linejoin:round;">
</g>
<g style="fill:#000000; fill-opacity:1.0; 
stroke:#000000; stroke-width:0; stroke-opacity:1; 
stroke-linecap:round; stroke-linejoin:round;">
<circle cx="63796.3" cy="34585" r="108.268" /> 
</g>
<g style="fill:#000000; fill-opacity:1.0; 
stroke:#000000; stroke-width:39.3701; stroke-opacity:1; 
stroke-linecap:round; stroke-linejoin:round;">
</g>
<g style="fill:#000000; fill-opacity:1.0; 
stroke:#000000; stroke-width:0; stroke-opacity:1; 
stroke-linecap:round; stroke-linejoin:round;">
<circle cx="63796.3" cy="37419" r="108.268" /> 
</g>
<g style="fill:#000000; fill-opacity:1.0; 
stroke:#000000; stroke-width:39.3701; stroke-opacity:1; 
stroke-linecap:round; stroke-linejoin:round;">
</g>
<g style="fill:#000000; fill-opacity:1.0; 
stroke:#000000; stroke-width:0; stroke-opacity:1; 
stroke-linecap:round; stroke-linejoin:round;">
<circle cx="62812" cy="37419" r="108.268" /> 
</g>
<g style="fill:#000000; fill-opacity:1.0; 
stroke:#000000; stroke-width:39.3701; stroke-opacity:1; 
stroke-linecap:round; stroke-linejoin:round;">
</g>
<g style="fill:#000000; fill-opacity:1.0; 
stroke:#000000; stroke-width:0; stroke-opacity:1; 
stroke-linecap:round; stroke-linejoin:round;">
<circle cx="61596" cy="32616.5" r="108.268" /> 
</g>
<g style="fill:#000000; fill-opacity:1.0; 
stroke:#000000; stroke-width:39.3701; stroke-opacity:1; 
stroke-linecap:round; stroke-linejoin:round;">
</g>
<g style="fill:#000000; fill-opacity:1.0; 
stroke:#000000; stroke-width:0; stroke-opacity:1; 
stroke-linecap:round; stroke-linejoin:round;">
<circle cx="61596" cy="34585" r="108.268" /> 
</g>
<g style="fill:#000000; fill-opacity:1.0; 
stroke:#000000; stroke-width:39.3701; stroke-opacity:1; 
stroke-linecap:round; stroke-linejoin:round;">
</g>
<g style="fill:#000000; fill-opacity:1.0; 
stroke:#000000; stroke-width:0; stroke-opacity:1; 
stroke-linecap:round; stroke-linejoin:round;">
<circle cx="61596" cy="37419" r="108.268" /> 
</g>
<g style="fill:#000000; fill-opacity:1.0; 
stroke:#000000; stroke-width:39.3701; stroke-opacity:1; 
stroke-linecap:round; stroke-linejoin:round;">
</g>
<g style="fill:#000000; fill-opacity:1.0; 
stroke:#000000; stroke-width:0; stroke-opacity:1; 
stroke-linecap:round; stroke-linejoin:round;">
<circle cx="61596" cy="39387.5" r="108.268" /> 
</g>
<g style="fill:#000000; fill-opacity:1.0; 
stroke:#000000; stroke-width:39.3701; stroke-opacity:1; 
stroke-linecap:round; stroke-linejoin:round;">
</g>
<g style="fill:#000000; fill-opacity:1.0; 
stroke:#000000; stroke-width:0; stroke-opacity:1; 
stroke-linecap:round; stroke-linejoin:round;">
<circle cx="53380" cy="41536" r="177.165" /> 
</g>
<g style="fill:#000000; fill-opacity:1.0; 
stroke:#000000; stroke-width:39.3701; stroke-opacity:1; 
stroke-linecap:round; stroke-linejoin:round;">
</g>
<g style="fill:#000000; fill-opacity:1.0; 
stroke:#000000; stroke-width:0; stroke-opacity:1; 
stroke-linecap:round; stroke-linejoin:round;">
<circle cx="54380" cy="41536" r="177.165" /> 
</g>
<g style="fill:#000000; fill-opacity:1.0; 
stroke:#000000; stroke-width:39.3701; stroke-opacity:1; 
stroke-linecap:round; stroke-linejoin:round;">
</g>
<g style="fill:#000000; fill-opacity:1.0; 
stroke:#000000; stroke-width:0; stroke-opacity:1; 
stroke-linecap:round; stroke-linejoin:round;">
<circle cx="55380" cy="41536" r="177.165" /> 
</g>
<g style="fill:#000000; fill-opacity:1.0; 
stroke:#000000; stroke-width:39.3701; stroke-opacity:1; 
stroke-linecap:round; stroke-linejoin:round;">
</g>
<g style="fill:#000000; fill-opacity:1.0; 
stroke:#000000; stroke-width:0; stroke-opacity:1; 
stroke-linecap:round; stroke-linejoin:round;">
<circle cx="56380" cy="41536" r="177.165" /> 
</g>
<g style="fill:#000000; fill-opacity:1.0; 
stroke:#000000; stroke-width:39.3701; stroke-opacity:1; 
stroke-linecap:round; stroke-linejoin:round;">
</g>
<g style="fill:#000000; fill-opacity:1.0; 
stroke:#000000; stroke-width:0; stroke-opacity:1; 
stroke-linecap:round; stroke-linejoin:round;">
<circle cx="64880" cy="41536" r="177.165" /> 
</g>
<g style="fill:#000000; fill-opacity:1.0; 
stroke:#000000; stroke-width:39.3701; stroke-opacity:1; 
stroke-linecap:round; stroke-linejoin:round;">
</g>
<g style="fill:#000000; fill-opacity:1.0; 
stroke:#000000; stroke-width:0; stroke-opacity:1; 
stroke-linecap:round; stroke-linejoin:round;">
<circle cx="65880" cy="41536" r="177.165" /> 
</g>
<g style="fill:#000000; fill-opacity:1.0; 
stroke:#000000; stroke-width:39.3701; stroke-opacity:1; 
stroke-linecap:round; stroke-linejoin:round;">
</g>
<g style="fill:#000000; fill-opacity:1.0; 
stroke:#000000; stroke-width:0; stroke-opacity:1; 
stroke-linecap:round; stroke-linejoin:round;">
<circle cx="58880" cy="41536" r="177.165" /> 
</g>
<g style="fill:#000000; fill-opacity:1.0; 
stroke:#000000; stroke-width:39.3701; stroke-opacity:1; 
stroke-linecap:round; stroke-linejoin:round;">
</g>
<g style="fill:#000000; fill-opacity:1.0; 
stroke:#000000; stroke-width:0; stroke-opacity:1; 
stroke-linecap:round; stroke-linejoin:round;">
<circle cx="59880" cy="41536" r="177.165" /> 
</g>
<g style="fill:#000000; fill-opacity:1.0; 
stroke:#000000; stroke-width:39.3701; stroke-opacity:1; 
stroke-linecap:round; stroke-linejoin:round;">
</g>
<g style="fill:#000000; fill-opacity:1.0; 
stroke:#000000; stroke-width:0; stroke-opacity:1; 
stroke-linecap:round; stroke-linejoin:round;">
<circle cx="60880" cy="41536" r="177.165" /> 
</g>
<g style="fill:#000000; fill-opacity:1.0; 
stroke:#000000; stroke-width:39.3701; stroke-opacity:1; 
stroke-linecap:round; stroke-linejoin:round;">
</g>
<g style="fill:#000000; fill-opacity:1.0; 
stroke:#000000; stroke-width:0; stroke-opacity:1; 
stroke-linecap:round; stroke-linejoin:round;">
<circle cx="61880" cy="41536" r="177.165" /> 
</g>
<g style="fill:#000000; fill-opacity:1.0; 
stroke:#000000; stroke-width:39.3701; stroke-opacity:1; 
stroke-linecap:round; stroke-linejoin:round;">
</g>
<g style="fill:#000000; fill-opacity:1.0; 
stroke:#000000; stroke-width:0; stroke-opacity:1; 
stroke-linecap:round; stroke-linejoin:round;">
<circle cx="62880" cy="41536" r="177.165" /> 
</g>
<g style="fill:#000000; fill-opacity:1.0; 
stroke:#000000; stroke-width:39.3701; stroke-opacity:1; 
stroke-linecap:round; stroke-linejoin:round;">
</g>
<g style="fill:#000000; fill-opacity:1.0; 
stroke:#000000; stroke-width:0; stroke-opacity:1; 
stroke-linecap:round; stroke-linejoin:round;">
<circle cx="63880" cy="41536" r="177.165" /> 
</g>
<g style="fill:#000000; fill-opacity:1.0; 
stroke:#000000; stroke-width:39.3701; stroke-opacity:1; 
stroke-linecap:round; stroke-linejoin:round;">
</g>
<g style="fill:#000000; fill-opacity:1.0; 
stroke:#000000; stroke-width:0; stroke-opacity:1; 
stroke-linecap:round; stroke-linejoin:round;">
<circle cx="58756.6" cy="32058" r="98.4252" /> 
</g>
<g style="fill:#000000; fill-opacity:1.0; 
stroke:#000000; stroke-width:39.3701; stroke-opacity:1; 
stroke-linecap:round; stroke-linejoin:round;">
</g>
<g style="fill:#000000; fill-opacity:1.0; 
stroke:#000000; stroke-width:0; stroke-opacity:1; 
stroke-linecap:round; stroke-linejoin:round;">
<circle cx="59544" cy="32058" r="98.4252" /> 
</g>
<g style="fill:#000000; fill-opacity:1.0; 
stroke:#000000; stroke-width:39.3701; stroke-opacity:1; 
stroke-linecap:round; stroke-linejoin:round;">
</g>
<g style="fill:#FFFFFF; fill-opacity:1.0; 
stroke:#FFFFFF; stroke-width:39.3701; stroke-opacity:1; 
stroke-linecap:round; stroke-linejoin:round;">
</g> 
</svg>
