<?xml version="1.0" standalone="no"?>
 <!DOCTYPE svg PUBLIC "-//W3C//DTD SVG 1.1//EN" 
 "http://www.w3.org/Graphics/SVG/1.1/DTD/svg11.dtd"> 
<svg xmlns="http://www.w3.org/2000/svg" version="1.1" 
    width="29.7002cm" height="21.0007cm" viewBox="0 0 116930 82680 ">
<title>SVG Picture created as ActiveSpeakers_KiCad-F_Cu.svg date 2020/11/08 19:40:38 </title>
  <desc>Picture generated by PCBNEW </desc>
<g style="fill:#000000; fill-opacity:1;stroke:#000000; stroke-opacity:1;
stroke-linecap:round; stroke-linejoin:round; "
 transform="translate(0 0) scale(1 1)">
</g>
<g style="fill:#000000; fill-opacity:0.0; 
stroke:#000000; stroke-width:-0.000393701; stroke-opacity:1; 
stroke-linecap:round; stroke-linejoin:round;">
</g>
<g style="fill:#000000; fill-opacity:1.0; 
stroke:#000000; stroke-width:39.3701; stroke-opacity:1; 
stroke-linecap:round; stroke-linejoin:round;">
<rect x="49902.7" y="27345.7" width="19032.2" height="19035.6" rx="0" />
</g>
<g style="fill:#FFFFFF; fill-opacity:1.0; 
stroke:#FFFFFF; stroke-width:39.3701; stroke-opacity:1; 
stroke-linecap:round; stroke-linejoin:round;">
</g>
<g style="fill:#FFFFFF; fill-opacity:1.0; 
stroke:#FFFFFF; stroke-width:19.685; stroke-opacity:1; 
stroke-linecap:round; stroke-linejoin:round;">
</g>
<g style="fill:#FFFFFF; fill-opacity:0.0; 
stroke:#FFFFFF; stroke-width:19.685; stroke-opacity:1; 
stroke-linecap:round; stroke-linejoin:round;">
<path d="M64389 44254
L64389 29324
" />
<path d="M64389 44254
L51881 44254
" />
<path d="M51881 44254
L51881 29324
" />
<path d="M64389 29324
L51881 29324
" />
<g >
</g>
<g style="fill:#FFFFFF; fill-opacity:1.0; 
stroke:#FFFFFF; stroke-width:0; stroke-opacity:1; 
stroke-linecap:round; stroke-linejoin:round;">
<circle cx="58456" cy="33142" r="314.961" /> 
</g>
<g style="fill:#FFFFFF; fill-opacity:1.0; 
stroke:#FFFFFF; stroke-width:39.3701; stroke-opacity:1; 
stroke-linecap:round; stroke-linejoin:round;">
</g>
<g style="fill:#FFFFFF; fill-opacity:1.0; 
stroke:#FFFFFF; stroke-width:0; stroke-opacity:1; 
stroke-linecap:round; stroke-linejoin:round;">
<circle cx="56487.5" cy="33142" r="314.961" /> 
</g>
<g style="fill:#FFFFFF; fill-opacity:1.0; 
stroke:#FFFFFF; stroke-width:39.3701; stroke-opacity:1; 
stroke-linecap:round; stroke-linejoin:round;">
</g>
<g >
</g>
<g style="fill:#FFFFFF; fill-opacity:1.0; 
stroke:#FFFFFF; stroke-width:39.3701; stroke-opacity:1; 
stroke-linecap:round; stroke-linejoin:round;">
</g>
<g style="fill:#FFFFFF; fill-opacity:1.0; 
stroke:#FFFFFF; stroke-width:0; stroke-opacity:1; 
stroke-linecap:round; stroke-linejoin:round;">
<path style="fill:#FFFFFF; fill-opacity:1.0; 
stroke:#FFFFFF; stroke-width:0; stroke-opacity:1; 
stroke-linecap:round; stroke-linejoin:round;fill-rule:evenodd;"
d="M 59484,40220
59484,40850
60114,40850
60114,40220
Z" /> 
<circle cx="60799" cy="40535" r="314.961" /> 
</g>
<g style="fill:#FFFFFF; fill-opacity:1.0; 
stroke:#FFFFFF; stroke-width:39.3701; stroke-opacity:1; 
stroke-linecap:round; stroke-linejoin:round;">
</g>
<g >
</g>
<g >
</g>
<g style="fill:#FFFFFF; fill-opacity:1.0; 
stroke:#FFFFFF; stroke-width:39.3701; stroke-opacity:1; 
stroke-linecap:round; stroke-linejoin:round;">
</g>
<g style="fill:#FFFFFF; fill-opacity:1.0; 
stroke:#FFFFFF; stroke-width:0; stroke-opacity:1; 
stroke-linecap:round; stroke-linejoin:round;">
<path style="fill:#FFFFFF; fill-opacity:1.0; 
stroke:#FFFFFF; stroke-width:0; stroke-opacity:1; 
stroke-linecap:round; stroke-linejoin:round;fill-rule:evenodd;"
d="M 57434,31187
57434,31817
58064,31817
58064,31187
Z" /> 
<circle cx="58749" cy="31502" r="314.961" /> 
</g>
<g style="fill:#FFFFFF; fill-opacity:1.0; 
stroke:#FFFFFF; stroke-width:39.3701; stroke-opacity:1; 
stroke-linecap:round; stroke-linejoin:round;">
</g>
<g >
</g>
<g style="fill:#FFFFFF; fill-opacity:1.0; 
stroke:#FFFFFF; stroke-width:39.3701; stroke-opacity:1; 
stroke-linecap:round; stroke-linejoin:round;">
</g>
<g style="fill:#FFFFFF; fill-opacity:1.0; 
stroke:#FFFFFF; stroke-width:0; stroke-opacity:1; 
stroke-linecap:round; stroke-linejoin:round;">
<path style="fill:#FFFFFF; fill-opacity:1.0; 
stroke:#FFFFFF; stroke-width:0; stroke-opacity:1; 
stroke-linecap:round; stroke-linejoin:round;fill-rule:evenodd;"
d="M 58564,39720
57934,39720
57934,40350
58564,40350
Z" /> 
<circle cx="58249" cy="41035" r="314.961" /> 
</g>
<g style="fill:#FFFFFF; fill-opacity:1.0; 
stroke:#FFFFFF; stroke-width:39.3701; stroke-opacity:1; 
stroke-linecap:round; stroke-linejoin:round;">
</g>
<g >
</g>
<g style="fill:#FFFFFF; fill-opacity:1.0; 
stroke:#FFFFFF; stroke-width:39.3701; stroke-opacity:1; 
stroke-linecap:round; stroke-linejoin:round;">
</g>
<g style="fill:#FFFFFF; fill-opacity:1.0; 
stroke:#FFFFFF; stroke-width:0; stroke-opacity:1; 
stroke-linecap:round; stroke-linejoin:round;">
<path style="fill:#FFFFFF; fill-opacity:1.0; 
stroke:#FFFFFF; stroke-width:0; stroke-opacity:1; 
stroke-linecap:round; stroke-linejoin:round;fill-rule:evenodd;"
d="M 59484,42270
59484,42900
60114,42900
60114,42270
Z" /> 
<circle cx="60799" cy="42585" r="314.961" /> 
</g>
<g style="fill:#FFFFFF; fill-opacity:1.0; 
stroke:#FFFFFF; stroke-width:39.3701; stroke-opacity:1; 
stroke-linecap:round; stroke-linejoin:round;">
</g>
<g >
</g>
<g style="fill:#FFFFFF; fill-opacity:1.0; 
stroke:#FFFFFF; stroke-width:39.3701; stroke-opacity:1; 
stroke-linecap:round; stroke-linejoin:round;">
</g>
<g style="fill:#FFFFFF; fill-opacity:1.0; 
stroke:#FFFFFF; stroke-width:0; stroke-opacity:1; 
stroke-linecap:round; stroke-linejoin:round;">
<circle cx="56699" cy="40535" r="314.961" /> 
</g>
<g style="fill:#FFFFFF; fill-opacity:1.0; 
stroke:#FFFFFF; stroke-width:39.3701; stroke-opacity:1; 
stroke-linecap:round; stroke-linejoin:round;">
</g>
<g style="fill:#FFFFFF; fill-opacity:1.0; 
stroke:#FFFFFF; stroke-width:0; stroke-opacity:1; 
stroke-linecap:round; stroke-linejoin:round;">
<path style="fill:#FFFFFF; fill-opacity:1.0; 
stroke:#FFFFFF; stroke-width:0; stroke-opacity:1; 
stroke-linecap:round; stroke-linejoin:round;fill-rule:evenodd;"
d="M 55384,40220
55384,40850
56014,40850
56014,40220
Z" /> 
</g>
<g >
</g>
<g style="fill:#FFFFFF; fill-opacity:1.0; 
stroke:#FFFFFF; stroke-width:0; stroke-opacity:1; 
stroke-linecap:round; stroke-linejoin:round;">
<circle cx="61799" cy="37035" r="393.701" /> 
</g>
<g style="fill:#FFFFFF; fill-opacity:1.0; 
stroke:#FFFFFF; stroke-width:39.3701; stroke-opacity:1; 
stroke-linecap:round; stroke-linejoin:round;">
</g>
<g style="fill:#FFFFFF; fill-opacity:1.0; 
stroke:#FFFFFF; stroke-width:0; stroke-opacity:1; 
stroke-linecap:round; stroke-linejoin:round;">
<circle cx="62799" cy="37035" r="393.701" /> 
</g>
<g style="fill:#FFFFFF; fill-opacity:1.0; 
stroke:#FFFFFF; stroke-width:39.3701; stroke-opacity:1; 
stroke-linecap:round; stroke-linejoin:round;">
</g>
<g style="fill:#FFFFFF; fill-opacity:1.0; 
stroke:#FFFFFF; stroke-width:0; stroke-opacity:1; 
stroke-linecap:round; stroke-linejoin:round;">
<circle cx="61799" cy="36035" r="393.701" /> 
</g>
<g style="fill:#FFFFFF; fill-opacity:1.0; 
stroke:#FFFFFF; stroke-width:39.3701; stroke-opacity:1; 
stroke-linecap:round; stroke-linejoin:round;">
</g>
<g style="fill:#FFFFFF; fill-opacity:1.0; 
stroke:#FFFFFF; stroke-width:0; stroke-opacity:1; 
stroke-linecap:round; stroke-linejoin:round;">
<circle cx="62799" cy="36035" r="393.701" /> 
</g>
<g style="fill:#FFFFFF; fill-opacity:1.0; 
stroke:#FFFFFF; stroke-width:39.3701; stroke-opacity:1; 
stroke-linecap:round; stroke-linejoin:round;">
</g>
<g >
</g>
<g style="fill:#FFFFFF; fill-opacity:1.0; 
stroke:#FFFFFF; stroke-width:39.3701; stroke-opacity:1; 
stroke-linecap:round; stroke-linejoin:round;">
</g>
<g style="fill:#FFFFFF; fill-opacity:1.0; 
stroke:#FFFFFF; stroke-width:0; stroke-opacity:1; 
stroke-linecap:round; stroke-linejoin:round;">
<circle cx="60299" cy="30035" r="314.961" /> 
</g>
<g style="fill:#FFFFFF; fill-opacity:1.0; 
stroke:#FFFFFF; stroke-width:39.3701; stroke-opacity:1; 
stroke-linecap:round; stroke-linejoin:round;">
</g>
<g style="fill:#FFFFFF; fill-opacity:1.0; 
stroke:#FFFFFF; stroke-width:0; stroke-opacity:1; 
stroke-linecap:round; stroke-linejoin:round;">
<path style="fill:#FFFFFF; fill-opacity:1.0; 
stroke:#FFFFFF; stroke-width:0; stroke-opacity:1; 
stroke-linecap:round; stroke-linejoin:round;fill-rule:evenodd;"
d="M 59984,31350
60614,31350
60614,30720
59984,30720
Z" /> 
</g>
<g >
</g>
<g style="fill:#FFFFFF; fill-opacity:1.0; 
stroke:#FFFFFF; stroke-width:0; stroke-opacity:1; 
stroke-linecap:round; stroke-linejoin:round;">
<path style="fill:#FFFFFF; fill-opacity:1.0; 
stroke:#FFFFFF; stroke-width:0; stroke-opacity:1; 
stroke-linecap:round; stroke-linejoin:round;fill-rule:evenodd;"
d="M 55384,31187
55384,31817
56014,31817
56014,31187
Z" /> 
<circle cx="56699" cy="31502" r="314.961" /> 
</g>
<g style="fill:#FFFFFF; fill-opacity:1.0; 
stroke:#FFFFFF; stroke-width:39.3701; stroke-opacity:1; 
stroke-linecap:round; stroke-linejoin:round;">
</g>
<g >
</g>
<g style="fill:#FFFFFF; fill-opacity:1.0; 
stroke:#FFFFFF; stroke-width:39.3701; stroke-opacity:1; 
stroke-linecap:round; stroke-linejoin:round;">
</g>
<g style="fill:#FFFFFF; fill-opacity:1.0; 
stroke:#FFFFFF; stroke-width:0; stroke-opacity:1; 
stroke-linecap:round; stroke-linejoin:round;">
<circle cx="54649" cy="32684" r="314.961" /> 
</g>
<g style="fill:#FFFFFF; fill-opacity:1.0; 
stroke:#FFFFFF; stroke-width:39.3701; stroke-opacity:1; 
stroke-linecap:round; stroke-linejoin:round;">
</g>
<g style="fill:#FFFFFF; fill-opacity:1.0; 
stroke:#FFFFFF; stroke-width:0; stroke-opacity:1; 
stroke-linecap:round; stroke-linejoin:round;">
<path style="fill:#FFFFFF; fill-opacity:1.0; 
stroke:#FFFFFF; stroke-width:0; stroke-opacity:1; 
stroke-linecap:round; stroke-linejoin:round;fill-rule:evenodd;"
d="M 53334,32369
53334,32999
53964,32999
53964,32369
Z" /> 
</g>
<g >
</g>
<g style="fill:#FFFFFF; fill-opacity:1.0; 
stroke:#FFFFFF; stroke-width:0; stroke-opacity:1; 
stroke-linecap:round; stroke-linejoin:round;">
<path style="fill:#FFFFFF; fill-opacity:1.0; 
stroke:#FFFFFF; stroke-width:0; stroke-opacity:1; 
stroke-linecap:round; stroke-linejoin:round;fill-rule:evenodd;"
d="M 60391.2,33996
60385.4,33996.9
60379.8,33998.3
60374.3,34000.2
60369.1,34002.7
60364.1,34005.7
60359.5,34009.2
60355.2,34013
60351.3,34017.3
60347.8,34022
60344.9,34027
60342.4,34032.2
60340.4,34037.7
60339,34043.3
60338.2,34049
60337.9,34054.8
60337.9,34743.8
60338.2,34749.6
60339,34755.3
60340.4,34760.9
60342.4,34766.4
60344.9,34771.6
60347.8,34776.6
60351.3,34781.2
60355.2,34785.5
60359.5,34789.4
60364.1,34792.9
60369.1,34795.9
60374.3,34798.3
60379.8,34800.3
60385.4,34801.7
60391.2,34802.6
60396.9,34802.8
60515.1,34802.8
60520.8,34802.6
60526.6,34801.7
60532.2,34800.3
60537.7,34798.3
60542.9,34795.9
60547.9,34792.9
60552.5,34789.4
60556.8,34785.5
60560.7,34781.2
60564.2,34776.6
60567.1,34771.6
60569.6,34766.4
60571.6,34760.9
60573,34755.3
60573.8,34749.6
60574.1,34743.8
60574.1,34054.8
60573.8,34049
60573,34043.3
60571.6,34037.7
60569.6,34032.2
60567.1,34027
60564.2,34022
60560.7,34017.3
60556.8,34013
60552.5,34009.2
60547.9,34005.7
60542.9,34002.7
60537.7,34000.2
60532.2,33998.3
60526.6,33996.9
60520.8,33996
60515.1,33995.7
60396.9,33995.7
Z" /> 
<path style="fill:#FFFFFF; fill-opacity:1.0; 
stroke:#FFFFFF; stroke-width:0; stroke-opacity:1; 
stroke-linecap:round; stroke-linejoin:round;fill-rule:evenodd;"
d="M 59891.2,33996
59885.4,33996.9
59879.8,33998.3
59874.3,34000.2
59869.1,34002.7
59864.1,34005.7
59859.5,34009.2
59855.2,34013
59851.3,34017.3
59847.8,34022
59844.9,34027
59842.4,34032.2
59840.4,34037.7
59839,34043.3
59838.2,34049
59837.9,34054.8
59837.9,34743.8
59838.2,34749.6
59839,34755.3
59840.4,34760.9
59842.4,34766.4
59844.9,34771.6
59847.8,34776.6
59851.3,34781.2
59855.2,34785.5
59859.5,34789.4
59864.1,34792.9
59869.1,34795.9
59874.3,34798.3
59879.8,34800.3
59885.4,34801.7
59891.2,34802.6
59896.9,34802.8
60015.1,34802.8
60020.8,34802.6
60026.6,34801.7
60032.2,34800.3
60037.7,34798.3
60042.9,34795.9
60047.9,34792.9
60052.5,34789.4
60056.8,34785.5
60060.7,34781.2
60064.2,34776.6
60067.1,34771.6
60069.6,34766.4
60071.6,34760.9
60073,34755.3
60073.8,34749.6
60074.1,34743.8
60074.1,34054.8
60073.8,34049
60073,34043.3
60071.6,34037.7
60069.6,34032.2
60067.1,34027
60064.2,34022
60060.7,34017.3
60056.8,34013
60052.5,34009.2
60047.9,34005.7
60042.9,34002.7
60037.7,34000.2
60032.2,33998.3
60026.6,33996.9
60020.8,33996
60015.1,33995.7
59896.9,33995.7
Z" /> 
<path style="fill:#FFFFFF; fill-opacity:1.0; 
stroke:#FFFFFF; stroke-width:0; stroke-opacity:1; 
stroke-linecap:round; stroke-linejoin:round;fill-rule:evenodd;"
d="M 59391.2,33996
59385.4,33996.9
59379.8,33998.3
59374.3,34000.2
59369.1,34002.7
59364.1,34005.7
59359.5,34009.2
59355.2,34013
59351.3,34017.3
59347.8,34022
59344.9,34027
59342.4,34032.2
59340.4,34037.7
59339,34043.3
59338.2,34049
59337.9,34054.8
59337.9,34743.8
59338.2,34749.6
59339,34755.3
59340.4,34760.9
59342.4,34766.4
59344.9,34771.6
59347.8,34776.6
59351.3,34781.2
59355.2,34785.5
59359.5,34789.4
59364.1,34792.9
59369.1,34795.9
59374.3,34798.3
59379.8,34800.3
59385.4,34801.7
59391.2,34802.6
59396.9,34802.8
59515.1,34802.8
59520.8,34802.6
59526.6,34801.7
59532.2,34800.3
59537.7,34798.3
59542.9,34795.9
59547.9,34792.9
59552.5,34789.4
59556.8,34785.5
59560.7,34781.2
59564.2,34776.6
59567.1,34771.6
59569.6,34766.4
59571.6,34760.9
59573,34755.3
59573.8,34749.6
59574.1,34743.8
59574.1,34054.8
59573.8,34049
59573,34043.3
59571.6,34037.7
59569.6,34032.2
59567.1,34027
59564.2,34022
59560.7,34017.3
59556.8,34013
59552.5,34009.2
59547.9,34005.7
59542.9,34002.7
59537.7,34000.2
59532.2,33998.3
59526.6,33996.9
59520.8,33996
59515.1,33995.7
59396.9,33995.7
Z" /> 
<path style="fill:#FFFFFF; fill-opacity:1.0; 
stroke:#FFFFFF; stroke-width:0; stroke-opacity:1; 
stroke-linecap:round; stroke-linejoin:round;fill-rule:evenodd;"
d="M 58891.2,33996
58885.4,33996.9
58879.8,33998.3
58874.3,34000.2
58869.1,34002.7
58864.1,34005.7
58859.5,34009.2
58855.2,34013
58851.3,34017.3
58847.8,34022
58844.9,34027
58842.4,34032.2
58840.4,34037.7
58839,34043.3
58838.2,34049
58837.9,34054.8
58837.9,34743.8
58838.2,34749.6
58839,34755.3
58840.4,34760.9
58842.4,34766.4
58844.9,34771.6
58847.8,34776.6
58851.3,34781.2
58855.2,34785.5
58859.5,34789.4
58864.1,34792.9
58869.1,34795.9
58874.3,34798.3
58879.8,34800.3
58885.4,34801.7
58891.2,34802.6
58896.9,34802.8
59015.1,34802.8
59020.8,34802.6
59026.6,34801.7
59032.2,34800.3
59037.7,34798.3
59042.9,34795.9
59047.9,34792.9
59052.5,34789.4
59056.8,34785.5
59060.7,34781.2
59064.2,34776.6
59067.1,34771.6
59069.6,34766.4
59071.6,34760.9
59073,34755.3
59073.8,34749.6
59074.1,34743.8
59074.1,34054.8
59073.8,34049
59073,34043.3
59071.6,34037.7
59069.6,34032.2
59067.1,34027
59064.2,34022
59060.7,34017.3
59056.8,34013
59052.5,34009.2
59047.9,34005.7
59042.9,34002.7
59037.7,34000.2
59032.2,33998.3
59026.6,33996.9
59020.8,33996
59015.1,33995.7
58896.9,33995.7
Z" /> 
<path style="fill:#FFFFFF; fill-opacity:1.0; 
stroke:#FFFFFF; stroke-width:0; stroke-opacity:1; 
stroke-linecap:round; stroke-linejoin:round;fill-rule:evenodd;"
d="M 58391.2,33996
58385.4,33996.9
58379.8,33998.3
58374.3,34000.2
58369.1,34002.7
58364.1,34005.7
58359.5,34009.2
58355.2,34013
58351.3,34017.3
58347.8,34022
58344.9,34027
58342.4,34032.2
58340.4,34037.7
58339,34043.3
58338.2,34049
58337.9,34054.8
58337.9,34743.8
58338.2,34749.6
58339,34755.3
58340.4,34760.9
58342.4,34766.4
58344.9,34771.6
58347.8,34776.6
58351.3,34781.2
58355.2,34785.5
58359.5,34789.4
58364.1,34792.9
58369.1,34795.9
58374.3,34798.3
58379.8,34800.3
58385.4,34801.7
58391.2,34802.6
58396.9,34802.8
58515.1,34802.8
58520.8,34802.6
58526.6,34801.7
58532.2,34800.3
58537.7,34798.3
58542.9,34795.9
58547.9,34792.9
58552.5,34789.4
58556.8,34785.5
58560.7,34781.2
58564.2,34776.6
58567.1,34771.6
58569.6,34766.4
58571.6,34760.9
58573,34755.3
58573.8,34749.6
58574.1,34743.8
58574.1,34054.8
58573.8,34049
58573,34043.3
58571.6,34037.7
58569.6,34032.2
58567.1,34027
58564.2,34022
58560.7,34017.3
58556.8,34013
58552.5,34009.2
58547.9,34005.7
58542.9,34002.7
58537.7,34000.2
58532.2,33998.3
58526.6,33996.9
58520.8,33996
58515.1,33995.7
58396.9,33995.7
Z" /> 
<path style="fill:#FFFFFF; fill-opacity:1.0; 
stroke:#FFFFFF; stroke-width:0; stroke-opacity:1; 
stroke-linecap:round; stroke-linejoin:round;fill-rule:evenodd;"
d="M 57891.2,33996
57885.4,33996.9
57879.8,33998.3
57874.3,34000.2
57869.1,34002.7
57864.1,34005.7
57859.5,34009.2
57855.2,34013
57851.3,34017.3
57847.8,34022
57844.9,34027
57842.4,34032.2
57840.4,34037.7
57839,34043.3
57838.2,34049
57837.9,34054.8
57837.9,34743.8
57838.2,34749.6
57839,34755.3
57840.4,34760.9
57842.4,34766.4
57844.9,34771.6
57847.8,34776.6
57851.3,34781.2
57855.2,34785.5
57859.5,34789.4
57864.1,34792.9
57869.1,34795.9
57874.3,34798.3
57879.8,34800.3
57885.4,34801.7
57891.2,34802.6
57896.9,34802.8
58015.1,34802.8
58020.8,34802.6
58026.6,34801.7
58032.2,34800.3
58037.7,34798.3
58042.9,34795.9
58047.9,34792.9
58052.5,34789.4
58056.8,34785.5
58060.7,34781.2
58064.2,34776.6
58067.1,34771.6
58069.6,34766.4
58071.6,34760.9
58073,34755.3
58073.8,34749.6
58074.1,34743.8
58074.1,34054.8
58073.8,34049
58073,34043.3
58071.6,34037.7
58069.6,34032.2
58067.1,34027
58064.2,34022
58060.7,34017.3
58056.8,34013
58052.5,34009.2
58047.9,34005.7
58042.9,34002.7
58037.7,34000.2
58032.2,33998.3
58026.6,33996.9
58020.8,33996
58015.1,33995.7
57896.9,33995.7
Z" /> 
<path style="fill:#FFFFFF; fill-opacity:1.0; 
stroke:#FFFFFF; stroke-width:0; stroke-opacity:1; 
stroke-linecap:round; stroke-linejoin:round;fill-rule:evenodd;"
d="M 57391.2,33996
57385.4,33996.9
57379.8,33998.3
57374.3,34000.2
57369.1,34002.7
57364.1,34005.7
57359.5,34009.2
57355.2,34013
57351.3,34017.3
57347.8,34022
57344.9,34027
57342.4,34032.2
57340.4,34037.7
57339,34043.3
57338.2,34049
57337.9,34054.8
57337.9,34743.8
57338.2,34749.6
57339,34755.3
57340.4,34760.9
57342.4,34766.4
57344.9,34771.6
57347.8,34776.6
57351.3,34781.2
57355.2,34785.5
57359.5,34789.4
57364.1,34792.9
57369.1,34795.9
57374.3,34798.3
57379.8,34800.3
57385.4,34801.7
57391.2,34802.6
57396.9,34802.8
57515.1,34802.8
57520.8,34802.6
57526.6,34801.7
57532.2,34800.3
57537.7,34798.3
57542.9,34795.9
57547.9,34792.9
57552.5,34789.4
57556.8,34785.5
57560.7,34781.2
57564.2,34776.6
57567.1,34771.6
57569.6,34766.4
57571.6,34760.9
57573,34755.3
57573.8,34749.6
57574.1,34743.8
57574.1,34054.8
57573.8,34049
57573,34043.3
57571.6,34037.7
57569.6,34032.2
57567.1,34027
57564.2,34022
57560.7,34017.3
57556.8,34013
57552.5,34009.2
57547.9,34005.7
57542.9,34002.7
57537.7,34000.2
57532.2,33998.3
57526.6,33996.9
57520.8,33996
57515.1,33995.7
57396.9,33995.7
Z" /> 
<path style="fill:#FFFFFF; fill-opacity:1.0; 
stroke:#FFFFFF; stroke-width:0; stroke-opacity:1; 
stroke-linecap:round; stroke-linejoin:round;fill-rule:evenodd;"
d="M 56891.2,33996
56885.4,33996.9
56879.8,33998.3
56874.3,34000.2
56869.1,34002.7
56864.1,34005.7
56859.5,34009.2
56855.2,34013
56851.3,34017.3
56847.8,34022
56844.9,34027
56842.4,34032.2
56840.4,34037.7
56839,34043.3
56838.2,34049
56837.9,34054.8
56837.9,34743.8
56838.2,34749.6
56839,34755.3
56840.4,34760.9
56842.4,34766.4
56844.9,34771.6
56847.8,34776.6
56851.3,34781.2
56855.2,34785.5
56859.5,34789.4
56864.1,34792.9
56869.1,34795.9
56874.3,34798.3
56879.8,34800.3
56885.4,34801.7
56891.2,34802.6
56896.9,34802.8
57015.1,34802.8
57020.8,34802.6
57026.6,34801.7
57032.2,34800.3
57037.7,34798.3
57042.9,34795.9
57047.9,34792.9
57052.5,34789.4
57056.8,34785.5
57060.7,34781.2
57064.2,34776.6
57067.1,34771.6
57069.6,34766.4
57071.6,34760.9
57073,34755.3
57073.8,34749.6
57074.1,34743.8
57074.1,34054.8
57073.8,34049
57073,34043.3
57071.6,34037.7
57069.6,34032.2
57067.1,34027
57064.2,34022
57060.7,34017.3
57056.8,34013
57052.5,34009.2
57047.9,34005.7
57042.9,34002.7
57037.7,34000.2
57032.2,33998.3
57026.6,33996.9
57020.8,33996
57015.1,33995.7
56896.9,33995.7
Z" /> 
<path style="fill:#FFFFFF; fill-opacity:1.0; 
stroke:#FFFFFF; stroke-width:0; stroke-opacity:1; 
stroke-linecap:round; stroke-linejoin:round;fill-rule:evenodd;"
d="M 56391.2,33996
56385.4,33996.9
56379.8,33998.3
56374.3,34000.2
56369.1,34002.7
56364.1,34005.7
56359.5,34009.2
56355.2,34013
56351.3,34017.3
56347.8,34022
56344.9,34027
56342.4,34032.2
56340.4,34037.7
56339,34043.3
56338.2,34049
56337.9,34054.8
56337.9,34743.8
56338.2,34749.6
56339,34755.3
56340.4,34760.9
56342.4,34766.4
56344.9,34771.6
56347.8,34776.6
56351.3,34781.2
56355.2,34785.5
56359.5,34789.4
56364.1,34792.9
56369.1,34795.9
56374.3,34798.3
56379.8,34800.3
56385.4,34801.7
56391.2,34802.6
56396.9,34802.8
56515.1,34802.8
56520.8,34802.6
56526.6,34801.7
56532.2,34800.3
56537.7,34798.3
56542.9,34795.9
56547.9,34792.9
56552.5,34789.4
56556.8,34785.5
56560.7,34781.2
56564.2,34776.6
56567.1,34771.6
56569.6,34766.4
56571.6,34760.9
56573,34755.3
56573.8,34749.6
56574.1,34743.8
56574.1,34054.8
56573.8,34049
56573,34043.3
56571.6,34037.7
56569.6,34032.2
56567.1,34027
56564.2,34022
56560.7,34017.3
56556.8,34013
56552.5,34009.2
56547.9,34005.7
56542.9,34002.7
56537.7,34000.2
56532.2,33998.3
56526.6,33996.9
56520.8,33996
56515.1,33995.7
56396.9,33995.7
Z" /> 
<path style="fill:#FFFFFF; fill-opacity:1.0; 
stroke:#FFFFFF; stroke-width:0; stroke-opacity:1; 
stroke-linecap:round; stroke-linejoin:round;fill-rule:evenodd;"
d="M 55891.2,33996
55885.4,33996.9
55879.8,33998.3
55874.3,34000.2
55869.1,34002.7
55864.1,34005.7
55859.5,34009.2
55855.2,34013
55851.3,34017.3
55847.8,34022
55844.9,34027
55842.4,34032.2
55840.4,34037.7
55839,34043.3
55838.2,34049
55837.9,34054.8
55837.9,34743.8
55838.2,34749.6
55839,34755.3
55840.4,34760.9
55842.4,34766.4
55844.9,34771.6
55847.8,34776.6
55851.3,34781.2
55855.2,34785.5
55859.5,34789.4
55864.1,34792.9
55869.1,34795.9
55874.3,34798.3
55879.8,34800.3
55885.4,34801.7
55891.2,34802.6
55896.9,34802.8
56015.1,34802.8
56020.8,34802.6
56026.6,34801.7
56032.2,34800.3
56037.7,34798.3
56042.9,34795.9
56047.9,34792.9
56052.5,34789.4
56056.8,34785.5
56060.7,34781.2
56064.2,34776.6
56067.1,34771.6
56069.6,34766.4
56071.6,34760.9
56073,34755.3
56073.8,34749.6
56074.1,34743.8
56074.1,34054.8
56073.8,34049
56073,34043.3
56071.6,34037.7
56069.6,34032.2
56067.1,34027
56064.2,34022
56060.7,34017.3
56056.8,34013
56052.5,34009.2
56047.9,34005.7
56042.9,34002.7
56037.7,34000.2
56032.2,33998.3
56026.6,33996.9
56020.8,33996
56015.1,33995.7
55896.9,33995.7
Z" /> 
<path style="fill:#FFFFFF; fill-opacity:1.0; 
stroke:#FFFFFF; stroke-width:0; stroke-opacity:1; 
stroke-linecap:round; stroke-linejoin:round;fill-rule:evenodd;"
d="M 55391.2,33996
55385.4,33996.9
55379.8,33998.3
55374.3,34000.2
55369.1,34002.7
55364.1,34005.7
55359.5,34009.2
55355.2,34013
55351.3,34017.3
55347.8,34022
55344.9,34027
55342.4,34032.2
55340.4,34037.7
55339,34043.3
55338.2,34049
55337.9,34054.8
55337.9,34743.8
55338.2,34749.6
55339,34755.3
55340.4,34760.9
55342.4,34766.4
55344.9,34771.6
55347.8,34776.6
55351.3,34781.2
55355.2,34785.5
55359.5,34789.4
55364.1,34792.9
55369.1,34795.9
55374.3,34798.3
55379.8,34800.3
55385.4,34801.7
55391.2,34802.6
55396.9,34802.8
55515.1,34802.8
55520.8,34802.6
55526.6,34801.7
55532.2,34800.3
55537.7,34798.3
55542.9,34795.9
55547.9,34792.9
55552.5,34789.4
55556.8,34785.5
55560.7,34781.2
55564.2,34776.6
55567.1,34771.6
55569.6,34766.4
55571.6,34760.9
55573,34755.3
55573.8,34749.6
55574.1,34743.8
55574.1,34054.8
55573.8,34049
55573,34043.3
55571.6,34037.7
55569.6,34032.2
55567.1,34027
55564.2,34022
55560.7,34017.3
55556.8,34013
55552.5,34009.2
55547.9,34005.7
55542.9,34002.7
55537.7,34000.2
55532.2,33998.3
55526.6,33996.9
55520.8,33996
55515.1,33995.7
55396.9,33995.7
Z" /> 
<path style="fill:#FFFFFF; fill-opacity:1.0; 
stroke:#FFFFFF; stroke-width:0; stroke-opacity:1; 
stroke-linecap:round; stroke-linejoin:round;fill-rule:evenodd;"
d="M 54891.2,33996
54885.4,33996.9
54879.8,33998.3
54874.3,34000.2
54869.1,34002.7
54864.1,34005.7
54859.5,34009.2
54855.2,34013
54851.3,34017.3
54847.8,34022
54844.9,34027
54842.4,34032.2
54840.4,34037.7
54839,34043.3
54838.2,34049
54837.9,34054.8
54837.9,34743.8
54838.2,34749.6
54839,34755.3
54840.4,34760.9
54842.4,34766.4
54844.9,34771.6
54847.8,34776.6
54851.3,34781.2
54855.2,34785.5
54859.5,34789.4
54864.1,34792.9
54869.1,34795.9
54874.3,34798.3
54879.8,34800.3
54885.4,34801.7
54891.2,34802.6
54896.9,34802.8
55015.1,34802.8
55020.8,34802.6
55026.6,34801.7
55032.2,34800.3
55037.7,34798.3
55042.9,34795.9
55047.9,34792.9
55052.5,34789.4
55056.8,34785.5
55060.7,34781.2
55064.2,34776.6
55067.1,34771.6
55069.6,34766.4
55071.6,34760.9
55073,34755.3
55073.8,34749.6
55074.1,34743.8
55074.1,34054.8
55073.8,34049
55073,34043.3
55071.6,34037.7
55069.6,34032.2
55067.1,34027
55064.2,34022
55060.7,34017.3
55056.8,34013
55052.5,34009.2
55047.9,34005.7
55042.9,34002.7
55037.7,34000.2
55032.2,33998.3
55026.6,33996.9
55020.8,33996
55015.1,33995.7
54896.9,33995.7
Z" /> 
<path style="fill:#FFFFFF; fill-opacity:1.0; 
stroke:#FFFFFF; stroke-width:0; stroke-opacity:1; 
stroke-linecap:round; stroke-linejoin:round;fill-rule:evenodd;"
d="M 54391.2,33996
54385.4,33996.9
54379.8,33998.3
54374.3,34000.2
54369.1,34002.7
54364.1,34005.7
54359.5,34009.2
54355.2,34013
54351.3,34017.3
54347.8,34022
54344.9,34027
54342.4,34032.2
54340.4,34037.7
54339,34043.3
54338.2,34049
54337.9,34054.8
54337.9,34743.8
54338.2,34749.6
54339,34755.3
54340.4,34760.9
54342.4,34766.4
54344.9,34771.6
54347.8,34776.6
54351.3,34781.2
54355.2,34785.5
54359.5,34789.4
54364.1,34792.9
54369.1,34795.9
54374.3,34798.3
54379.8,34800.3
54385.4,34801.7
54391.2,34802.6
54396.9,34802.8
54515.1,34802.8
54520.8,34802.6
54526.6,34801.7
54532.2,34800.3
54537.7,34798.3
54542.9,34795.9
54547.9,34792.9
54552.5,34789.4
54556.8,34785.5
54560.7,34781.2
54564.2,34776.6
54567.1,34771.6
54569.6,34766.4
54571.6,34760.9
54573,34755.3
54573.8,34749.6
54574.1,34743.8
54574.1,34054.8
54573.8,34049
54573,34043.3
54571.6,34037.7
54569.6,34032.2
54567.1,34027
54564.2,34022
54560.7,34017.3
54556.8,34013
54552.5,34009.2
54547.9,34005.7
54542.9,34002.7
54537.7,34000.2
54532.2,33998.3
54526.6,33996.9
54520.8,33996
54515.1,33995.7
54396.9,33995.7
Z" /> 
<path style="fill:#FFFFFF; fill-opacity:1.0; 
stroke:#FFFFFF; stroke-width:0; stroke-opacity:1; 
stroke-linecap:round; stroke-linejoin:round;fill-rule:evenodd;"
d="M 53891.2,33996
53885.4,33996.9
53879.8,33998.3
53874.3,34000.2
53869.1,34002.7
53864.1,34005.7
53859.5,34009.2
53855.2,34013
53851.3,34017.3
53847.8,34022
53844.9,34027
53842.4,34032.2
53840.4,34037.7
53839,34043.3
53838.2,34049
53837.9,34054.8
53837.9,34743.8
53838.2,34749.6
53839,34755.3
53840.4,34760.9
53842.4,34766.4
53844.9,34771.6
53847.8,34776.6
53851.3,34781.2
53855.2,34785.5
53859.5,34789.4
53864.1,34792.9
53869.1,34795.9
53874.3,34798.3
53879.8,34800.3
53885.4,34801.7
53891.2,34802.6
53896.9,34802.8
54015.1,34802.8
54020.8,34802.6
54026.6,34801.7
54032.2,34800.3
54037.7,34798.3
54042.9,34795.9
54047.9,34792.9
54052.5,34789.4
54056.8,34785.5
54060.7,34781.2
54064.2,34776.6
54067.1,34771.6
54069.6,34766.4
54071.6,34760.9
54073,34755.3
54073.8,34749.6
54074.1,34743.8
54074.1,34054.8
54073.8,34049
54073,34043.3
54071.6,34037.7
54069.6,34032.2
54067.1,34027
54064.2,34022
54060.7,34017.3
54056.8,34013
54052.5,34009.2
54047.9,34005.7
54042.9,34002.7
54037.7,34000.2
54032.2,33998.3
54026.6,33996.9
54020.8,33996
54015.1,33995.7
53896.9,33995.7
Z" /> 
<path style="fill:#FFFFFF; fill-opacity:1.0; 
stroke:#FFFFFF; stroke-width:0; stroke-opacity:1; 
stroke-linecap:round; stroke-linejoin:round;fill-rule:evenodd;"
d="M 53891.2,37657.4
53885.4,37658.3
53879.8,37659.7
53874.3,37661.7
53869.1,37664.1
53864.1,37667.1
53859.5,37670.6
53855.2,37674.5
53851.3,37678.8
53847.8,37683.4
53844.9,37688.4
53842.4,37693.6
53840.4,37699.1
53839,37704.7
53838.2,37710.4
53837.9,37716.2
53837.9,38405.2
53838.2,38411
53839,38416.7
53840.4,38422.3
53842.4,38427.8
53844.9,38433
53847.8,38438
53851.3,38442.7
53855.2,38447
53859.5,38450.8
53864.1,38454.3
53869.1,38457.3
53874.3,38459.8
53879.8,38461.7
53885.4,38463.1
53891.2,38464
53896.9,38464.3
54015.1,38464.3
54020.8,38464
54026.6,38463.1
54032.2,38461.7
54037.7,38459.8
54042.9,38457.3
54047.9,38454.3
54052.5,38450.8
54056.8,38447
54060.7,38442.7
54064.2,38438
54067.1,38433
54069.6,38427.8
54071.6,38422.3
54073,38416.7
54073.8,38411
54074.1,38405.2
54074.1,37716.2
54073.8,37710.4
54073,37704.7
54071.6,37699.1
54069.6,37693.6
54067.1,37688.4
54064.2,37683.4
54060.7,37678.8
54056.8,37674.5
54052.5,37670.6
54047.9,37667.1
54042.9,37664.1
54037.7,37661.7
54032.2,37659.7
54026.6,37658.3
54020.8,37657.4
54015.1,37657.2
53896.9,37657.2
Z" /> 
<path style="fill:#FFFFFF; fill-opacity:1.0; 
stroke:#FFFFFF; stroke-width:0; stroke-opacity:1; 
stroke-linecap:round; stroke-linejoin:round;fill-rule:evenodd;"
d="M 54391.2,37657.4
54385.4,37658.3
54379.8,37659.7
54374.3,37661.7
54369.1,37664.1
54364.1,37667.1
54359.5,37670.6
54355.2,37674.5
54351.3,37678.8
54347.8,37683.4
54344.9,37688.4
54342.4,37693.6
54340.4,37699.1
54339,37704.7
54338.2,37710.4
54337.9,37716.2
54337.9,38405.2
54338.2,38411
54339,38416.7
54340.4,38422.3
54342.4,38427.8
54344.9,38433
54347.8,38438
54351.3,38442.7
54355.2,38447
54359.5,38450.8
54364.1,38454.3
54369.1,38457.3
54374.3,38459.8
54379.8,38461.7
54385.4,38463.1
54391.2,38464
54396.9,38464.3
54515.1,38464.3
54520.8,38464
54526.6,38463.1
54532.2,38461.7
54537.7,38459.8
54542.9,38457.3
54547.9,38454.3
54552.5,38450.8
54556.8,38447
54560.7,38442.7
54564.2,38438
54567.1,38433
54569.6,38427.8
54571.6,38422.3
54573,38416.7
54573.8,38411
54574.1,38405.2
54574.1,37716.2
54573.8,37710.4
54573,37704.7
54571.6,37699.1
54569.6,37693.6
54567.1,37688.4
54564.2,37683.4
54560.7,37678.8
54556.8,37674.5
54552.5,37670.6
54547.9,37667.1
54542.9,37664.1
54537.7,37661.7
54532.2,37659.7
54526.6,37658.3
54520.8,37657.4
54515.1,37657.2
54396.9,37657.2
Z" /> 
<path style="fill:#FFFFFF; fill-opacity:1.0; 
stroke:#FFFFFF; stroke-width:0; stroke-opacity:1; 
stroke-linecap:round; stroke-linejoin:round;fill-rule:evenodd;"
d="M 54891.2,37657.4
54885.4,37658.3
54879.8,37659.7
54874.3,37661.7
54869.1,37664.1
54864.1,37667.1
54859.5,37670.6
54855.2,37674.5
54851.3,37678.8
54847.8,37683.4
54844.9,37688.4
54842.4,37693.6
54840.4,37699.1
54839,37704.7
54838.2,37710.4
54837.9,37716.2
54837.9,38405.2
54838.2,38411
54839,38416.7
54840.4,38422.3
54842.4,38427.8
54844.9,38433
54847.8,38438
54851.3,38442.7
54855.2,38447
54859.5,38450.8
54864.1,38454.3
54869.1,38457.3
54874.3,38459.8
54879.8,38461.7
54885.4,38463.1
54891.2,38464
54896.9,38464.3
55015.1,38464.3
55020.8,38464
55026.6,38463.1
55032.2,38461.7
55037.7,38459.8
55042.9,38457.3
55047.9,38454.3
55052.5,38450.8
55056.8,38447
55060.7,38442.7
55064.2,38438
55067.1,38433
55069.6,38427.8
55071.6,38422.3
55073,38416.7
55073.8,38411
55074.1,38405.2
55074.1,37716.2
55073.8,37710.4
55073,37704.7
55071.6,37699.1
55069.6,37693.6
55067.1,37688.4
55064.2,37683.4
55060.7,37678.8
55056.8,37674.5
55052.5,37670.6
55047.9,37667.1
55042.9,37664.1
55037.7,37661.7
55032.2,37659.7
55026.6,37658.3
55020.8,37657.4
55015.1,37657.2
54896.9,37657.2
Z" /> 
<path style="fill:#FFFFFF; fill-opacity:1.0; 
stroke:#FFFFFF; stroke-width:0; stroke-opacity:1; 
stroke-linecap:round; stroke-linejoin:round;fill-rule:evenodd;"
d="M 55391.2,37657.4
55385.4,37658.3
55379.8,37659.7
55374.3,37661.7
55369.1,37664.1
55364.1,37667.1
55359.5,37670.6
55355.2,37674.5
55351.3,37678.8
55347.8,37683.4
55344.9,37688.4
55342.4,37693.6
55340.4,37699.1
55339,37704.7
55338.2,37710.4
55337.9,37716.2
55337.9,38405.2
55338.2,38411
55339,38416.7
55340.4,38422.3
55342.4,38427.8
55344.9,38433
55347.8,38438
55351.3,38442.7
55355.2,38447
55359.5,38450.8
55364.1,38454.3
55369.1,38457.3
55374.3,38459.8
55379.8,38461.7
55385.4,38463.1
55391.2,38464
55396.9,38464.3
55515.1,38464.3
55520.8,38464
55526.6,38463.1
55532.2,38461.7
55537.7,38459.8
55542.9,38457.3
55547.9,38454.3
55552.5,38450.8
55556.8,38447
55560.7,38442.7
55564.2,38438
55567.1,38433
55569.6,38427.8
55571.6,38422.3
55573,38416.7
55573.8,38411
55574.1,38405.2
55574.1,37716.2
55573.8,37710.4
55573,37704.7
55571.6,37699.1
55569.6,37693.6
55567.1,37688.4
55564.2,37683.4
55560.7,37678.8
55556.8,37674.5
55552.5,37670.6
55547.9,37667.1
55542.9,37664.1
55537.7,37661.7
55532.2,37659.7
55526.6,37658.3
55520.8,37657.4
55515.1,37657.2
55396.9,37657.2
Z" /> 
<path style="fill:#FFFFFF; fill-opacity:1.0; 
stroke:#FFFFFF; stroke-width:0; stroke-opacity:1; 
stroke-linecap:round; stroke-linejoin:round;fill-rule:evenodd;"
d="M 55891.2,37657.4
55885.4,37658.3
55879.8,37659.7
55874.3,37661.7
55869.1,37664.1
55864.1,37667.1
55859.5,37670.6
55855.2,37674.5
55851.3,37678.8
55847.8,37683.4
55844.9,37688.4
55842.4,37693.6
55840.4,37699.1
55839,37704.7
55838.2,37710.4
55837.9,37716.2
55837.9,38405.2
55838.2,38411
55839,38416.7
55840.4,38422.3
55842.4,38427.8
55844.9,38433
55847.8,38438
55851.3,38442.7
55855.2,38447
55859.5,38450.8
55864.1,38454.3
55869.1,38457.3
55874.3,38459.8
55879.8,38461.7
55885.4,38463.1
55891.2,38464
55896.9,38464.3
56015.1,38464.3
56020.8,38464
56026.6,38463.1
56032.2,38461.7
56037.7,38459.8
56042.9,38457.3
56047.9,38454.3
56052.5,38450.8
56056.8,38447
56060.7,38442.7
56064.2,38438
56067.1,38433
56069.6,38427.8
56071.6,38422.3
56073,38416.7
56073.8,38411
56074.1,38405.2
56074.1,37716.2
56073.8,37710.4
56073,37704.7
56071.6,37699.1
56069.6,37693.6
56067.1,37688.4
56064.2,37683.4
56060.7,37678.8
56056.8,37674.5
56052.5,37670.6
56047.9,37667.1
56042.9,37664.1
56037.7,37661.7
56032.2,37659.7
56026.6,37658.3
56020.8,37657.4
56015.1,37657.2
55896.9,37657.2
Z" /> 
<path style="fill:#FFFFFF; fill-opacity:1.0; 
stroke:#FFFFFF; stroke-width:0; stroke-opacity:1; 
stroke-linecap:round; stroke-linejoin:round;fill-rule:evenodd;"
d="M 56391.2,37657.4
56385.4,37658.3
56379.8,37659.7
56374.3,37661.7
56369.1,37664.1
56364.1,37667.1
56359.5,37670.6
56355.2,37674.5
56351.3,37678.8
56347.8,37683.4
56344.9,37688.4
56342.4,37693.6
56340.4,37699.1
56339,37704.7
56338.2,37710.4
56337.9,37716.2
56337.9,38405.2
56338.2,38411
56339,38416.7
56340.4,38422.3
56342.4,38427.8
56344.9,38433
56347.8,38438
56351.3,38442.7
56355.2,38447
56359.5,38450.8
56364.1,38454.3
56369.1,38457.3
56374.3,38459.8
56379.8,38461.7
56385.4,38463.1
56391.2,38464
56396.9,38464.3
56515.1,38464.3
56520.8,38464
56526.6,38463.1
56532.2,38461.7
56537.7,38459.8
56542.9,38457.3
56547.9,38454.3
56552.5,38450.8
56556.8,38447
56560.7,38442.7
56564.2,38438
56567.1,38433
56569.6,38427.8
56571.6,38422.3
56573,38416.7
56573.8,38411
56574.1,38405.2
56574.1,37716.2
56573.8,37710.4
56573,37704.7
56571.6,37699.1
56569.6,37693.6
56567.1,37688.4
56564.2,37683.4
56560.7,37678.8
56556.8,37674.5
56552.5,37670.6
56547.9,37667.1
56542.9,37664.1
56537.7,37661.7
56532.2,37659.7
56526.6,37658.3
56520.8,37657.4
56515.1,37657.2
56396.9,37657.2
Z" /> 
<path style="fill:#FFFFFF; fill-opacity:1.0; 
stroke:#FFFFFF; stroke-width:0; stroke-opacity:1; 
stroke-linecap:round; stroke-linejoin:round;fill-rule:evenodd;"
d="M 56891.2,37657.4
56885.4,37658.3
56879.8,37659.7
56874.3,37661.7
56869.1,37664.1
56864.1,37667.1
56859.5,37670.6
56855.2,37674.5
56851.3,37678.8
56847.8,37683.4
56844.9,37688.4
56842.4,37693.6
56840.4,37699.1
56839,37704.7
56838.2,37710.4
56837.9,37716.2
56837.9,38405.2
56838.2,38411
56839,38416.7
56840.4,38422.3
56842.4,38427.8
56844.9,38433
56847.8,38438
56851.3,38442.7
56855.2,38447
56859.5,38450.8
56864.1,38454.3
56869.1,38457.3
56874.3,38459.8
56879.8,38461.7
56885.4,38463.1
56891.2,38464
56896.9,38464.3
57015.1,38464.3
57020.8,38464
57026.6,38463.1
57032.2,38461.7
57037.7,38459.8
57042.9,38457.3
57047.9,38454.3
57052.5,38450.8
57056.8,38447
57060.7,38442.7
57064.2,38438
57067.1,38433
57069.6,38427.8
57071.6,38422.3
57073,38416.7
57073.8,38411
57074.1,38405.2
57074.1,37716.2
57073.8,37710.4
57073,37704.7
57071.6,37699.1
57069.6,37693.6
57067.1,37688.4
57064.2,37683.4
57060.7,37678.8
57056.8,37674.5
57052.5,37670.6
57047.9,37667.1
57042.9,37664.1
57037.7,37661.7
57032.2,37659.7
57026.6,37658.3
57020.8,37657.4
57015.1,37657.2
56896.9,37657.2
Z" /> 
<path style="fill:#FFFFFF; fill-opacity:1.0; 
stroke:#FFFFFF; stroke-width:0; stroke-opacity:1; 
stroke-linecap:round; stroke-linejoin:round;fill-rule:evenodd;"
d="M 57391.2,37657.4
57385.4,37658.3
57379.8,37659.7
57374.3,37661.7
57369.1,37664.1
57364.1,37667.1
57359.5,37670.6
57355.2,37674.5
57351.3,37678.8
57347.8,37683.4
57344.9,37688.4
57342.4,37693.6
57340.4,37699.1
57339,37704.7
57338.2,37710.4
57337.9,37716.2
57337.9,38405.2
57338.2,38411
57339,38416.7
57340.4,38422.3
57342.4,38427.8
57344.9,38433
57347.8,38438
57351.3,38442.7
57355.2,38447
57359.5,38450.8
57364.1,38454.3
57369.1,38457.3
57374.3,38459.8
57379.8,38461.7
57385.4,38463.1
57391.2,38464
57396.9,38464.3
57515.1,38464.3
57520.8,38464
57526.6,38463.1
57532.2,38461.7
57537.7,38459.8
57542.9,38457.3
57547.9,38454.3
57552.5,38450.8
57556.8,38447
57560.7,38442.7
57564.2,38438
57567.1,38433
57569.6,38427.8
57571.6,38422.3
57573,38416.7
57573.8,38411
57574.1,38405.2
57574.1,37716.2
57573.8,37710.4
57573,37704.7
57571.6,37699.1
57569.6,37693.6
57567.1,37688.4
57564.2,37683.4
57560.7,37678.8
57556.8,37674.5
57552.5,37670.6
57547.9,37667.1
57542.9,37664.1
57537.7,37661.7
57532.2,37659.7
57526.6,37658.3
57520.8,37657.4
57515.1,37657.2
57396.9,37657.2
Z" /> 
<path style="fill:#FFFFFF; fill-opacity:1.0; 
stroke:#FFFFFF; stroke-width:0; stroke-opacity:1; 
stroke-linecap:round; stroke-linejoin:round;fill-rule:evenodd;"
d="M 57891.2,37657.4
57885.4,37658.3
57879.8,37659.7
57874.3,37661.7
57869.1,37664.1
57864.1,37667.1
57859.5,37670.6
57855.2,37674.5
57851.3,37678.8
57847.8,37683.4
57844.9,37688.4
57842.4,37693.6
57840.4,37699.1
57839,37704.7
57838.2,37710.4
57837.9,37716.2
57837.9,38405.2
57838.2,38411
57839,38416.7
57840.4,38422.3
57842.4,38427.8
57844.9,38433
57847.8,38438
57851.3,38442.7
57855.2,38447
57859.5,38450.8
57864.1,38454.3
57869.1,38457.3
57874.3,38459.8
57879.8,38461.7
57885.4,38463.1
57891.2,38464
57896.9,38464.3
58015.1,38464.3
58020.8,38464
58026.6,38463.1
58032.2,38461.7
58037.7,38459.8
58042.9,38457.3
58047.9,38454.3
58052.5,38450.8
58056.8,38447
58060.7,38442.7
58064.2,38438
58067.1,38433
58069.6,38427.8
58071.6,38422.3
58073,38416.7
58073.8,38411
58074.1,38405.2
58074.1,37716.2
58073.8,37710.4
58073,37704.7
58071.6,37699.1
58069.6,37693.6
58067.1,37688.4
58064.2,37683.4
58060.7,37678.8
58056.8,37674.5
58052.5,37670.6
58047.9,37667.1
58042.9,37664.1
58037.7,37661.7
58032.2,37659.7
58026.6,37658.3
58020.8,37657.4
58015.1,37657.2
57896.9,37657.2
Z" /> 
<path style="fill:#FFFFFF; fill-opacity:1.0; 
stroke:#FFFFFF; stroke-width:0; stroke-opacity:1; 
stroke-linecap:round; stroke-linejoin:round;fill-rule:evenodd;"
d="M 58391.2,37657.4
58385.4,37658.3
58379.8,37659.7
58374.3,37661.7
58369.1,37664.1
58364.1,37667.1
58359.5,37670.6
58355.2,37674.5
58351.3,37678.8
58347.8,37683.4
58344.9,37688.4
58342.4,37693.6
58340.4,37699.1
58339,37704.7
58338.2,37710.4
58337.9,37716.2
58337.9,38405.2
58338.2,38411
58339,38416.7
58340.4,38422.3
58342.4,38427.8
58344.9,38433
58347.8,38438
58351.3,38442.7
58355.2,38447
58359.5,38450.8
58364.1,38454.3
58369.1,38457.3
58374.3,38459.8
58379.8,38461.7
58385.4,38463.1
58391.2,38464
58396.9,38464.3
58515.1,38464.3
58520.8,38464
58526.6,38463.1
58532.2,38461.7
58537.7,38459.8
58542.9,38457.3
58547.9,38454.3
58552.5,38450.8
58556.8,38447
58560.7,38442.7
58564.2,38438
58567.1,38433
58569.6,38427.8
58571.6,38422.3
58573,38416.7
58573.8,38411
58574.1,38405.2
58574.1,37716.2
58573.8,37710.4
58573,37704.7
58571.6,37699.1
58569.6,37693.6
58567.1,37688.4
58564.2,37683.4
58560.7,37678.8
58556.8,37674.5
58552.5,37670.6
58547.9,37667.1
58542.9,37664.1
58537.7,37661.7
58532.2,37659.7
58526.6,37658.3
58520.8,37657.4
58515.1,37657.2
58396.9,37657.2
Z" /> 
<path style="fill:#FFFFFF; fill-opacity:1.0; 
stroke:#FFFFFF; stroke-width:0; stroke-opacity:1; 
stroke-linecap:round; stroke-linejoin:round;fill-rule:evenodd;"
d="M 58891.2,37657.4
58885.4,37658.3
58879.8,37659.7
58874.3,37661.7
58869.1,37664.1
58864.1,37667.1
58859.5,37670.6
58855.2,37674.5
58851.3,37678.8
58847.8,37683.4
58844.9,37688.4
58842.4,37693.6
58840.4,37699.1
58839,37704.7
58838.2,37710.4
58837.9,37716.2
58837.9,38405.2
58838.2,38411
58839,38416.7
58840.4,38422.3
58842.4,38427.8
58844.9,38433
58847.8,38438
58851.3,38442.7
58855.2,38447
58859.5,38450.8
58864.1,38454.3
58869.1,38457.3
58874.3,38459.8
58879.8,38461.7
58885.4,38463.1
58891.2,38464
58896.9,38464.3
59015.1,38464.3
59020.8,38464
59026.6,38463.1
59032.2,38461.7
59037.7,38459.8
59042.9,38457.3
59047.9,38454.3
59052.5,38450.8
59056.8,38447
59060.7,38442.7
59064.2,38438
59067.1,38433
59069.6,38427.8
59071.6,38422.3
59073,38416.7
59073.8,38411
59074.1,38405.2
59074.1,37716.2
59073.8,37710.4
59073,37704.7
59071.6,37699.1
59069.6,37693.6
59067.1,37688.4
59064.2,37683.4
59060.7,37678.8
59056.8,37674.5
59052.5,37670.6
59047.9,37667.1
59042.9,37664.1
59037.7,37661.7
59032.2,37659.7
59026.6,37658.3
59020.8,37657.4
59015.1,37657.2
58896.9,37657.2
Z" /> 
<path style="fill:#FFFFFF; fill-opacity:1.0; 
stroke:#FFFFFF; stroke-width:0; stroke-opacity:1; 
stroke-linecap:round; stroke-linejoin:round;fill-rule:evenodd;"
d="M 59391.2,37657.4
59385.4,37658.3
59379.8,37659.7
59374.3,37661.7
59369.1,37664.1
59364.1,37667.1
59359.5,37670.6
59355.2,37674.5
59351.3,37678.8
59347.8,37683.4
59344.9,37688.4
59342.4,37693.6
59340.4,37699.1
59339,37704.7
59338.2,37710.4
59337.9,37716.2
59337.9,38405.2
59338.2,38411
59339,38416.7
59340.4,38422.3
59342.4,38427.8
59344.9,38433
59347.8,38438
59351.3,38442.7
59355.2,38447
59359.5,38450.8
59364.1,38454.3
59369.1,38457.3
59374.3,38459.8
59379.8,38461.7
59385.4,38463.1
59391.2,38464
59396.9,38464.3
59515.1,38464.3
59520.8,38464
59526.6,38463.1
59532.2,38461.7
59537.7,38459.8
59542.9,38457.3
59547.9,38454.3
59552.5,38450.8
59556.8,38447
59560.7,38442.7
59564.2,38438
59567.1,38433
59569.6,38427.8
59571.6,38422.3
59573,38416.7
59573.8,38411
59574.1,38405.2
59574.1,37716.2
59573.8,37710.4
59573,37704.7
59571.6,37699.1
59569.6,37693.6
59567.1,37688.4
59564.2,37683.4
59560.7,37678.8
59556.8,37674.5
59552.5,37670.6
59547.9,37667.1
59542.9,37664.1
59537.7,37661.7
59532.2,37659.7
59526.6,37658.3
59520.8,37657.4
59515.1,37657.2
59396.9,37657.2
Z" /> 
<path style="fill:#FFFFFF; fill-opacity:1.0; 
stroke:#FFFFFF; stroke-width:0; stroke-opacity:1; 
stroke-linecap:round; stroke-linejoin:round;fill-rule:evenodd;"
d="M 59891.2,37657.4
59885.4,37658.3
59879.8,37659.7
59874.3,37661.7
59869.1,37664.1
59864.1,37667.1
59859.5,37670.6
59855.2,37674.5
59851.3,37678.8
59847.8,37683.4
59844.9,37688.4
59842.4,37693.6
59840.4,37699.1
59839,37704.7
59838.2,37710.4
59837.9,37716.2
59837.9,38405.2
59838.2,38411
59839,38416.7
59840.4,38422.3
59842.4,38427.8
59844.9,38433
59847.8,38438
59851.3,38442.7
59855.2,38447
59859.5,38450.8
59864.1,38454.3
59869.1,38457.3
59874.3,38459.8
59879.8,38461.7
59885.4,38463.1
59891.2,38464
59896.9,38464.3
60015.1,38464.3
60020.8,38464
60026.6,38463.1
60032.2,38461.7
60037.7,38459.8
60042.9,38457.3
60047.9,38454.3
60052.5,38450.8
60056.8,38447
60060.7,38442.7
60064.2,38438
60067.1,38433
60069.6,38427.8
60071.6,38422.3
60073,38416.7
60073.8,38411
60074.1,38405.2
60074.1,37716.2
60073.8,37710.4
60073,37704.7
60071.6,37699.1
60069.6,37693.6
60067.1,37688.4
60064.2,37683.4
60060.7,37678.8
60056.8,37674.5
60052.5,37670.6
60047.9,37667.1
60042.9,37664.1
60037.7,37661.7
60032.2,37659.7
60026.6,37658.3
60020.8,37657.4
60015.1,37657.2
59896.9,37657.2
Z" /> 
<path style="fill:#FFFFFF; fill-opacity:1.0; 
stroke:#FFFFFF; stroke-width:0; stroke-opacity:1; 
stroke-linecap:round; stroke-linejoin:round;fill-rule:evenodd;"
d="M 60391.2,37657.4
60385.4,37658.3
60379.8,37659.7
60374.3,37661.7
60369.1,37664.1
60364.1,37667.1
60359.5,37670.6
60355.2,37674.5
60351.3,37678.8
60347.8,37683.4
60344.9,37688.4
60342.4,37693.6
60340.4,37699.1
60339,37704.7
60338.2,37710.4
60337.9,37716.2
60337.9,38405.2
60338.2,38411
60339,38416.7
60340.4,38422.3
60342.4,38427.8
60344.9,38433
60347.8,38438
60351.3,38442.7
60355.2,38447
60359.5,38450.8
60364.1,38454.3
60369.1,38457.3
60374.3,38459.8
60379.8,38461.7
60385.4,38463.1
60391.2,38464
60396.9,38464.3
60515.1,38464.3
60520.8,38464
60526.6,38463.1
60532.2,38461.7
60537.7,38459.8
60542.9,38457.3
60547.9,38454.3
60552.5,38450.8
60556.8,38447
60560.7,38442.7
60564.2,38438
60567.1,38433
60569.6,38427.8
60571.6,38422.3
60573,38416.7
60573.8,38411
60574.1,38405.2
60574.1,37716.2
60573.8,37710.4
60573,37704.7
60571.6,37699.1
60569.6,37693.6
60567.1,37688.4
60564.2,37683.4
60560.7,37678.8
60556.8,37674.5
60552.5,37670.6
60547.9,37667.1
60542.9,37664.1
60537.7,37661.7
60532.2,37659.7
60526.6,37658.3
60520.8,37657.4
60515.1,37657.2
60396.9,37657.2
Z" /> 
</g>
<g >
</g>
<g style="fill:#FFFFFF; fill-opacity:1.0; 
stroke:#FFFFFF; stroke-width:0; stroke-opacity:1; 
stroke-linecap:round; stroke-linejoin:round;">
<circle cx="62799" cy="35035" r="393.701" /> 
</g>
<g style="fill:#FFFFFF; fill-opacity:1.0; 
stroke:#FFFFFF; stroke-width:39.3701; stroke-opacity:1; 
stroke-linecap:round; stroke-linejoin:round;">
</g>
<g style="fill:#FFFFFF; fill-opacity:1.0; 
stroke:#FFFFFF; stroke-width:0; stroke-opacity:1; 
stroke-linecap:round; stroke-linejoin:round;">
<circle cx="62799" cy="34035" r="393.701" /> 
</g>
<g style="fill:#FFFFFF; fill-opacity:1.0; 
stroke:#FFFFFF; stroke-width:39.3701; stroke-opacity:1; 
stroke-linecap:round; stroke-linejoin:round;">
</g>
<g >
</g>
<g >
</g>
<g style="fill:#FFFFFF; fill-opacity:1.0; 
stroke:#FFFFFF; stroke-width:39.3701; stroke-opacity:1; 
stroke-linecap:round; stroke-linejoin:round;">
</g>
<g style="fill:#FFFFFF; fill-opacity:1.0; 
stroke:#FFFFFF; stroke-width:0; stroke-opacity:1; 
stroke-linecap:round; stroke-linejoin:round;">
<circle cx="62799" cy="40035" r="393.701" /> 
</g>
<g style="fill:#FFFFFF; fill-opacity:1.0; 
stroke:#FFFFFF; stroke-width:39.3701; stroke-opacity:1; 
stroke-linecap:round; stroke-linejoin:round;">
</g>
<g style="fill:#FFFFFF; fill-opacity:1.0; 
stroke:#FFFFFF; stroke-width:669.291; stroke-opacity:1; 
stroke-linecap:round; stroke-linejoin:round;">
</g>
<g style="fill:#FFFFFF; fill-opacity:0.0; 
stroke:#FFFFFF; stroke-width:669.291; stroke-opacity:1; 
stroke-linecap:round; stroke-linejoin:round;">
<path d="M61779 40035
L61818 40035
" />
<path d="M62779 41035
L62818 41035
" />
<path d="M61779 41035
L61818 41035
" />
<path d="M62779 42035
L62818 42035
" />
<path d="M61779 42035
L61818 42035
" />
</g>
<g style="fill:#FFFFFF; fill-opacity:1.0; 
stroke:#FFFFFF; stroke-width:0; stroke-opacity:1; 
stroke-linecap:round; stroke-linejoin:round;">
<circle cx="62799" cy="43035" r="393.701" /> 
</g>
<g style="fill:#FFFFFF; fill-opacity:1.0; 
stroke:#FFFFFF; stroke-width:39.3701; stroke-opacity:1; 
stroke-linecap:round; stroke-linejoin:round;">
</g>
<g style="fill:#FFFFFF; fill-opacity:1.0; 
stroke:#FFFFFF; stroke-width:669.291; stroke-opacity:1; 
stroke-linecap:round; stroke-linejoin:round;">
</g>
<g style="fill:#FFFFFF; fill-opacity:0.0; 
stroke:#FFFFFF; stroke-width:669.291; stroke-opacity:1; 
stroke-linecap:round; stroke-linejoin:round;">
<path d="M61779 43035
L61818 43035
" />
</g>
<g >
</g>
<g style="fill:#FFFFFF; fill-opacity:0.0; 
stroke:#FFFFFF; stroke-width:669.291; stroke-opacity:1; 
stroke-linecap:round; stroke-linejoin:round;">
</g>
<g style="fill:#FFFFFF; fill-opacity:1.0; 
stroke:#FFFFFF; stroke-width:0; stroke-opacity:1; 
stroke-linecap:round; stroke-linejoin:round;">
<circle cx="56699" cy="42585" r="314.961" /> 
</g>
<g style="fill:#FFFFFF; fill-opacity:1.0; 
stroke:#FFFFFF; stroke-width:39.3701; stroke-opacity:1; 
stroke-linecap:round; stroke-linejoin:round;">
</g>
<g style="fill:#FFFFFF; fill-opacity:1.0; 
stroke:#FFFFFF; stroke-width:0; stroke-opacity:1; 
stroke-linecap:round; stroke-linejoin:round;">
<path style="fill:#FFFFFF; fill-opacity:1.0; 
stroke:#FFFFFF; stroke-width:0; stroke-opacity:1; 
stroke-linecap:round; stroke-linejoin:round;fill-rule:evenodd;"
d="M 55384,42270
55384,42900
56014,42900
56014,42270
Z" /> 
</g>
<g >
</g>
<g style="fill:#FFFFFF; fill-opacity:1.0; 
stroke:#FFFFFF; stroke-width:0; stroke-opacity:1; 
stroke-linecap:round; stroke-linejoin:round;">
<path style="fill:#FFFFFF; fill-opacity:1.0; 
stroke:#FFFFFF; stroke-width:0; stroke-opacity:1; 
stroke-linecap:round; stroke-linejoin:round;fill-rule:evenodd;"
d="M 54464,39720
53834,39720
53834,40350
54464,40350
Z" /> 
<circle cx="54149" cy="41035" r="314.961" /> 
</g>
<g style="fill:#FFFFFF; fill-opacity:1.0; 
stroke:#FFFFFF; stroke-width:39.3701; stroke-opacity:1; 
stroke-linecap:round; stroke-linejoin:round;">
</g>
<g >
</g>
<g style="fill:#FFFFFF; fill-opacity:1.0; 
stroke:#FFFFFF; stroke-width:39.3701; stroke-opacity:1; 
stroke-linecap:round; stroke-linejoin:round;">
</g>
<g style="fill:#FFFFFF; fill-opacity:1.0; 
stroke:#FFFFFF; stroke-width:0; stroke-opacity:1; 
stroke-linecap:round; stroke-linejoin:round;">
<circle cx="60799" cy="32184" r="314.961" /> 
</g>
<g style="fill:#FFFFFF; fill-opacity:1.0; 
stroke:#FFFFFF; stroke-width:39.3701; stroke-opacity:1; 
stroke-linecap:round; stroke-linejoin:round;">
</g>
<g style="fill:#FFFFFF; fill-opacity:1.0; 
stroke:#FFFFFF; stroke-width:0; stroke-opacity:1; 
stroke-linecap:round; stroke-linejoin:round;">
<path style="fill:#FFFFFF; fill-opacity:1.0; 
stroke:#FFFFFF; stroke-width:0; stroke-opacity:1; 
stroke-linecap:round; stroke-linejoin:round;fill-rule:evenodd;"
d="M 60484,33499
61114,33499
61114,32869
60484,32869
Z" /> 
</g>
<g >
</g>
<g style="fill:#FFFFFF; fill-opacity:1.0; 
stroke:#FFFFFF; stroke-width:0; stroke-opacity:1; 
stroke-linecap:round; stroke-linejoin:round;">
<circle cx="62799" cy="32035" r="393.701" /> 
</g>
<g style="fill:#FFFFFF; fill-opacity:1.0; 
stroke:#FFFFFF; stroke-width:39.3701; stroke-opacity:1; 
stroke-linecap:round; stroke-linejoin:round;">
</g>
<g style="fill:#FFFFFF; fill-opacity:1.0; 
stroke:#FFFFFF; stroke-width:0; stroke-opacity:1; 
stroke-linecap:round; stroke-linejoin:round;">
<circle cx="62799" cy="33035" r="393.701" /> 
</g>
<g style="fill:#FFFFFF; fill-opacity:1.0; 
stroke:#FFFFFF; stroke-width:39.3701; stroke-opacity:1; 
stroke-linecap:round; stroke-linejoin:round;">
</g>
<g >
</g>
<g style="fill:#FFFFFF; fill-opacity:1.0; 
stroke:#FFFFFF; stroke-width:39.3701; stroke-opacity:1; 
stroke-linecap:round; stroke-linejoin:round;">
</g>
<g style="fill:#FFFFFF; fill-opacity:1.0; 
stroke:#FFFFFF; stroke-width:0; stroke-opacity:1; 
stroke-linecap:round; stroke-linejoin:round;">
<path style="fill:#FFFFFF; fill-opacity:1.0; 
stroke:#FFFFFF; stroke-width:0; stroke-opacity:1; 
stroke-linecap:round; stroke-linejoin:round;fill-rule:evenodd;"
d="M 54464,41770
53834,41770
53834,42400
54464,42400
Z" /> 
<circle cx="54149" cy="43085" r="314.961" /> 
</g>
<g style="fill:#FFFFFF; fill-opacity:1.0; 
stroke:#FFFFFF; stroke-width:39.3701; stroke-opacity:1; 
stroke-linecap:round; stroke-linejoin:round;">
</g>
<g >
</g>
<g style="fill:#FFFFFF; fill-opacity:1.0; 
stroke:#FFFFFF; stroke-width:39.3701; stroke-opacity:1; 
stroke-linecap:round; stroke-linejoin:round;">
</g>
<g style="fill:#FFFFFF; fill-opacity:1.0; 
stroke:#FFFFFF; stroke-width:0; stroke-opacity:1; 
stroke-linecap:round; stroke-linejoin:round;">
<path style="fill:#FFFFFF; fill-opacity:1.0; 
stroke:#FFFFFF; stroke-width:0; stroke-opacity:1; 
stroke-linecap:round; stroke-linejoin:round;fill-rule:evenodd;"
d="M 57434,42270
57434,42900
58064,42900
58064,42270
Z" /> 
<circle cx="58749" cy="42585" r="314.961" /> 
</g>
<g style="fill:#FFFFFF; fill-opacity:1.0; 
stroke:#FFFFFF; stroke-width:39.3701; stroke-opacity:1; 
stroke-linecap:round; stroke-linejoin:round;">
</g>
<g >
</g>
<g style="fill:#FFFFFF; fill-opacity:1.0; 
stroke:#FFFFFF; stroke-width:39.3701; stroke-opacity:1; 
stroke-linecap:round; stroke-linejoin:round;">
</g>
<g style="fill:#FFFFFF; fill-opacity:1.0; 
stroke:#FFFFFF; stroke-width:0; stroke-opacity:1; 
stroke-linecap:round; stroke-linejoin:round;">
<circle cx="59352" cy="33423" r="314.961" /> 
</g>
<g style="fill:#FFFFFF; fill-opacity:1.0; 
stroke:#FFFFFF; stroke-width:39.3701; stroke-opacity:1; 
stroke-linecap:round; stroke-linejoin:round;">
</g>
<g >
</g>
<g style="fill:#FFFFFF; fill-opacity:1.0; 
stroke:#FFFFFF; stroke-width:39.3701; stroke-opacity:1; 
stroke-linecap:round; stroke-linejoin:round;">
</g>
<g style="fill:#FFFFFF; fill-opacity:1.0; 
stroke:#FFFFFF; stroke-width:196.85; stroke-opacity:1; 
stroke-linecap:round; stroke-linejoin:round;">
</g>
<g style="fill:#FFFFFF; fill-opacity:0.0; 
stroke:#FFFFFF; stroke-width:196.85; stroke-opacity:1; 
stroke-linecap:round; stroke-linejoin:round;">
<path d="M53956 36545
L53074 35663
" />
<path d="M53074 33259
L53649 32684
" />
<path d="M53074 35663
L53074 33259
" />
<path d="M53956 38060
L53956 36545
" />
<path d="M58956 38831
L58956 38060
" />
<path d="M58225 39082
L58706 39082
" />
<path d="M57660 39647
L58225 39082
" />
<path d="M57660 41485
L57660 39647
" />
<path d="M57749 42585
L57749 41574
" />
<path d="M57749 41574
L57660 41485
" />
<path d="M58706 39082
L58956 38831
" />
<path d="M55717 38997
L55956 38757
" />
<path d="M55956 38757
L55956 38060
" />
<path d="M55187 38997
L55717 38997
" />
<path d="M54149 40035
L55187 38997
" />
<path d="M56956 38060
L56956 39277
" />
<path d="M56956 39277
L55699 40535
" />
<path d="M58456 34399
L58456 34399
" />
<path d="M58456 33142
L58456 34399
" />
</g>
<g style="fill:#FFFFFF; fill-opacity:0.0; 
stroke:#FFFFFF; stroke-width:393.701; stroke-opacity:1; 
stroke-linecap:round; stroke-linejoin:round;">
<path d="M60299 31299
L58456 33142
" />
<path d="M60299 31035
L60299 31299
" />
</g>
<g style="fill:#FFFFFF; fill-opacity:0.0; 
stroke:#FFFFFF; stroke-width:196.85; stroke-opacity:1; 
stroke-linecap:round; stroke-linejoin:round;">
<path d="M55699 31502
L55699 33108
" />
<path d="M54956 33850
L54956 34399
" />
<path d="M55699 33108
L54956 33850
" />
<path d="M58749 43147
L58749 42585
" />
<path d="M62799 43035
L62086 43748
" />
<path d="M62086 43748
L59350 43748
" />
<path d="M59350 43748
L58749 43147
" />
<path d="M56456 33995
L56456 34399
" />
<path d="M57749 31502
L57749 32702
" />
<path d="M57749 32702
L56456 33995
" />
<path d="M59456 34967
L59801 35312
" />
<path d="M59456 34399
L59456 34967
" />
<path d="M59801 35312
L62076 35312
" />
<path d="M62076 35312
L62799 36035
" />
<path d="M57956 34399
L57956 35040
" />
<path d="M58951 36035
L61799 36035
" />
<path d="M57956 35040
L58951 36035
" />
<path d="M57456 34399
L57456 35266
" />
<path d="M60848 37241
L61054 37035
" />
<path d="M57456 35266
L59431 37241
" />
<path d="M59431 37241
L60848 37241
" />
<path d="M61054 37035
L61799 37035
" />
<path d="M59956 34399
L59956 34026
" />
<path d="M59956 34026
L60799 33184
" />
<path d="M59799 40535
L59799 39581
" />
<path d="M59799 39581
L59956 39423
" />
<path d="M59956 39423
L59956 38060
" />
<path d="M60456 38060
L60456 39611
" />
</g>
<g style="fill:#FFFFFF; fill-opacity:0.0; 
stroke:#FFFFFF; stroke-width:177.165; stroke-opacity:1; 
stroke-linecap:round; stroke-linejoin:round;">
<path d="M60307 39761
L60307 41128
" />
</g>
<g style="fill:#FFFFFF; fill-opacity:0.0; 
stroke:#FFFFFF; stroke-width:196.85; stroke-opacity:1; 
stroke-linecap:round; stroke-linejoin:round;">
<path d="M60456 39611
L60307 39761
" />
<path d="M59799 41636
L59799 42585
" />
<path d="M60307 41128
L59799 41636
" />
<path d="M56456 39038
L55838 39657
" />
<path d="M55363 39657
L54907 40113
" />
<path d="M56456 38060
L56456 39038
" />
<path d="M54660 42085
L54149 42085
" />
<path d="M54907 40113
L54907 41838
" />
<path d="M55838 39657
L55363 39657
" />
<path d="M54907 41838
L54660 42085
" />
<path d="M56097 41734
L55699 42132
" />
<path d="M55699 42132
L55699 42585
" />
<path d="M57456 38060
L57456 39275
" />
<path d="M57291 39441
L57291 41214
" />
<path d="M57291 41214
L56771 41734
" />
<path d="M57456 39275
L57291 39441
" />
<path d="M56771 41734
L56097 41734
" />
<path d="M59456 38060
L59456 39339
" />
<path d="M58760 40035
L58249 40035
" />
<path d="M59456 39339
L58760 40035
" />
<path d="M58956 34399
L58956 33818
" />
<path d="M58956 33818
L59352 33423
" />
</g>
<g >
</g>
<g style="fill:#FFFFFF; fill-opacity:0.0; 
stroke:#FFFFFF; stroke-width:196.85; stroke-opacity:1; 
stroke-linecap:round; stroke-linejoin:round;">
</g>
<g style="fill:#FFFFFF; fill-opacity:1.0; 
stroke:#FFFFFF; stroke-width:100; stroke-opacity:1; 
stroke-linecap:round; stroke-linejoin:round;">
<path style="fill:#FFFFFF; fill-opacity:1.0; 
stroke:#FFFFFF; stroke-width:100; stroke-opacity:1; 
stroke-linecap:round; stroke-linejoin:round;fill-rule:evenodd;"
d="M 60619.1,29644.2
60299,29964.3
59978.9,29644.2
59996.6,29583.8
52140.8,29583.8
52140.8,43994.2
59101.3,43994.2
59091.5,43982.3
58514.7,43405.5
58501.4,43394.6
58457.9,43341.5
58457,43339.9
58425.5,43281
58405.6,43215.3
58405.6,43215.3
58400.6,43164.1
58400.6,43164.1
58398.9,43147
58400.6,43129.9
58400.6,43031.7
58388.9,43023.8
58310.7,42945.6
58310.3,42949
58296,42996.1
58272.8,43039.5
58241.6,43077.6
58203.5,43108.8
58160.1,43132
58113,43146.3
58064,43151.2
57434,43151.2
57385,43146.3
57337.9,43132
57294.5,43108.8
57256.4,43077.6
57225.2,43039.5
57202,42996.1
57187.7,42949
57182.8,42900
57182.8,42877.8
57137.8,42945.1
57059.1,43023.8
56966.6,43085.7
56863.8,43128.2
56754.6,43150
56643.4,43150
56534.2,43128.2
56431.4,43085.7
56338.9,43023.8
56260.7,42945.6
56260.3,42949
56246,42996.1
56222.8,43039.5
56191.6,43077.6
56153.5,43108.8
56110.1,43132
56063,43146.3
56014,43151.2
55384,43151.2
55335,43146.3
55287.9,43132
55244.5,43108.8
55206.4,43077.6
55175.2,43039.5
55152,42996.1
55137.7,42949
55132.8,42900
55132.8,42270
55137.7,42221
55152,42173.9
55175.2,42130.5
55206.4,42092.4
55244.5,42061.2
55287.9,42038
55335,42023.7
55368.8,42020.3
55375.5,41998.3
55407.9,41937.7
55440.5,41898
55440.5,41898
55451.4,41884.7
55464.7,41873.8
55838.8,41499.7
55849.7,41486.4
55902.7,41442.9
55963.3,41410.5
56028.9,41390.6
56080.1,41385.6
56080.1,41385.6
56097.2,41383.9
56114.4,41385.6
56626.7,41385.6
56942.6,41069.7
56942.6,41045.6
56863.8,41078.2
56754.6,41100
56643.4,41100
56534.2,41078.2
56431.4,41035.7
56338.9,40973.8
56260.7,40895.6
56260.3,40899
56246,40946.1
56222.8,40989.5
56191.6,41027.6
56153.5,41058.8
56110.1,41082
56063,41096.3
56014,41101.2
55384,41101.2
55335,41096.3
55287.9,41082
55255.4,41064.7
55255.4,41821.7
55257.1,41838.8
55250.4,41907.1
55230.5,41972.8
55198.1,42033.3
55165.5,42073.1
55165.5,42073.1
55154.6,42086.4
55141.3,42097.3
54919.3,42319.3
54908.4,42332.6
54895.1,42343.5
54895.1,42343.5
54873.3,42361.4
54855.3,42376.1
54794.8,42408.5
54729.1,42428.4
54712.2,42430
54710.3,42449
54696,42496.1
54672.8,42539.5
54641.6,42577.6
54603.5,42608.8
54560.1,42632
54513,42646.3
54509.6,42646.7
54587.8,42724.9
54649.7,42817.4
54692.2,42920.2
54714,43029.4
54714,43140.6
54692.2,43249.8
54649.7,43352.6
54587.8,43445.1
54509.1,43523.8
54416.6,43585.7
54313.8,43628.2
54204.6,43650
54093.4,43650
53984.2,43628.2
53881.4,43585.7
53788.9,43523.8
53710.2,43445.1
53648.3,43352.6
53605.8,43249.8
53584,43140.6
53584,43029.4
53605.8,42920.2
53648.3,42817.4
53710.2,42724.9
53788.4,42646.7
53785,42646.3
53737.9,42632
53694.5,42608.8
53656.4,42577.6
53625.2,42539.5
53602,42496.1
53587.7,42449
53582.8,42400
53582.8,41770
53587.7,41721
53602,41673.9
53625.2,41630.5
53656.4,41592.4
53694.5,41561.2
53737.9,41538
53785,41523.7
53834,41518.8
53856.2,41518.8
53788.9,41473.8
53710.2,41395.1
53648.3,41302.6
53605.8,41199.8
53584,41090.6
53584,40979.4
53605.8,40870.2
53648.3,40767.4
53710.2,40674.9
53788.4,40596.7
53785,40596.3
53737.9,40582
53694.5,40558.8
53656.4,40527.6
53625.2,40489.5
53602,40446.1
53587.7,40399
53582.8,40350
53582.8,39720
53587.7,39671
53602,39623.9
53625.2,39580.5
53656.4,39542.4
53694.5,39511.2
53737.9,39488
53785,39473.7
53834,39468.8
54222.4,39468.8
54928.5,38762.7
54939.4,38749.4
54980.8,38715.5
54896.9,38715.5
54836.4,38709.5
54778.2,38691.8
54724.6,38663.2
54706,38647.9
54687.4,38663.2
54633.8,38691.8
54575.6,38709.5
54515.1,38715.5
54396.9,38715.5
54336.4,38709.5
54278.2,38691.8
54224.6,38663.2
54206,38647.9
54187.4,38663.2
54133.8,38691.8
54075.6,38709.5
54015.1,38715.5
53896.9,38715.5
53836.4,38709.5
53778.2,38691.8
53724.6,38663.2
53677.6,38624.6
53639,38577.6
53610.3,38523.9
53592.6,38465.7
53586.7,38405.2
53586.7,37716.2
53592.6,37655.7
53607.6,37606.5
53607.6,36689.3
52839.7,35921.5
52826.4,35910.6
52782.9,35857.5
52750.5,35797
52730.6,35731.3
52725.6,35680.1
52725.6,35680.1
52723.9,35663
52725.6,35645.9
52725.6,33276.1
52723.9,33259
52725.6,33241.9
52725.6,33241.9
52730.6,33190.7
52750.5,33125
52782.9,33064.5
52826.4,33011.4
52839.7,33000.5
53082.8,32757.4
53082.8,32369
53087.7,32320
53102,32272.9
53125.2,32229.5
53156.4,32191.4
53194.5,32160.2
53237.9,32137
53285,32122.7
53334,32117.8
53964,32117.8
54013,32122.7
54060.1,32137
54103.5,32160.2
54141.6,32191.4
54172.8,32229.5
54196,32272.9
54210.3,32320
54215.2,32369
54215.2,32376.5
54258.2,32363.9
54578.3,32684
54258.2,33004.1
54215.2,32991.5
54215.2,32999
54210.3,33048
54196,33095.1
54172.8,33138.5
54141.6,33176.6
54103.5,33207.8
54060.1,33231
54013,33245.3
53964,33250.2
53575.6,33250.2
53422.4,33403.3
53422.4,35518.7
54190.3,36286.5
54203.6,36297.4
54214.5,36310.7
54214.5,36310.7
54247.1,36350.5
54279.5,36411
54299.4,36476.7
54306.1,36545
54304.4,36562.1
54304.4,37421.6
54336.4,37411.9
54396.9,37406
54515.1,37406
54575.6,37411.9
54633.8,37429.6
54687.4,37458.2
54706,37473.5
54724.6,37458.2
54778.2,37429.6
54836.4,37411.9
54896.9,37406
55015.1,37406
55075.6,37411.9
55133.8,37429.6
55187.4,37458.2
55206,37473.5
55224.6,37458.2
55278.2,37429.6
55336.4,37411.9
55396.9,37406
55515.1,37406
55575.6,37411.9
55633.8,37429.6
55687.4,37458.2
55706,37473.5
55724.6,37458.2
55778.2,37429.6
55836.4,37411.9
55896.9,37406
56015.1,37406
56075.6,37411.9
56133.8,37429.6
56187.4,37458.2
56206,37473.5
56224.6,37458.2
56278.2,37429.6
56336.4,37411.9
56396.9,37406
56515.1,37406
56575.6,37411.9
56633.8,37429.6
56687.4,37458.2
56706,37473.5
56724.6,37458.2
56778.2,37429.6
56836.4,37411.9
56896.9,37406
57015.1,37406
57075.6,37411.9
57133.8,37429.6
57187.4,37458.2
57206,37473.5
57224.6,37458.2
57278.2,37429.6
57336.4,37411.9
57396.9,37406
57515.1,37406
57575.6,37411.9
57633.8,37429.6
57687.4,37458.2
57706,37473.5
57724.6,37458.2
57778.2,37429.6
57836.4,37411.9
57896.9,37406
58015.1,37406
58075.6,37411.9
58133.8,37429.6
58187.4,37458.2
58206,37473.5
58224.6,37458.2
58278.2,37429.6
58336.4,37411.9
58396.9,37406
58515.1,37406
58575.6,37411.9
58633.8,37429.6
58687.4,37458.2
58706,37473.5
58724.6,37458.2
58778.2,37429.6
58836.4,37411.9
58896.9,37406
59015.1,37406
59075.6,37411.9
59123.8,37426.5
57221.7,35524.5
57208.4,35513.6
57164.9,35460.5
57132.5,35400
57112.6,35334.3
57107.6,35283.1
57107.6,35283.1
57105.9,35266
57107.6,35248.9
57107.6,35038.4
57075.6,35048.1
57015.1,35054
56896.9,35054
56836.4,35048.1
56778.2,35030.4
56724.6,35001.8
56706,34986.5
56687.4,35001.8
56633.8,35030.4
56575.6,35048.1
56515.1,35054
56396.9,35054
56336.4,35048.1
56278.2,35030.4
56224.6,35001.8
56206,34986.5
56187.4,35001.8
56133.8,35030.4
56075.6,35048.1
56015.1,35054
55896.9,35054
55836.4,35048.1
55778.2,35030.4
55724.6,35001.8
55706,34986.5
55687.4,35001.8
55633.8,35030.4
55575.6,35048.1
55515.1,35054
55396.9,35054
55336.4,35048.1
55278.2,35030.4
55224.6,35001.8
55206,34986.5
55187.4,35001.8
55133.8,35030.4
55075.6,35048.1
55015.1,35054
54896.9,35054
54836.4,35048.1
54778.2,35030.4
54724.6,35001.8
54706,34986.5
54687.4,35001.8
54633.8,35030.4
54575.6,35048.1
54515.1,35054
54396.9,35054
54336.4,35048.1
54278.2,35030.4
54225.3,35002.2
54213.7,35011.7
54170.2,35034.9
54123.1,35049.2
54074.1,35054
54068.5,35052.8
54006,34990.3
54006,34449.3
53906,34449.3
53906,34990.3
53843.5,35052.8
53837.9,35054
53788.9,35049.2
53741.8,35034.9
53698.3,35011.7
53660.3,34980.5
53629,34942.4
53605.8,34899
53591.5,34851.8
53586.7,34802.8
53587.9,34511.8
53650.4,34449.3
53906,34449.3
54006,34449.3
54013.9,34449.3
54013.9,34349.3
54006,34349.3
54006,33808.2
53906,33808.2
53906,34349.3
53650.4,34349.3
53587.9,34286.8
53586.7,33995.7
53591.5,33946.7
53605.8,33899.6
53629,33856.2
53660.3,33818.1
53698.3,33786.9
53741.8,33763.7
53788.9,33749.4
53837.9,33744.5
53843.5,33745.7
53906,33808.2
54006,33808.2
54068.5,33745.7
54074.1,33744.5
54123.1,33749.4
54170.2,33763.7
54213.7,33786.9
54225.3,33796.4
54278.2,33768.2
54336.4,33750.5
54396.9,33744.5
54515.1,33744.5
54575.6,33750.5
54618.4,33763.5
54632.5,33717
54664.9,33656.5
54667,33654
54697.5,33616.7
54697.5,33616.7
54708.4,33603.4
54721.7,33592.5
55239.4,33074.8
54969.1,33074.8
54940.9,33170.9
54840.3,33218.5
54732.4,33245.5
54621.2,33251
54511.2,33234.7
54406.4,33197.2
54357.1,33170.9
54328.9,33074.8
54649,32754.7
54969.1,33074.8
55239.4,33074.8
55350.6,32963.7
55350.6,32711.8
55216,32711.8
55199.7,32821.8
55162.2,32926.6
55135.9,32975.9
55039.8,33004.1
54719.7,32684
55039.8,32363.9
55135.9,32392.1
55183.5,32492.7
55210.5,32600.6
55216,32711.8
55350.6,32711.8
55350.6,32293.2
54969.1,32293.2
54649,32613.3
54328.9,32293.2
54357.1,32197.1
54457.7,32149.5
54565.6,32122.5
54676.8,32117
54786.8,32133.3
54891.6,32170.8
54940.9,32197.1
54969.1,32293.2
55350.6,32293.2
55350.6,32064.9
55335,32063.3
55287.9,32049
55244.5,32025.8
55206.4,31994.6
55175.2,31956.5
55152,31913.1
55137.7,31866
55132.8,31817
55132.8,31187
55137.7,31138
55152,31090.9
55175.2,31047.5
55206.4,31009.4
55244.5,30978.2
55287.9,30955
55335,30940.7
55384,30935.8
56014,30935.8
56063,30940.7
56110.1,30955
56153.5,30978.2
56191.6,31009.4
56222.8,31047.5
56246,31090.9
56260.3,31138
56260.7,31141.4
56338.9,31063.2
56431.4,31001.3
56534.2,30958.8
56643.4,30937
56754.6,30937
56863.8,30958.8
56966.6,31001.3
57059.1,31063.2
57137.8,31141.9
57182.8,31209.2
57182.8,31187
57187.7,31138
57202,31090.9
57225.2,31047.5
57256.4,31009.4
57294.5,30978.2
57337.9,30955
57385,30940.7
57434,30935.8
58064,30935.8
58113,30940.7
58160.1,30955
58203.5,30978.2
58241.6,31009.4
58272.8,31047.5
58296,31090.9
58310.3,31138
58310.7,31141.4
58388.9,31063.2
58481.4,31001.3
58584.2,30958.8
58693.4,30937
58804.6,30937
58913.8,30958.8
59016.6,31001.3
59109.1,31063.2
59187.8,31141.9
59249.7,31234.4
59292.2,31337.2
59314,31446.4
59314,31557.6
59292.2,31666.8
59287.3,31678.8
59732.8,31233.2
59732.8,30720
59737.7,30671
59752,30623.9
59775.2,30580.5
59806.4,30542.4
59844.5,30511.2
59887.9,30488
59935,30473.7
59984,30468.8
59991.5,30468.8
59978.9,30425.8
60299,30105.7
60619.1,30425.8
60606.5,30468.8
60614,30468.8
60663,30473.7
60710.1,30488
60753.5,30511.2
60791.6,30542.4
60822.8,30580.5
60846,30623.9
60860.3,30671
60865.2,30720
60865.2,31350
60860.3,31399
60846,31446.1
60822.8,31489.5
60791.6,31527.6
60753.5,31558.8
60710.1,31582
60663,31596.3
60630.4,31599.5
60616.5,31616.5
60599.4,31630.5
60556,31674
60607.7,31649.5
60715.6,31622.5
60826.8,31617
60936.8,31633.3
61041.6,31670.8
61090.9,31697.1
61119.1,31793.2
60799,32113.3
60793.4,32107.7
60722.7,32178.4
60728.3,32184
60408.2,32504.1
60312.1,32475.9
60264.5,32375.3
60237.5,32267.4
60232,32156.2
60248.3,32046.2
60284.2,31945.7
59371.9,32858
59407.6,32858
59516.8,32879.8
59619.6,32922.3
59712.1,32984.2
59790.8,33062.9
59852.7,33155.4
59895.2,33258.2
59917,33367.4
59917,33478.6
59895.2,33587.8
59890.2,33600.1
60232.8,33257.4
60232.8,32869
60237.7,32820
60252,32772.9
60275.2,32729.5
60306.4,32691.4
60344.5,32660.2
60387.9,32637
60435,32622.7
60484,32617.8
60491.5,32617.8
60478.9,32574.8
60799,32254.7
61119.1,32574.8
61106.5,32617.8
61114,32617.8
61163,32622.7
61210.1,32637
61253.5,32660.2
61291.6,32691.4
61322.8,32729.5
61346,32772.9
61360.3,32820
61365.2,32869
61365.2,33499
61360.3,33548
61346,33595.1
61322.8,33638.5
61291.6,33676.6
61253.5,33707.8
61210.1,33731
61163,33745.3
61114,33750.2
60725.6,33750.2
60681.9,33793.9
60687.4,33796.8
60734.4,33835.4
60773,33882.4
60801.7,33936.1
60819.4,33994.3
60825.3,34054.8
60825.3,34743.8
60819.4,34804.3
60801.7,34862.5
60773,34916.2
60734.4,34963.2
60734,34963.6
62058.9,34963.6
62076,34961.9
62093.1,34963.6
62093.1,34963.6
62144.3,34968.6
62155.3,34972
62155.3,34971.6
62180,34847.2
62228.6,34730.1
62299,34624.7
62388.7,34535
62388.7,34535
62388.7,34535
62299,34445.3
62228.6,34339.9
62180,34222.8
62155.3,34098.4
62155.3,33971.6
62180,33847.2
62228.6,33730.1
62299,33624.7
62388.7,33535
62388.7,33535
62388.7,33535
62299,33445.3
62228.6,33339.9
62180,33222.8
62155.3,33098.4
62155.3,32971.6
62180,32847.2
62228.6,32730.1
62299,32624.7
62388.7,32535
62388.7,32535
62388.7,32535
62299,32445.3
62228.6,32339.9
62180,32222.8
62177.8,32211.8
61366,32211.8
61349.7,32321.8
61312.2,32426.6
61285.9,32475.9
61189.8,32504.1
60869.7,32184
61189.8,31863.9
61285.9,31892.1
61333.5,31992.7
61360.5,32100.6
61366,32211.8
62177.8,32211.8
62155.3,32098.4
62155.3,31971.6
62180,31847.2
62228.6,31730.1
62299,31624.7
62388.7,31535
62494.1,31464.6
62607,31417.8
62596.7,31413.5
62526.7,31366.8
62467.2,31307.3
62420.5,31237.3
62388.3,31159.6
62371.8,31077.1
62371.8,30992.9
62388.3,30910.4
62420.5,30832.7
62467.2,30762.7
62526.7,30703.2
62596.7,30656.5
62674.4,30624.3
62756.9,30607.8
62841.1,30607.8
62923.6,30624.3
63001.3,30656.5
63071.3,30703.2
63130.8,30762.7
63177.5,30832.7
63209.7,30910.4
63226.2,30992.9
63226.2,31077.1
63209.7,31159.6
63177.5,31237.3
63130.8,31307.3
63071.3,31366.8
63001.3,31413.5
62991,31417.8
63103.9,31464.6
63209.3,31535
63299,31624.7
63369.4,31730.1
63418,31847.2
63442.7,31971.6
63442.7,32098.4
63418,32222.8
63369.4,32339.9
63299,32445.3
63209.3,32535
63209.3,32535
63209.3,32535
63299,32624.7
63369.4,32730.1
63418,32847.2
63442.7,32971.6
63442.7,33098.4
63418,33222.8
63369.4,33339.9
63299,33445.3
63209.3,33535
63209.3,33535
63209.3,33535
63299,33624.7
63369.4,33730.1
63418,33847.2
63442.7,33971.6
63442.7,34098.4
63418,34222.8
63369.4,34339.9
63299,34445.3
63209.3,34535
63209.3,34535
63209.3,34535
63299,34624.7
63369.4,34730.1
63418,34847.2
63442.7,34971.6
63442.7,35098.4
63418,35222.8
63369.4,35339.9
63299,35445.3
63209.3,35535
63209.3,35535
63209.3,35535
63299,35624.7
63369.4,35730.1
63418,35847.2
63442.7,35971.6
63442.7,36098.4
63418,36222.8
63369.4,36339.9
63299,36445.3
63209.3,36535
63209.3,36535
63209.3,36535
63299,36624.7
63369.4,36730.1
63418,36847.2
63442.7,36971.6
63442.7,37098.4
63418,37222.8
63369.4,37339.9
63299,37445.3
63209.3,37535
63103.9,37605.4
62986.8,37654
62862.4,37678.7
62735.6,37678.7
62611.2,37654
62494.1,37605.4
62388.7,37535
62299,37445.3
62299,37445.3
62299,37445.3
62209.3,37535
62103.9,37605.4
61986.8,37654
61862.4,37678.7
61735.6,37678.7
61611.2,37654
61494.1,37605.4
61388.7,37535
61299,37445.3
61257.6,37383.4
61198.3,37383.4
61106.5,37475.3
61095.6,37488.6
61042.5,37532.1
60982,37564.5
60916.3,37584.4
60865.1,37589.4
60865.1,37589.4
60848,37591.1
60830.9,37589.4
60797.4,37589.4
60801.7,37597.5
60819.4,37655.7
60825.3,37716.2
60825.3,38405.2
60819.4,38465.7
60804.4,38515
60804.4,39594.9
60806.1,39612
60799.4,39680.3
60779.5,39746
60747.1,39806.5
60714.5,39846.3
60714.5,39846.3
60703.6,39859.6
60690.3,39870.5
60645.6,39915.2
60645.6,39989.5
60743.4,39970
60854.6,39970
60963.8,39991.8
61066.6,40034.3
61159.1,40096.2
61202.1,40139.1
61191.8,40035
61203.1,39920.4
61236.6,39810.2
61290.8,39708.6
61363.9,39619.6
61452.9,39546.5
61554.5,39492.2
61664.7,39458.8
61750.6,39450.4
61847.4,39450.4
61933.3,39458.8
62043.5,39492.2
62145.1,39546.5
62234.1,39619.6
62271.7,39665.5
62299,39624.7
62388.7,39535
62494.1,39464.6
62611.2,39416
62735.6,39391.3
62862.4,39391.3
62986.8,39416
63103.9,39464.6
63209.3,39535
63299,39624.7
63369.4,39730.1
63418,39847.2
63442.7,39971.6
63442.7,40098.4
63418,40222.8
63369.4,40339.9
63299,40445.3
63209.3,40535
63166.2,40563.8
63234.1,40619.6
63307.2,40708.6
63361.4,40810.2
63394.9,40920.4
63406.2,41035
63394.9,41149.6
63361.4,41259.8
63307.2,41361.4
63234.1,41450.4
63145.1,41523.5
63123.5,41535
63145.1,41546.5
63234.1,41619.6
63307.2,41708.6
63361.4,41810.2
63394.9,41920.4
63406.2,42035
63394.9,42149.6
63361.4,42259.8
63307.2,42361.4
63234.1,42450.4
63166.2,42506.2
63209.3,42535
63299,42624.7
63369.4,42730.1
63418,42847.2
63442.7,42971.6
63442.7,43098.4
63418,43222.8
63369.4,43339.9
63299,43445.3
63209.3,43535
63103.9,43605.4
62986.8,43654
62862.4,43678.7
62735.6,43678.7
62662.6,43664.2
62344.5,43982.3
62334.7,43994.2
64129.2,43994.2
64129.2,29992.9
63226.2,29992.9
63226.2,30077.1
63209.7,30159.6
63177.5,30237.3
63130.8,30307.3
63071.3,30366.8
63001.3,30413.5
62923.6,30445.7
62841.1,30462.2
62756.9,30462.2
62674.4,30445.7
62596.7,30413.5
62526.7,30366.8
62467.2,30307.3
62420.5,30237.3
62388.3,30159.6
62371.8,30077.1
62371.8,30062.8
60866,30062.8
60849.7,30172.8
60812.2,30277.6
60785.9,30326.9
60689.8,30355.1
60369.7,30035
60228.3,30035
59908.2,30355.1
59812.1,30326.9
59764.5,30226.3
59737.5,30118.4
59732,30007.2
59748.3,29897.2
59785.8,29792.4
59812.1,29743.1
59908.2,29714.9
60228.3,30035
60369.7,30035
60689.8,29714.9
60785.9,29743.1
60833.5,29843.7
60860.5,29951.6
60866,30062.8
62371.8,30062.8
62371.8,29992.9
62388.3,29910.4
62420.5,29832.7
62467.2,29762.7
62526.7,29703.2
62596.7,29656.5
62674.4,29624.3
62756.9,29607.8
62841.1,29607.8
62923.6,29624.3
63001.3,29656.5
63071.3,29703.2
63130.8,29762.7
63177.5,29832.7
63209.7,29910.4
63226.2,29992.9
64129.2,29992.9
64129.2,29583.8
60601.4,29583.8
Z" /> 
<path style="fill:#FFFFFF; fill-opacity:1.0; 
stroke:#FFFFFF; stroke-width:100; stroke-opacity:1; 
stroke-linecap:round; stroke-linejoin:round;fill-rule:evenodd;"
d="M 57137.8,31862.1
57059.1,31940.8
56966.6,32002.7
56863.8,32045.2
56754.6,32067
56643.4,32067
56534.2,32045.2
56431.4,32002.7
56338.9,31940.8
56260.7,31862.6
56260.3,31866
56246,31913.1
56222.8,31956.5
56191.6,31994.6
56153.5,32025.8
56110.1,32049
56063,32063.3
56047.4,32064.9
56047.4,32836.3
56096.7,32821.9
56416.8,33142
56096.7,33462.1
56000.6,33433.9
55957.3,33342.4
55946.6,33355.6
55933.3,33366.5
55551.6,33748.1
55575.6,33750.5
55633.8,33768.2
55687.4,33796.8
55706,33812.1
55724.6,33796.8
55778.2,33768.2
55836.4,33750.5
55896.9,33744.5
56015.1,33744.5
56075.6,33750.5
56133.8,33768.2
56174.3,33789.8
56176.7,33786.9
56197.5,33761.5
56197.5,33761.5
56208.4,33748.2
56221.7,33737.3
56288.3,33670.7
56244.9,33655.2
56195.6,33628.9
56167.4,33532.8
56487.5,33212.7
56493.1,33218.3
56563.8,33147.6
56558.2,33142
56878.3,32821.9
56974.4,32850.1
57017.6,32941.4
57207.8,32751.2
56807.6,32751.2
56487.5,33071.3
56167.4,32751.2
56195.6,32655.1
56296.2,32607.5
56404.1,32580.5
56515.3,32575
56625.3,32591.3
56730.1,32628.8
56779.4,32655.1
56807.6,32751.2
57207.8,32751.2
57400.6,32558.4
57400.6,32064.9
57385,32063.3
57337.9,32049
57294.5,32025.8
57256.4,31994.6
57225.2,31956.5
57202,31913.1
57187.7,31866
57182.8,31817
57182.8,31794.8
Z" /> 
</g>
</g>
<g style="fill:#000000; fill-opacity:1.0; 
stroke:#000000; stroke-width:100; stroke-opacity:1; 
stroke-linecap:round; stroke-linejoin:round;">
</g>
<g style="fill:#000000; fill-opacity:1.0; 
stroke:#000000; stroke-width:0; stroke-opacity:1; 
stroke-linecap:round; stroke-linejoin:round;">
<circle cx="59352" cy="33423" r="98.4252" /> 
</g>
<g style="fill:#000000; fill-opacity:1.0; 
stroke:#000000; stroke-width:39.3701; stroke-opacity:1; 
stroke-linecap:round; stroke-linejoin:round;">
</g>
<g style="fill:#000000; fill-opacity:1.0; 
stroke:#000000; stroke-width:0; stroke-opacity:1; 
stroke-linecap:round; stroke-linejoin:round;">
<circle cx="58456" cy="33142" r="157.48" /> 
</g>
<g style="fill:#000000; fill-opacity:1.0; 
stroke:#000000; stroke-width:39.3701; stroke-opacity:1; 
stroke-linecap:round; stroke-linejoin:round;">
</g>
<g style="fill:#000000; fill-opacity:1.0; 
stroke:#000000; stroke-width:0; stroke-opacity:1; 
stroke-linecap:round; stroke-linejoin:round;">
<circle cx="56487.5" cy="33142" r="157.48" /> 
</g>
<g style="fill:#000000; fill-opacity:1.0; 
stroke:#000000; stroke-width:39.3701; stroke-opacity:1; 
stroke-linecap:round; stroke-linejoin:round;">
</g>
<g style="fill:#000000; fill-opacity:1.0; 
stroke:#000000; stroke-width:0; stroke-opacity:1; 
stroke-linecap:round; stroke-linejoin:round;">
<circle cx="59799" cy="40535" r="157.48" /> 
</g>
<g style="fill:#000000; fill-opacity:1.0; 
stroke:#000000; stroke-width:39.3701; stroke-opacity:1; 
stroke-linecap:round; stroke-linejoin:round;">
</g>
<g style="fill:#000000; fill-opacity:1.0; 
stroke:#000000; stroke-width:0; stroke-opacity:1; 
stroke-linecap:round; stroke-linejoin:round;">
<circle cx="60799" cy="40535" r="157.48" /> 
</g>
<g style="fill:#000000; fill-opacity:1.0; 
stroke:#000000; stroke-width:39.3701; stroke-opacity:1; 
stroke-linecap:round; stroke-linejoin:round;">
</g>
<g style="fill:#000000; fill-opacity:1.0; 
stroke:#000000; stroke-width:0; stroke-opacity:1; 
stroke-linecap:round; stroke-linejoin:round;">
<circle cx="57749" cy="31502" r="157.48" /> 
</g>
<g style="fill:#000000; fill-opacity:1.0; 
stroke:#000000; stroke-width:39.3701; stroke-opacity:1; 
stroke-linecap:round; stroke-linejoin:round;">
</g>
<g style="fill:#000000; fill-opacity:1.0; 
stroke:#000000; stroke-width:0; stroke-opacity:1; 
stroke-linecap:round; stroke-linejoin:round;">
<circle cx="58749" cy="31502" r="157.48" /> 
</g>
<g style="fill:#000000; fill-opacity:1.0; 
stroke:#000000; stroke-width:39.3701; stroke-opacity:1; 
stroke-linecap:round; stroke-linejoin:round;">
</g>
<g style="fill:#000000; fill-opacity:1.0; 
stroke:#000000; stroke-width:0; stroke-opacity:1; 
stroke-linecap:round; stroke-linejoin:round;">
<circle cx="58249" cy="40035" r="157.48" /> 
</g>
<g style="fill:#000000; fill-opacity:1.0; 
stroke:#000000; stroke-width:39.3701; stroke-opacity:1; 
stroke-linecap:round; stroke-linejoin:round;">
</g>
<g style="fill:#000000; fill-opacity:1.0; 
stroke:#000000; stroke-width:0; stroke-opacity:1; 
stroke-linecap:round; stroke-linejoin:round;">
<circle cx="58249" cy="41035" r="157.48" /> 
</g>
<g style="fill:#000000; fill-opacity:1.0; 
stroke:#000000; stroke-width:39.3701; stroke-opacity:1; 
stroke-linecap:round; stroke-linejoin:round;">
</g>
<g style="fill:#000000; fill-opacity:1.0; 
stroke:#000000; stroke-width:0; stroke-opacity:1; 
stroke-linecap:round; stroke-linejoin:round;">
<circle cx="59799" cy="42585" r="157.48" /> 
</g>
<g style="fill:#000000; fill-opacity:1.0; 
stroke:#000000; stroke-width:39.3701; stroke-opacity:1; 
stroke-linecap:round; stroke-linejoin:round;">
</g>
<g style="fill:#000000; fill-opacity:1.0; 
stroke:#000000; stroke-width:0; stroke-opacity:1; 
stroke-linecap:round; stroke-linejoin:round;">
<circle cx="60799" cy="42585" r="157.48" /> 
</g>
<g style="fill:#000000; fill-opacity:1.0; 
stroke:#000000; stroke-width:39.3701; stroke-opacity:1; 
stroke-linecap:round; stroke-linejoin:round;">
</g>
<g style="fill:#000000; fill-opacity:1.0; 
stroke:#000000; stroke-width:0; stroke-opacity:1; 
stroke-linecap:round; stroke-linejoin:round;">
<circle cx="56699" cy="40535" r="157.48" /> 
</g>
<g style="fill:#000000; fill-opacity:1.0; 
stroke:#000000; stroke-width:39.3701; stroke-opacity:1; 
stroke-linecap:round; stroke-linejoin:round;">
</g>
<g style="fill:#000000; fill-opacity:1.0; 
stroke:#000000; stroke-width:0; stroke-opacity:1; 
stroke-linecap:round; stroke-linejoin:round;">
<circle cx="55699" cy="40535" r="157.48" /> 
</g>
<g style="fill:#000000; fill-opacity:1.0; 
stroke:#000000; stroke-width:39.3701; stroke-opacity:1; 
stroke-linecap:round; stroke-linejoin:round;">
</g>
<g style="fill:#000000; fill-opacity:1.0; 
stroke:#000000; stroke-width:0; stroke-opacity:1; 
stroke-linecap:round; stroke-linejoin:round;">
<circle cx="61799" cy="37035" r="177.165" /> 
</g>
<g style="fill:#000000; fill-opacity:1.0; 
stroke:#000000; stroke-width:39.3701; stroke-opacity:1; 
stroke-linecap:round; stroke-linejoin:round;">
</g>
<g style="fill:#000000; fill-opacity:1.0; 
stroke:#000000; stroke-width:0; stroke-opacity:1; 
stroke-linecap:round; stroke-linejoin:round;">
<circle cx="62799" cy="37035" r="177.165" /> 
</g>
<g style="fill:#000000; fill-opacity:1.0; 
stroke:#000000; stroke-width:39.3701; stroke-opacity:1; 
stroke-linecap:round; stroke-linejoin:round;">
</g>
<g style="fill:#000000; fill-opacity:1.0; 
stroke:#000000; stroke-width:0; stroke-opacity:1; 
stroke-linecap:round; stroke-linejoin:round;">
<circle cx="61799" cy="36035" r="177.165" /> 
</g>
<g style="fill:#000000; fill-opacity:1.0; 
stroke:#000000; stroke-width:39.3701; stroke-opacity:1; 
stroke-linecap:round; stroke-linejoin:round;">
</g>
<g style="fill:#000000; fill-opacity:1.0; 
stroke:#000000; stroke-width:0; stroke-opacity:1; 
stroke-linecap:round; stroke-linejoin:round;">
<circle cx="62799" cy="36035" r="177.165" /> 
</g>
<g style="fill:#000000; fill-opacity:1.0; 
stroke:#000000; stroke-width:39.3701; stroke-opacity:1; 
stroke-linecap:round; stroke-linejoin:round;">
</g>
<g style="fill:#000000; fill-opacity:1.0; 
stroke:#000000; stroke-width:0; stroke-opacity:1; 
stroke-linecap:round; stroke-linejoin:round;">
<circle cx="60299" cy="30035" r="157.48" /> 
</g>
<g style="fill:#000000; fill-opacity:1.0; 
stroke:#000000; stroke-width:39.3701; stroke-opacity:1; 
stroke-linecap:round; stroke-linejoin:round;">
</g>
<g style="fill:#000000; fill-opacity:1.0; 
stroke:#000000; stroke-width:0; stroke-opacity:1; 
stroke-linecap:round; stroke-linejoin:round;">
<circle cx="60299" cy="31035" r="157.48" /> 
</g>
<g style="fill:#000000; fill-opacity:1.0; 
stroke:#000000; stroke-width:39.3701; stroke-opacity:1; 
stroke-linecap:round; stroke-linejoin:round;">
</g>
<g style="fill:#000000; fill-opacity:1.0; 
stroke:#000000; stroke-width:0; stroke-opacity:1; 
stroke-linecap:round; stroke-linejoin:round;">
<circle cx="55699" cy="31502" r="157.48" /> 
</g>
<g style="fill:#000000; fill-opacity:1.0; 
stroke:#000000; stroke-width:39.3701; stroke-opacity:1; 
stroke-linecap:round; stroke-linejoin:round;">
</g>
<g style="fill:#000000; fill-opacity:1.0; 
stroke:#000000; stroke-width:0; stroke-opacity:1; 
stroke-linecap:round; stroke-linejoin:round;">
<circle cx="56699" cy="31502" r="157.48" /> 
</g>
<g style="fill:#000000; fill-opacity:1.0; 
stroke:#000000; stroke-width:39.3701; stroke-opacity:1; 
stroke-linecap:round; stroke-linejoin:round;">
</g>
<g style="fill:#000000; fill-opacity:1.0; 
stroke:#000000; stroke-width:0; stroke-opacity:1; 
stroke-linecap:round; stroke-linejoin:round;">
<circle cx="54649" cy="32684" r="157.48" /> 
</g>
<g style="fill:#000000; fill-opacity:1.0; 
stroke:#000000; stroke-width:39.3701; stroke-opacity:1; 
stroke-linecap:round; stroke-linejoin:round;">
</g>
<g style="fill:#000000; fill-opacity:1.0; 
stroke:#000000; stroke-width:0; stroke-opacity:1; 
stroke-linecap:round; stroke-linejoin:round;">
<circle cx="53649" cy="32684" r="157.48" /> 
</g>
<g style="fill:#000000; fill-opacity:1.0; 
stroke:#000000; stroke-width:39.3701; stroke-opacity:1; 
stroke-linecap:round; stroke-linejoin:round;">
</g>
<g style="fill:#000000; fill-opacity:1.0; 
stroke:#000000; stroke-width:0; stroke-opacity:1; 
stroke-linecap:round; stroke-linejoin:round;">
<circle cx="62799" cy="35035" r="177.165" /> 
</g>
<g style="fill:#000000; fill-opacity:1.0; 
stroke:#000000; stroke-width:39.3701; stroke-opacity:1; 
stroke-linecap:round; stroke-linejoin:round;">
</g>
<g style="fill:#000000; fill-opacity:1.0; 
stroke:#000000; stroke-width:0; stroke-opacity:1; 
stroke-linecap:round; stroke-linejoin:round;">
<circle cx="62799" cy="34035" r="177.165" /> 
</g>
<g style="fill:#000000; fill-opacity:1.0; 
stroke:#000000; stroke-width:39.3701; stroke-opacity:1; 
stroke-linecap:round; stroke-linejoin:round;">
</g>
<g style="fill:#000000; fill-opacity:1.0; 
stroke:#000000; stroke-width:0; stroke-opacity:1; 
stroke-linecap:round; stroke-linejoin:round;">
<circle cx="62799" cy="40035" r="177.165" /> 
</g>
<g style="fill:#000000; fill-opacity:1.0; 
stroke:#000000; stroke-width:39.3701; stroke-opacity:1; 
stroke-linecap:round; stroke-linejoin:round;">
</g>
<g style="fill:#000000; fill-opacity:1.0; 
stroke:#000000; stroke-width:0; stroke-opacity:1; 
stroke-linecap:round; stroke-linejoin:round;">
<circle cx="61799" cy="40035" r="177.165" /> 
</g>
<g style="fill:#000000; fill-opacity:1.0; 
stroke:#000000; stroke-width:39.3701; stroke-opacity:1; 
stroke-linecap:round; stroke-linejoin:round;">
</g>
<g style="fill:#000000; fill-opacity:1.0; 
stroke:#000000; stroke-width:0; stroke-opacity:1; 
stroke-linecap:round; stroke-linejoin:round;">
<circle cx="62799" cy="41035" r="177.165" /> 
</g>
<g style="fill:#000000; fill-opacity:1.0; 
stroke:#000000; stroke-width:39.3701; stroke-opacity:1; 
stroke-linecap:round; stroke-linejoin:round;">
</g>
<g style="fill:#000000; fill-opacity:1.0; 
stroke:#000000; stroke-width:0; stroke-opacity:1; 
stroke-linecap:round; stroke-linejoin:round;">
<circle cx="61799" cy="41035" r="177.165" /> 
</g>
<g style="fill:#000000; fill-opacity:1.0; 
stroke:#000000; stroke-width:39.3701; stroke-opacity:1; 
stroke-linecap:round; stroke-linejoin:round;">
</g>
<g style="fill:#000000; fill-opacity:1.0; 
stroke:#000000; stroke-width:0; stroke-opacity:1; 
stroke-linecap:round; stroke-linejoin:round;">
<circle cx="62799" cy="42035" r="177.165" /> 
</g>
<g style="fill:#000000; fill-opacity:1.0; 
stroke:#000000; stroke-width:39.3701; stroke-opacity:1; 
stroke-linecap:round; stroke-linejoin:round;">
</g>
<g style="fill:#000000; fill-opacity:1.0; 
stroke:#000000; stroke-width:0; stroke-opacity:1; 
stroke-linecap:round; stroke-linejoin:round;">
<circle cx="61799" cy="42035" r="177.165" /> 
</g>
<g style="fill:#000000; fill-opacity:1.0; 
stroke:#000000; stroke-width:39.3701; stroke-opacity:1; 
stroke-linecap:round; stroke-linejoin:round;">
</g>
<g style="fill:#000000; fill-opacity:1.0; 
stroke:#000000; stroke-width:0; stroke-opacity:1; 
stroke-linecap:round; stroke-linejoin:round;">
<circle cx="62799" cy="43035" r="177.165" /> 
</g>
<g style="fill:#000000; fill-opacity:1.0; 
stroke:#000000; stroke-width:39.3701; stroke-opacity:1; 
stroke-linecap:round; stroke-linejoin:round;">
</g>
<g style="fill:#000000; fill-opacity:1.0; 
stroke:#000000; stroke-width:0; stroke-opacity:1; 
stroke-linecap:round; stroke-linejoin:round;">
<circle cx="61799" cy="43035" r="177.165" /> 
</g>
<g style="fill:#000000; fill-opacity:1.0; 
stroke:#000000; stroke-width:39.3701; stroke-opacity:1; 
stroke-linecap:round; stroke-linejoin:round;">
</g>
<g style="fill:#000000; fill-opacity:1.0; 
stroke:#000000; stroke-width:0; stroke-opacity:1; 
stroke-linecap:round; stroke-linejoin:round;">
<circle cx="56699" cy="42585" r="157.48" /> 
</g>
<g style="fill:#000000; fill-opacity:1.0; 
stroke:#000000; stroke-width:39.3701; stroke-opacity:1; 
stroke-linecap:round; stroke-linejoin:round;">
</g>
<g style="fill:#000000; fill-opacity:1.0; 
stroke:#000000; stroke-width:0; stroke-opacity:1; 
stroke-linecap:round; stroke-linejoin:round;">
<circle cx="55699" cy="42585" r="157.48" /> 
</g>
<g style="fill:#000000; fill-opacity:1.0; 
stroke:#000000; stroke-width:39.3701; stroke-opacity:1; 
stroke-linecap:round; stroke-linejoin:round;">
</g>
<g style="fill:#000000; fill-opacity:1.0; 
stroke:#000000; stroke-width:0; stroke-opacity:1; 
stroke-linecap:round; stroke-linejoin:round;">
<circle cx="54149" cy="40035" r="157.48" /> 
</g>
<g style="fill:#000000; fill-opacity:1.0; 
stroke:#000000; stroke-width:39.3701; stroke-opacity:1; 
stroke-linecap:round; stroke-linejoin:round;">
</g>
<g style="fill:#000000; fill-opacity:1.0; 
stroke:#000000; stroke-width:0; stroke-opacity:1; 
stroke-linecap:round; stroke-linejoin:round;">
<circle cx="54149" cy="41035" r="157.48" /> 
</g>
<g style="fill:#000000; fill-opacity:1.0; 
stroke:#000000; stroke-width:39.3701; stroke-opacity:1; 
stroke-linecap:round; stroke-linejoin:round;">
</g>
<g style="fill:#000000; fill-opacity:1.0; 
stroke:#000000; stroke-width:0; stroke-opacity:1; 
stroke-linecap:round; stroke-linejoin:round;">
<circle cx="60799" cy="32184" r="157.48" /> 
</g>
<g style="fill:#000000; fill-opacity:1.0; 
stroke:#000000; stroke-width:39.3701; stroke-opacity:1; 
stroke-linecap:round; stroke-linejoin:round;">
</g>
<g style="fill:#000000; fill-opacity:1.0; 
stroke:#000000; stroke-width:0; stroke-opacity:1; 
stroke-linecap:round; stroke-linejoin:round;">
<circle cx="60799" cy="33184" r="157.48" /> 
</g>
<g style="fill:#000000; fill-opacity:1.0; 
stroke:#000000; stroke-width:39.3701; stroke-opacity:1; 
stroke-linecap:round; stroke-linejoin:round;">
</g>
<g style="fill:#000000; fill-opacity:1.0; 
stroke:#000000; stroke-width:0; stroke-opacity:1; 
stroke-linecap:round; stroke-linejoin:round;">
<circle cx="62799" cy="30035" r="177.165" /> 
</g>
<g style="fill:#000000; fill-opacity:1.0; 
stroke:#000000; stroke-width:39.3701; stroke-opacity:1; 
stroke-linecap:round; stroke-linejoin:round;">
</g>
<g style="fill:#000000; fill-opacity:1.0; 
stroke:#000000; stroke-width:0; stroke-opacity:1; 
stroke-linecap:round; stroke-linejoin:round;">
<circle cx="62799" cy="31035" r="177.165" /> 
</g>
<g style="fill:#000000; fill-opacity:1.0; 
stroke:#000000; stroke-width:39.3701; stroke-opacity:1; 
stroke-linecap:round; stroke-linejoin:round;">
</g>
<g style="fill:#000000; fill-opacity:1.0; 
stroke:#000000; stroke-width:0; stroke-opacity:1; 
stroke-linecap:round; stroke-linejoin:round;">
<circle cx="62799" cy="32035" r="177.165" /> 
</g>
<g style="fill:#000000; fill-opacity:1.0; 
stroke:#000000; stroke-width:39.3701; stroke-opacity:1; 
stroke-linecap:round; stroke-linejoin:round;">
</g>
<g style="fill:#000000; fill-opacity:1.0; 
stroke:#000000; stroke-width:0; stroke-opacity:1; 
stroke-linecap:round; stroke-linejoin:round;">
<circle cx="62799" cy="33035" r="177.165" /> 
</g>
<g style="fill:#000000; fill-opacity:1.0; 
stroke:#000000; stroke-width:39.3701; stroke-opacity:1; 
stroke-linecap:round; stroke-linejoin:round;">
</g>
<g style="fill:#000000; fill-opacity:1.0; 
stroke:#000000; stroke-width:0; stroke-opacity:1; 
stroke-linecap:round; stroke-linejoin:round;">
<circle cx="54149" cy="42085" r="157.48" /> 
</g>
<g style="fill:#000000; fill-opacity:1.0; 
stroke:#000000; stroke-width:39.3701; stroke-opacity:1; 
stroke-linecap:round; stroke-linejoin:round;">
</g>
<g style="fill:#000000; fill-opacity:1.0; 
stroke:#000000; stroke-width:0; stroke-opacity:1; 
stroke-linecap:round; stroke-linejoin:round;">
<circle cx="54149" cy="43085" r="157.48" /> 
</g>
<g style="fill:#000000; fill-opacity:1.0; 
stroke:#000000; stroke-width:39.3701; stroke-opacity:1; 
stroke-linecap:round; stroke-linejoin:round;">
</g>
<g style="fill:#000000; fill-opacity:1.0; 
stroke:#000000; stroke-width:0; stroke-opacity:1; 
stroke-linecap:round; stroke-linejoin:round;">
<circle cx="57749" cy="42585" r="157.48" /> 
</g>
<g style="fill:#000000; fill-opacity:1.0; 
stroke:#000000; stroke-width:39.3701; stroke-opacity:1; 
stroke-linecap:round; stroke-linejoin:round;">
</g>
<g style="fill:#000000; fill-opacity:1.0; 
stroke:#000000; stroke-width:0; stroke-opacity:1; 
stroke-linecap:round; stroke-linejoin:round;">
<circle cx="58749" cy="42585" r="157.48" /> 
</g>
<g style="fill:#000000; fill-opacity:1.0; 
stroke:#000000; stroke-width:39.3701; stroke-opacity:1; 
stroke-linecap:round; stroke-linejoin:round;">
</g>
<g style="fill:#FFFFFF; fill-opacity:1.0; 
stroke:#FFFFFF; stroke-width:39.3701; stroke-opacity:1; 
stroke-linecap:round; stroke-linejoin:round;">
</g> 
</svg>
