<?xml version="1.0" standalone="no"?>
 <!DOCTYPE svg PUBLIC "-//W3C//DTD SVG 1.1//EN" 
 "http://www.w3.org/Graphics/SVG/1.1/DTD/svg11.dtd"> 
<svg xmlns="http://www.w3.org/2000/svg" version="1.1" 
    width="29.7002cm" height="21.0007cm" viewBox="0 0 116930 82680 ">
<title>SVG Picture created as ActiveSpeakers_KiCad-B_Cu.svg date 2020/11/08 19:42:16 </title>
  <desc>Picture generated by PCBNEW </desc>
<g style="fill:#000000; fill-opacity:1;stroke:#000000; stroke-opacity:1;
stroke-linecap:round; stroke-linejoin:round; "
 transform="translate(0 0) scale(1 1)">
</g>
<g style="fill:#000000; fill-opacity:0.0; 
stroke:#000000; stroke-width:-0.000393701; stroke-opacity:1; 
stroke-linecap:round; stroke-linejoin:round;">
</g>
<g style="fill:#000000; fill-opacity:1.0; 
stroke:#000000; stroke-width:39.3701; stroke-opacity:1; 
stroke-linecap:round; stroke-linejoin:round;">
<rect x="52630.2" y="29631.7" width="10595.3" height="16220.2" rx="0" />
</g>
<g style="fill:#FFFFFF; fill-opacity:1.0; 
stroke:#FFFFFF; stroke-width:39.3701; stroke-opacity:1; 
stroke-linecap:round; stroke-linejoin:round;">
</g>
<g style="fill:#FFFFFF; fill-opacity:1.0; 
stroke:#FFFFFF; stroke-width:19.685; stroke-opacity:1; 
stroke-linecap:round; stroke-linejoin:round;">
</g>
<g style="fill:#FFFFFF; fill-opacity:0.0; 
stroke:#FFFFFF; stroke-width:19.685; stroke-opacity:1; 
stroke-linecap:round; stroke-linejoin:round;">
<path d="M55076 41307
L55076 31695
" />
<path d="M61247 31695
L55076 31695
" />
<path d="M61247 41307
L61247 31695
" />
<path d="M61247 41307
L55076 41307
" />
<g >
</g>
<g style="fill:#FFFFFF; fill-opacity:0.0; 
stroke:#FFFFFF; stroke-width:0; stroke-opacity:1; 
stroke-linecap:round; stroke-linejoin:round;">
</g>
<g style="fill:#FFFFFF; fill-opacity:1.0; 
stroke:#FFFFFF; stroke-width:0; stroke-opacity:1; 
stroke-linecap:round; stroke-linejoin:round;">
<path style="fill:#FFFFFF; fill-opacity:1.0; 
stroke:#FFFFFF; stroke-width:0; stroke-opacity:1; 
stroke-linecap:round; stroke-linejoin:round;fill-rule:evenodd;"
d="M 58798.5,34014.8
58483.5,34014.8
58483.5,33660.4
58798.5,33660.4
Z" /> 
<path style="fill:#FFFFFF; fill-opacity:1.0; 
stroke:#FFFFFF; stroke-width:0; stroke-opacity:1; 
stroke-linecap:round; stroke-linejoin:round;fill-rule:evenodd;"
d="M 58424.4,34802.2
58109.5,34802.2
58109.5,34447.8
58424.4,34447.8
Z" /> 
<path style="fill:#FFFFFF; fill-opacity:1.0; 
stroke:#FFFFFF; stroke-width:0; stroke-opacity:1; 
stroke-linecap:round; stroke-linejoin:round;fill-rule:evenodd;"
d="M 59172.5,34802.2
58857.5,34802.2
58857.5,34447.8
59172.5,34447.8
Z" /> 
</g>
<g >
</g>
<g style="fill:#FFFFFF; fill-opacity:1.0; 
stroke:#FFFFFF; stroke-width:0; stroke-opacity:1; 
stroke-linecap:round; stroke-linejoin:round;">
<circle cx="57008" cy="33832" r="275.591" /> 
</g>
<g style="fill:#FFFFFF; fill-opacity:1.0; 
stroke:#FFFFFF; stroke-width:39.3701; stroke-opacity:1; 
stroke-linecap:round; stroke-linejoin:round;">
</g>
<g style="fill:#FFFFFF; fill-opacity:1.0; 
stroke:#FFFFFF; stroke-width:0; stroke-opacity:1; 
stroke-linecap:round; stroke-linejoin:round;">
<circle cx="56260" cy="33832" r="275.591" /> 
</g>
<g style="fill:#FFFFFF; fill-opacity:1.0; 
stroke:#FFFFFF; stroke-width:39.3701; stroke-opacity:1; 
stroke-linecap:round; stroke-linejoin:round;">
</g>
<g >
</g>
<g style="fill:#FFFFFF; fill-opacity:1.0; 
stroke:#FFFFFF; stroke-width:39.3701; stroke-opacity:1; 
stroke-linecap:round; stroke-linejoin:round;">
</g>
<g style="fill:#FFFFFF; fill-opacity:1.0; 
stroke:#FFFFFF; stroke-width:0; stroke-opacity:1; 
stroke-linecap:round; stroke-linejoin:round;">
<path style="fill:#FFFFFF; fill-opacity:1.0; 
stroke:#FFFFFF; stroke-width:0; stroke-opacity:1; 
stroke-linecap:round; stroke-linejoin:round;fill-rule:evenodd;"
d="M 56735.7,36530.9
56745.2,36532.3
56754.6,36534.6
56763.7,36537.9
56772.4,36542
56780.7,36547
56788.5,36552.8
56795.6,36559.2
56802.1,36566.4
56807.9,36574.2
56812.8,36582.4
56817,36591.2
56820.2,36600.3
56822.6,36609.6
56824,36619.2
56824.5,36628.8
56824.5,36983.2
56824,36992.8
56822.6,37002.4
56820.2,37011.7
56817,37020.8
56812.8,37029.6
56807.9,37037.8
56802.1,37045.6
56795.6,37052.8
56788.5,37059.2
56780.7,37065
56772.4,37070
56763.7,37074.1
56754.6,37077.4
56745.2,37079.7
56735.7,37081.1
56726,37081.6
56470.1,37081.6
56460.5,37081.1
56450.9,37079.7
56441.6,37077.4
56432.5,37074.1
56423.7,37070
56415.5,37065
56407.7,37059.2
56400.5,37052.8
56394,37045.6
56388.3,37037.8
56383.3,37029.6
56379.2,37020.8
56375.9,37011.7
56373.6,37002.4
56372.2,36992.8
56371.7,36983.2
56371.7,36628.8
56372.2,36619.2
56373.6,36609.6
56375.9,36600.3
56379.2,36591.2
56383.3,36582.4
56388.3,36574.2
56394,36566.4
56400.5,36559.2
56407.7,36552.8
56415.5,36547
56423.7,36542
56432.5,36537.9
56441.6,36534.6
56450.9,36532.3
56460.5,36530.9
56470.1,36530.4
56726,36530.4
Z" /> 
<path style="fill:#FFFFFF; fill-opacity:1.0; 
stroke:#FFFFFF; stroke-width:0; stroke-opacity:1; 
stroke-linecap:round; stroke-linejoin:round;fill-rule:evenodd;"
d="M 55928.6,36530.9
55938.2,36532.3
55947.5,36534.6
55956.6,36537.9
55965.4,36542
55973.6,36547
55981.4,36552.8
55988.5,36559.2
55995,36566.4
56000.8,36574.2
56005.8,36582.4
56009.9,36591.2
56013.1,36600.3
56015.5,36609.6
56016.9,36619.2
56017.4,36628.8
56017.4,36983.2
56016.9,36992.8
56015.5,37002.4
56013.1,37011.7
56009.9,37020.8
56005.8,37029.6
56000.8,37037.8
55995,37045.6
55988.5,37052.8
55981.4,37059.2
55973.6,37065
55965.4,37070
55956.6,37074.1
55947.5,37077.4
55938.2,37079.7
55928.6,37081.1
55919,37081.6
55663,37081.6
55653.4,37081.1
55643.8,37079.7
55634.5,37077.4
55625.4,37074.1
55616.6,37070
55608.4,37065
55600.6,37059.2
55593.4,37052.8
55587,37045.6
55581.2,37037.8
55576.2,37029.6
55572.1,37020.8
55568.9,37011.7
55566.5,37002.4
55565.1,36992.8
55564.6,36983.2
55564.6,36628.8
55565.1,36619.2
55566.5,36609.6
55568.9,36600.3
55572.1,36591.2
55576.2,36582.4
55581.2,36574.2
55587,36566.4
55593.4,36559.2
55600.6,36552.8
55608.4,36547
55616.6,36542
55625.4,36537.9
55634.5,36534.6
55643.8,36532.3
55653.4,36530.9
55663,36530.4
55919,36530.4
Z" /> 
</g>
<g >
</g>
<g style="fill:#FFFFFF; fill-opacity:1.0; 
stroke:#FFFFFF; stroke-width:0; stroke-opacity:1; 
stroke-linecap:round; stroke-linejoin:round;">
<path style="fill:#FFFFFF; fill-opacity:1.0; 
stroke:#FFFFFF; stroke-width:0; stroke-opacity:1; 
stroke-linecap:round; stroke-linejoin:round;fill-rule:evenodd;"
d="M 57154,37277
57163.5,37278.4
57172.9,37280.8
57182,37284
57190.7,37288.1
57199,37293.1
57206.8,37298.9
57213.9,37305.3
57220.4,37312.5
57226.2,37320.3
57231.1,37328.5
57235.3,37337.3
57238.5,37346.4
57240.9,37355.7
57242.3,37365.3
57242.8,37374.9
57242.8,37867.1
57242.3,37876.7
57240.9,37886.3
57238.5,37895.6
57235.3,37904.7
57231.1,37913.5
57226.2,37921.7
57220.4,37929.5
57213.9,37936.7
57206.8,37943.1
57199,37948.9
57190.7,37953.9
57182,37958
57172.9,37961.2
57163.5,37963.6
57154,37965
57144.3,37965.5
56780.2,37965.5
56770.5,37965
56761,37963.6
56751.6,37961.2
56742.5,37958
56733.8,37953.9
56725.5,37948.9
56717.7,37943.1
56710.6,37936.7
56704.1,37929.5
56698.3,37921.7
56693.4,37913.5
56689.2,37904.7
56686,37895.6
56683.6,37886.3
56682.2,37876.7
56681.7,37867.1
56681.7,37374.9
56682.2,37365.3
56683.6,37355.7
56686,37346.4
56689.2,37337.3
56693.4,37328.5
56698.3,37320.3
56704.1,37312.5
56710.6,37305.3
56717.7,37298.9
56725.5,37293.1
56733.8,37288.1
56742.5,37284
56751.6,37280.8
56761,37278.4
56770.5,37277
56780.2,37276.5
57144.3,37276.5
Z" /> 
<path style="fill:#FFFFFF; fill-opacity:1.0; 
stroke:#FFFFFF; stroke-width:0; stroke-opacity:1; 
stroke-linecap:round; stroke-linejoin:round;fill-rule:evenodd;"
d="M 55982.7,37277
55992.3,37278.4
56001.7,37280.8
56010.8,37284
56019.5,37288.1
56027.8,37293.1
56035.5,37298.9
56042.7,37305.3
56049.2,37312.5
56054.9,37320.3
56059.9,37328.5
56064,37337.3
56067.3,37346.4
56069.6,37355.7
56071,37365.3
56071.5,37374.9
56071.5,37867.1
56071,37876.7
56069.6,37886.3
56067.3,37895.6
56064,37904.7
56059.9,37913.5
56054.9,37921.7
56049.2,37929.5
56042.7,37936.7
56035.5,37943.1
56027.8,37948.9
56019.5,37953.9
56010.8,37958
56001.7,37961.2
55992.3,37963.6
55982.7,37965
55973.1,37965.5
55608.9,37965.5
55599.3,37965
55589.7,37963.6
55580.3,37961.2
55571.2,37958
55562.5,37953.9
55554.2,37948.9
55546.5,37943.1
55539.3,37936.7
55532.8,37929.5
55527.1,37921.7
55522.1,37913.5
55518,37904.7
55514.7,37895.6
55512.4,37886.3
55511,37876.7
55510.5,37867.1
55510.5,37374.9
55511,37365.3
55512.4,37355.7
55514.7,37346.4
55518,37337.3
55522.1,37328.5
55527.1,37320.3
55532.8,37312.5
55539.3,37305.3
55546.5,37298.9
55554.2,37293.1
55562.5,37288.1
55571.2,37284
55580.3,37280.8
55589.7,37278.4
55599.3,37277
55608.9,37276.5
55973.1,37276.5
Z" /> 
</g>
<g >
</g>
<g style="fill:#FFFFFF; fill-opacity:1.0; 
stroke:#FFFFFF; stroke-width:0; stroke-opacity:1; 
stroke-linecap:round; stroke-linejoin:round;">
<path style="fill:#FFFFFF; fill-opacity:1.0; 
stroke:#FFFFFF; stroke-width:0; stroke-opacity:1; 
stroke-linecap:round; stroke-linejoin:round;fill-rule:evenodd;"
d="M 57201.6,35131.9
57211.2,35133.3
57220.5,35135.6
57229.6,35138.9
57238.4,35143
57246.6,35148
57254.4,35153.8
57261.5,35160.2
57268,35167.4
57273.8,35175.2
57278.8,35183.4
57282.9,35192.2
57286.1,35201.3
57288.5,35210.6
57289.9,35220.2
57290.4,35229.8
57290.4,35584.2
57289.9,35593.8
57288.5,35603.4
57286.1,35612.7
57282.9,35621.8
57278.8,35630.6
57273.8,35638.8
57268,35646.6
57261.5,35653.8
57254.4,35660.2
57246.6,35666
57238.4,35671
57229.6,35675.1
57220.5,35678.4
57211.2,35680.7
57201.6,35682.1
57192,35682.6
56936,35682.6
56926.4,35682.1
56916.8,35680.7
56907.5,35678.4
56898.4,35675.1
56889.6,35671
56881.4,35666
56873.6,35660.2
56866.4,35653.8
56860,35646.6
56854.2,35638.8
56849.2,35630.6
56845.1,35621.8
56841.9,35612.7
56839.5,35603.4
56838.1,35593.8
56837.6,35584.2
56837.6,35229.8
56838.1,35220.2
56839.5,35210.6
56841.9,35201.3
56845.1,35192.2
56849.2,35183.4
56854.2,35175.2
56860,35167.4
56866.4,35160.2
56873.6,35153.8
56881.4,35148
56889.6,35143
56898.4,35138.9
56907.5,35135.6
56916.8,35133.3
56926.4,35131.9
56936,35131.4
57192,35131.4
Z" /> 
<path style="fill:#FFFFFF; fill-opacity:1.0; 
stroke:#FFFFFF; stroke-width:0; stroke-opacity:1; 
stroke-linecap:round; stroke-linejoin:round;fill-rule:evenodd;"
d="M 56394.5,35131.9
56404.1,35133.3
56413.4,35135.6
56422.5,35138.9
56431.3,35143
56439.5,35148
56447.3,35153.8
56454.5,35160.2
56460.9,35167.4
56466.7,35175.2
56471.7,35183.4
56475.8,35192.2
56479.1,35201.3
56481.4,35210.6
56482.8,35220.2
56483.3,35229.8
56483.3,35584.2
56482.8,35593.8
56481.4,35603.4
56479.1,35612.7
56475.8,35621.8
56471.7,35630.6
56466.7,35638.8
56460.9,35646.6
56454.5,35653.8
56447.3,35660.2
56439.5,35666
56431.3,35671
56422.5,35675.1
56413.4,35678.4
56404.1,35680.7
56394.5,35682.1
56384.9,35682.6
56129,35682.6
56119.3,35682.1
56109.8,35680.7
56100.4,35678.4
56091.3,35675.1
56082.6,35671
56074.3,35666
56066.5,35660.2
56059.4,35653.8
56052.9,35646.6
56047.1,35638.8
56042.2,35630.6
56038,35621.8
56034.8,35612.7
56032.4,35603.4
56031,35593.8
56030.5,35584.2
56030.5,35229.8
56031,35220.2
56032.4,35210.6
56034.8,35201.3
56038,35192.2
56042.2,35183.4
56047.1,35175.2
56052.9,35167.4
56059.4,35160.2
56066.5,35153.8
56074.3,35148
56082.6,35143
56091.3,35138.9
56100.4,35135.6
56109.8,35133.3
56119.3,35131.9
56129,35131.4
56384.9,35131.4
Z" /> 
</g>
<g >
</g>
<g >
</g>
<g style="fill:#FFFFFF; fill-opacity:1.0; 
stroke:#FFFFFF; stroke-width:0; stroke-opacity:1; 
stroke-linecap:round; stroke-linejoin:round;">
</g>
<g style="fill:#FFFFFF; fill-opacity:1.0; 
stroke:#FFFFFF; stroke-width:669.291; stroke-opacity:1; 
stroke-linecap:round; stroke-linejoin:round;">
</g>
<g style="fill:#FFFFFF; fill-opacity:0.0; 
stroke:#FFFFFF; stroke-width:669.291; stroke-opacity:1; 
stroke-linecap:round; stroke-linejoin:round;">
<path d="M59790 38716
L59790 38716
" />
</g>
<g style="fill:#FFFFFF; fill-opacity:1.0; 
stroke:#FFFFFF; stroke-width:0; stroke-opacity:1; 
stroke-linecap:round; stroke-linejoin:round;">
<circle cx="59790.6" cy="39716" r="393.701" /> 
</g>
<g style="fill:#FFFFFF; fill-opacity:1.0; 
stroke:#FFFFFF; stroke-width:39.3701; stroke-opacity:1; 
stroke-linecap:round; stroke-linejoin:round;">
</g>
<g style="fill:#FFFFFF; fill-opacity:1.0; 
stroke:#FFFFFF; stroke-width:669.291; stroke-opacity:1; 
stroke-linecap:round; stroke-linejoin:round;">
</g>
<g style="fill:#FFFFFF; fill-opacity:0.0; 
stroke:#FFFFFF; stroke-width:669.291; stroke-opacity:1; 
stroke-linecap:round; stroke-linejoin:round;">
<path d="M58790 38716
L58790 38716
" />
</g>
<g style="fill:#FFFFFF; fill-opacity:1.0; 
stroke:#FFFFFF; stroke-width:0; stroke-opacity:1; 
stroke-linecap:round; stroke-linejoin:round;">
<circle cx="58790.6" cy="39716" r="393.701" /> 
</g>
<g style="fill:#FFFFFF; fill-opacity:1.0; 
stroke:#FFFFFF; stroke-width:39.3701; stroke-opacity:1; 
stroke-linecap:round; stroke-linejoin:round;">
</g>
<g style="fill:#FFFFFF; fill-opacity:1.0; 
stroke:#FFFFFF; stroke-width:669.291; stroke-opacity:1; 
stroke-linecap:round; stroke-linejoin:round;">
</g>
<g style="fill:#FFFFFF; fill-opacity:0.0; 
stroke:#FFFFFF; stroke-width:669.291; stroke-opacity:1; 
stroke-linecap:round; stroke-linejoin:round;">
<path d="M57790 38716
L57790 38716
" />
</g>
<g style="fill:#FFFFFF; fill-opacity:1.0; 
stroke:#FFFFFF; stroke-width:0; stroke-opacity:1; 
stroke-linecap:round; stroke-linejoin:round;">
<circle cx="57790.6" cy="39716" r="393.701" /> 
</g>
<g style="fill:#FFFFFF; fill-opacity:1.0; 
stroke:#FFFFFF; stroke-width:39.3701; stroke-opacity:1; 
stroke-linecap:round; stroke-linejoin:round;">
</g>
<g style="fill:#FFFFFF; fill-opacity:1.0; 
stroke:#FFFFFF; stroke-width:669.291; stroke-opacity:1; 
stroke-linecap:round; stroke-linejoin:round;">
</g>
<g style="fill:#FFFFFF; fill-opacity:0.0; 
stroke:#FFFFFF; stroke-width:669.291; stroke-opacity:1; 
stroke-linecap:round; stroke-linejoin:round;">
<path d="M56790 38716
L56790 38716
" />
</g>
<g style="fill:#FFFFFF; fill-opacity:1.0; 
stroke:#FFFFFF; stroke-width:0; stroke-opacity:1; 
stroke-linecap:round; stroke-linejoin:round;">
<circle cx="56790.6" cy="39716" r="393.701" /> 
</g>
<g style="fill:#FFFFFF; fill-opacity:1.0; 
stroke:#FFFFFF; stroke-width:39.3701; stroke-opacity:1; 
stroke-linecap:round; stroke-linejoin:round;">
</g>
<g style="fill:#FFFFFF; fill-opacity:1.0; 
stroke:#FFFFFF; stroke-width:669.291; stroke-opacity:1; 
stroke-linecap:round; stroke-linejoin:round;">
</g>
<g style="fill:#FFFFFF; fill-opacity:0.0; 
stroke:#FFFFFF; stroke-width:669.291; stroke-opacity:1; 
stroke-linecap:round; stroke-linejoin:round;">
<path d="M55790 38716
L55790 38716
" />
</g>
<g style="fill:#FFFFFF; fill-opacity:1.0; 
stroke:#FFFFFF; stroke-width:0; stroke-opacity:1; 
stroke-linecap:round; stroke-linejoin:round;">
<circle cx="55790.6" cy="39716" r="393.701" /> 
</g>
<g style="fill:#FFFFFF; fill-opacity:1.0; 
stroke:#FFFFFF; stroke-width:39.3701; stroke-opacity:1; 
stroke-linecap:round; stroke-linejoin:round;">
</g>
<g >
</g>
<g >
</g>
<g style="fill:#FFFFFF; fill-opacity:1.0; 
stroke:#FFFFFF; stroke-width:39.3701; stroke-opacity:1; 
stroke-linecap:round; stroke-linejoin:round;">
</g>
<g style="fill:#FFFFFF; fill-opacity:1.0; 
stroke:#FFFFFF; stroke-width:0; stroke-opacity:1; 
stroke-linecap:round; stroke-linejoin:round;">
<path style="fill:#FFFFFF; fill-opacity:1.0; 
stroke:#FFFFFF; stroke-width:0; stroke-opacity:1; 
stroke-linecap:round; stroke-linejoin:round;fill-rule:evenodd;"
d="M 58263.5,35157.9
58273.1,35159.3
58282.4,35161.6
58291.5,35164.9
58300.3,35169
58308.5,35174
58316.3,35179.8
58323.5,35186.2
58329.9,35193.4
58335.7,35201.2
58340.7,35209.4
58344.8,35218.2
58348.1,35227.3
58350.4,35236.6
58351.8,35246.2
58352.3,35255.8
58352.3,35610.2
58351.8,35619.8
58350.4,35629.4
58348.1,35638.7
58344.8,35647.8
58340.7,35656.6
58335.7,35664.8
58329.9,35672.6
58323.5,35679.8
58316.3,35686.2
58308.5,35692
58300.3,35697
58291.5,35701.1
58282.4,35704.4
58273.1,35706.7
58263.5,35708.1
58253.9,35708.6
57998,35708.6
57988.3,35708.1
57978.8,35706.7
57969.4,35704.4
57960.3,35701.1
57951.6,35697
57943.3,35692
57935.5,35686.2
57928.4,35679.8
57921.9,35672.6
57916.1,35664.8
57911.2,35656.6
57907,35647.8
57903.8,35638.7
57901.4,35629.4
57900,35619.8
57899.5,35610.2
57899.5,35255.8
57900,35246.2
57901.4,35236.6
57903.8,35227.3
57907,35218.2
57911.2,35209.4
57916.1,35201.2
57921.9,35193.4
57928.4,35186.2
57935.5,35179.8
57943.3,35174
57951.6,35169
57960.3,35164.9
57969.4,35161.6
57978.8,35159.3
57988.3,35157.9
57998,35157.4
58253.9,35157.4
Z" /> 
<path style="fill:#FFFFFF; fill-opacity:1.0; 
stroke:#FFFFFF; stroke-width:0; stroke-opacity:1; 
stroke-linecap:round; stroke-linejoin:round;fill-rule:evenodd;"
d="M 59070.6,35157.9
59080.2,35159.3
59089.5,35161.6
59098.6,35164.9
59107.4,35169
59115.6,35174
59123.4,35179.8
59130.5,35186.2
59137,35193.4
59142.8,35201.2
59147.8,35209.4
59151.9,35218.2
59155.1,35227.3
59157.5,35236.6
59158.9,35246.2
59159.4,35255.8
59159.4,35610.2
59158.9,35619.8
59157.5,35629.4
59155.1,35638.7
59151.9,35647.8
59147.8,35656.6
59142.8,35664.8
59137,35672.6
59130.5,35679.8
59123.4,35686.2
59115.6,35692
59107.4,35697
59098.6,35701.1
59089.5,35704.4
59080.2,35706.7
59070.6,35708.1
59061,35708.6
58805,35708.6
58795.4,35708.1
58785.8,35706.7
58776.5,35704.4
58767.4,35701.1
58758.6,35697
58750.4,35692
58742.6,35686.2
58735.4,35679.8
58729,35672.6
58723.2,35664.8
58718.2,35656.6
58714.1,35647.8
58710.9,35638.7
58708.5,35629.4
58707.1,35619.8
58706.6,35610.2
58706.6,35255.8
58707.1,35246.2
58708.5,35236.6
58710.9,35227.3
58714.1,35218.2
58718.2,35209.4
58723.2,35201.2
58729,35193.4
58735.4,35186.2
58742.6,35179.8
58750.4,35174
58758.6,35169
58767.4,35164.9
58776.5,35161.6
58785.8,35159.3
58795.4,35157.9
58805,35157.4
59061,35157.4
Z" /> 
</g>
<g >
</g>
<g style="fill:#FFFFFF; fill-opacity:1.0; 
stroke:#FFFFFF; stroke-width:0; stroke-opacity:1; 
stroke-linecap:round; stroke-linejoin:round;">
<path style="fill:#FFFFFF; fill-opacity:1.0; 
stroke:#FFFFFF; stroke-width:0; stroke-opacity:1; 
stroke-linecap:round; stroke-linejoin:round;fill-rule:evenodd;"
d="M 59928.8,34399.6
59938.4,34401
59947.7,34403.3
59956.8,34406.6
59965.6,34410.7
59973.8,34415.7
59981.6,34421.4
59988.8,34427.9
59995.2,34435.1
60001,34442.8
60006,34451.1
60010.1,34459.8
60013.4,34468.9
60015.7,34478.3
60017.1,34487.9
60017.6,34497.5
60017.6,34753.4
60017.1,34763.1
60015.7,34772.6
60013.4,34782
60010.1,34791.1
60006,34799.8
60001,34808.1
59995.2,34815.8
59988.8,34823
59981.6,34829.5
59973.8,34835.2
59965.6,34840.2
59956.8,34844.3
59947.7,34847.6
59938.4,34849.9
59928.8,34851.4
59919.2,34851.8
59564.8,34851.8
59555.2,34851.4
59545.6,34849.9
59536.3,34847.6
59527.2,34844.3
59518.4,34840.2
59510.2,34835.2
59502.4,34829.5
59495.2,34823
59488.8,34815.8
59483,34808.1
59478,34799.8
59473.9,34791.1
59470.6,34782
59468.3,34772.6
59466.9,34763.1
59466.4,34753.4
59466.4,34497.5
59466.9,34487.9
59468.3,34478.3
59470.6,34468.9
59473.9,34459.8
59478,34451.1
59483,34442.8
59488.8,34435.1
59495.2,34427.9
59502.4,34421.4
59510.2,34415.7
59518.4,34410.7
59527.2,34406.6
59536.3,34403.3
59545.6,34401
59555.2,34399.6
59564.8,34399.1
59919.2,34399.1
Z" /> 
<path style="fill:#FFFFFF; fill-opacity:1.0; 
stroke:#FFFFFF; stroke-width:0; stroke-opacity:1; 
stroke-linecap:round; stroke-linejoin:round;fill-rule:evenodd;"
d="M 59928.8,35206.6
59938.4,35208.1
59947.7,35210.4
59956.8,35213.7
59965.6,35217.8
59973.8,35222.8
59981.6,35228.5
59988.8,35235
59995.2,35242.2
60001,35249.9
60006,35258.2
60010.1,35266.9
60013.4,35276
60015.7,35285.4
60017.1,35294.9
60017.6,35304.6
60017.6,35560.5
60017.1,35570.1
60015.7,35579.7
60013.4,35589.1
60010.1,35598.2
60006,35606.9
60001,35615.2
59995.2,35622.9
59988.8,35630.1
59981.6,35636.6
59973.8,35642.3
59965.6,35647.3
59956.8,35651.4
59947.7,35654.7
59938.4,35657
59928.8,35658.4
59919.2,35658.9
59564.8,35658.9
59555.2,35658.4
59545.6,35657
59536.3,35654.7
59527.2,35651.4
59518.4,35647.3
59510.2,35642.3
59502.4,35636.6
59495.2,35630.1
59488.8,35622.9
59483,35615.2
59478,35606.9
59473.9,35598.2
59470.6,35589.1
59468.3,35579.7
59466.9,35570.1
59466.4,35560.5
59466.4,35304.6
59466.9,35294.9
59468.3,35285.4
59470.6,35276
59473.9,35266.9
59478,35258.2
59483,35249.9
59488.8,35242.2
59495.2,35235
59502.4,35228.5
59510.2,35222.8
59518.4,35217.8
59527.2,35213.7
59536.3,35210.4
59545.6,35208.1
59555.2,35206.6
59564.8,35206.2
59919.2,35206.2
Z" /> 
</g>
<g >
</g>
<g >
</g>
<g style="fill:#FFFFFF; fill-opacity:1.0; 
stroke:#FFFFFF; stroke-width:0; stroke-opacity:1; 
stroke-linecap:round; stroke-linejoin:round;">
<path style="fill:#FFFFFF; fill-opacity:1.0; 
stroke:#FFFFFF; stroke-width:0; stroke-opacity:1; 
stroke-linecap:round; stroke-linejoin:round;fill-rule:evenodd;"
d="M 59297.2,37483.6
59306.7,37485
59316.1,37487.4
59325.2,37490.6
59333.9,37494.7
59342.2,37499.7
59350,37505.5
59357.1,37511.9
59363.6,37519.1
59369.4,37526.9
59374.3,37535.1
59378.5,37543.9
59381.7,37553
59384.1,37562.3
59385.5,37571.9
59385.9,37581.5
59385.9,37945.7
59385.5,37955.4
59384.1,37964.9
59381.7,37974.3
59378.5,37983.4
59374.3,37992.1
59369.4,38000.4
59363.6,38008.2
59357.1,38015.3
59350,38021.8
59342.2,38027.6
59333.9,38032.5
59325.2,38036.6
59316.1,38039.9
59306.7,38042.3
59297.2,38043.7
59287.5,38044.1
58795.4,38044.1
58785.7,38043.7
58776.2,38042.3
58766.8,38039.9
58757.7,38036.6
58749,38032.5
58740.7,38027.6
58733,38021.8
58725.8,38015.3
58719.3,38008.2
58713.6,38000.4
58708.6,37992.1
58704.5,37983.4
58701.2,37974.3
58698.9,37964.9
58697.4,37955.4
58697,37945.7
58697,37581.5
58697.4,37571.9
58698.9,37562.3
58701.2,37553
58704.5,37543.9
58708.6,37535.1
58713.6,37526.9
58719.3,37519.1
58725.8,37511.9
58733,37505.5
58740.7,37499.7
58749,37494.7
58757.7,37490.6
58766.8,37487.4
58776.2,37485
58785.7,37483.6
58795.4,37483.1
59287.5,37483.1
Z" /> 
<path style="fill:#FFFFFF; fill-opacity:1.0; 
stroke:#FFFFFF; stroke-width:0; stroke-opacity:1; 
stroke-linecap:round; stroke-linejoin:round;fill-rule:evenodd;"
d="M 59297.2,36312.3
59306.7,36313.7
59316.1,36316.1
59325.2,36319.4
59333.9,36323.5
59342.2,36328.4
59350,36334.2
59357.1,36340.7
59363.6,36347.8
59369.4,36355.6
59374.3,36363.9
59378.5,36372.6
59381.7,36381.7
59384.1,36391.1
59385.5,36400.6
59385.9,36410.3
59385.9,36774.5
59385.5,36784.1
59384.1,36793.7
59381.7,36803
59378.5,36812.1
59374.3,36820.9
59369.4,36829.1
59363.6,36836.9
59357.1,36844.1
59350,36850.5
59342.2,36856.3
59333.9,36861.3
59325.2,36865.4
59316.1,36868.6
59306.7,36871
59297.2,36872.4
59287.5,36872.9
58795.4,36872.9
58785.7,36872.4
58776.2,36871
58766.8,36868.6
58757.7,36865.4
58749,36861.3
58740.7,36856.3
58733,36850.5
58725.8,36844.1
58719.3,36836.9
58713.6,36829.1
58708.6,36820.9
58704.5,36812.1
58701.2,36803
58698.9,36793.7
58697.4,36784.1
58697,36774.5
58697,36410.3
58697.4,36400.6
58698.9,36391.1
58701.2,36381.7
58704.5,36372.6
58708.6,36363.9
58713.6,36355.6
58719.3,36347.8
58725.8,36340.7
58733,36334.2
58740.7,36328.4
58749,36323.5
58757.7,36319.4
58766.8,36316.1
58776.2,36313.7
58785.7,36312.3
58795.4,36311.9
59287.5,36311.9
Z" /> 
</g>
<g >
</g>
<g style="fill:#FFFFFF; fill-opacity:1.0; 
stroke:#FFFFFF; stroke-width:0; stroke-opacity:1; 
stroke-linecap:round; stroke-linejoin:round;">
<circle cx="57064" cy="36082" r="314.961" /> 
</g>
<g style="fill:#FFFFFF; fill-opacity:1.0; 
stroke:#FFFFFF; stroke-width:39.3701; stroke-opacity:1; 
stroke-linecap:round; stroke-linejoin:round;">
</g>
<g style="fill:#FFFFFF; fill-opacity:1.0; 
stroke:#FFFFFF; stroke-width:0; stroke-opacity:1; 
stroke-linecap:round; stroke-linejoin:round;">
<circle cx="57511" cy="32559" r="314.961" /> 
</g>
<g style="fill:#FFFFFF; fill-opacity:1.0; 
stroke:#FFFFFF; stroke-width:39.3701; stroke-opacity:1; 
stroke-linecap:round; stroke-linejoin:round;">
</g>
<g style="fill:#FFFFFF; fill-opacity:1.0; 
stroke:#FFFFFF; stroke-width:0; stroke-opacity:1; 
stroke-linecap:round; stroke-linejoin:round;">
<circle cx="59928" cy="32559" r="314.961" /> 
</g>
<g style="fill:#FFFFFF; fill-opacity:1.0; 
stroke:#FFFFFF; stroke-width:39.3701; stroke-opacity:1; 
stroke-linecap:round; stroke-linejoin:round;">
</g>
<g style="fill:#FFFFFF; fill-opacity:1.0; 
stroke:#FFFFFF; stroke-width:0; stroke-opacity:1; 
stroke-linecap:round; stroke-linejoin:round;">
<circle cx="55603" cy="34606" r="314.961" /> 
</g>
<g style="fill:#FFFFFF; fill-opacity:1.0; 
stroke:#FFFFFF; stroke-width:39.3701; stroke-opacity:1; 
stroke-linecap:round; stroke-linejoin:round;">
</g>
<g style="fill:#FFFFFF; fill-opacity:1.0; 
stroke:#FFFFFF; stroke-width:0; stroke-opacity:1; 
stroke-linecap:round; stroke-linejoin:round;">
<circle cx="60642" cy="35582" r="314.961" /> 
</g>
<g style="fill:#FFFFFF; fill-opacity:1.0; 
stroke:#FFFFFF; stroke-width:39.3701; stroke-opacity:1; 
stroke-linecap:round; stroke-linejoin:round;">
</g>
<g style="fill:#FFFFFF; fill-opacity:1.0; 
stroke:#FFFFFF; stroke-width:0; stroke-opacity:1; 
stroke-linecap:round; stroke-linejoin:round;">
<circle cx="57743.4" cy="36948" r="314.961" /> 
</g>
<g style="fill:#FFFFFF; fill-opacity:1.0; 
stroke:#FFFFFF; stroke-width:39.3701; stroke-opacity:1; 
stroke-linecap:round; stroke-linejoin:round;">
</g>
<g >
</g>
<g style="fill:#FFFFFF; fill-opacity:1.0; 
stroke:#FFFFFF; stroke-width:39.3701; stroke-opacity:1; 
stroke-linecap:round; stroke-linejoin:round;">
</g>
<g style="fill:#FFFFFF; fill-opacity:1.0; 
stroke:#FFFFFF; stroke-width:196.85; stroke-opacity:1; 
stroke-linecap:round; stroke-linejoin:round;">
</g>
<g style="fill:#FFFFFF; fill-opacity:0.0; 
stroke:#FFFFFF; stroke-width:196.85; stroke-opacity:1; 
stroke-linecap:round; stroke-linejoin:round;">
<path d="M57064 35407
L57064 35407
" />
<path d="M57064 36082
L57064 35407
" />
<path d="M57599 33322
L57511 33234
" />
<path d="M57064 34848
L57599 34313
" />
<path d="M57599 34313
L57599 33322
" />
<path d="M57064 35407
L57064 34848
" />
<path d="M57511 33234
L57511 32559
" />
<path d="M59741 34625
L59742 34625
" />
<path d="M59015 34625
L59741 34625
" />
<path d="M59928 33528
L59742 33714
" />
<path d="M59742 33714
L59742 34625
" />
<path d="M59928 32559
L59928 33528
" />
<path d="M58040 34398
L58266 34625
" />
<path d="M55791 36806
L55791 36186
" />
<path d="M56256 35407
L56256 36033
" />
<path d="M58328 32353
L58328 32912
" />
<path d="M58040 33200
L58040 34398
" />
<path d="M55791 37621
L55791 36806
" />
<path d="M55791 36186
L55603 35998
" />
<path d="M57963 31988
L58328 32353
" />
<path d="M55603 33269
L56884 31988
" />
<path d="M55791 36499
L55791 36806
" />
<path d="M55603 35998
L55603 34606
" />
<path d="M58328 32912
L58040 33200
" />
<path d="M56884 31988
L57963 31988
" />
<path d="M56256 36033
L55791 36499
" />
<path d="M55790 38716
L55790 37621
" />
<path d="M55790 37621
L55791 37621
" />
<path d="M55603 33269
L55603 34606
" />
<path d="M59826 37178
L60642 36362
" />
</g>
<g style="fill:#FFFFFF; fill-opacity:0.0; 
stroke:#FFFFFF; stroke-width:157.48; stroke-opacity:1; 
stroke-linecap:round; stroke-linejoin:round;">
<path d="M56291 38237
L56907 37621
" />
</g>
<g style="fill:#FFFFFF; fill-opacity:0.0; 
stroke:#FFFFFF; stroke-width:196.85; stroke-opacity:1; 
stroke-linecap:round; stroke-linejoin:round;">
<path d="M60642 36362
L60642 35582
" />
</g>
<g style="fill:#FFFFFF; fill-opacity:0.0; 
stroke:#FFFFFF; stroke-width:157.48; stroke-opacity:1; 
stroke-linecap:round; stroke-linejoin:round;">
<path d="M56907 37621
L56962 37621
" />
</g>
<g style="fill:#FFFFFF; fill-opacity:0.0; 
stroke:#FFFFFF; stroke-width:196.85; stroke-opacity:1; 
stroke-linecap:round; stroke-linejoin:round;">
<path d="M56962 37621
L58052 37621
" />
<path d="M58933 35433
L59741 35433
" />
</g>
<g style="fill:#FFFFFF; fill-opacity:0.0; 
stroke:#FFFFFF; stroke-width:157.48; stroke-opacity:1; 
stroke-linecap:round; stroke-linejoin:round;">
<path d="M55790 39716
L56291 39215
" />
</g>
<g style="fill:#FFFFFF; fill-opacity:0.0; 
stroke:#FFFFFF; stroke-width:196.85; stroke-opacity:1; 
stroke-linecap:round; stroke-linejoin:round;">
<path d="M58495 37178
L59826 37178
" />
<path d="M59742 35432
L59742 37178
" />
<path d="M58052 37621
L58495 37178
" />
</g>
<g style="fill:#FFFFFF; fill-opacity:0.0; 
stroke:#FFFFFF; stroke-width:157.48; stroke-opacity:1; 
stroke-linecap:round; stroke-linejoin:round;">
<path d="M56291 39215
L56291 38237
" />
</g>
<g style="fill:#FFFFFF; fill-opacity:0.0; 
stroke:#FFFFFF; stroke-width:196.85; stroke-opacity:1; 
stroke-linecap:round; stroke-linejoin:round;">
<path d="M59741 35433
L59742 35432
" />
</g>
<g style="fill:#FFFFFF; fill-opacity:0.0; 
stroke:#FFFFFF; stroke-width:157.48; stroke-opacity:1; 
stroke-linecap:round; stroke-linejoin:round;">
<path d="M58790 39716
L58291 39216
" />
<path d="M58291 37993
L58520 37763
" />
<path d="M58520 37763
L59041 37763
" />
<path d="M58291 39216
L58291 37993
" />
<path d="M57743 36948
L57148 36948
" />
<path d="M57148 36948
L57006 36806
" />
<path d="M57006 36806
L56598 36806
" />
</g>
<g style="fill:#FFFFFF; fill-opacity:0.0; 
stroke:#FFFFFF; stroke-width:137.795; stroke-opacity:1; 
stroke-linecap:round; stroke-linejoin:round;">
<path d="M58640 34917
L58125 35433
" />
<path d="M58640 33837
L58640 34917
" />
</g>
<g style="fill:#FFFFFF; fill-opacity:0.0; 
stroke:#FFFFFF; stroke-width:196.85; stroke-opacity:1; 
stroke-linecap:round; stroke-linejoin:round;">
<path d="M58125 36188
L58529 36592
" />
<path d="M58529 36592
L59041 36592
" />
<path d="M58125 35433
L58125 36188
" />
</g>
<g >
</g>
</g>
<g style="fill:#000000; fill-opacity:0.0; 
stroke:#000000; stroke-width:196.85; stroke-opacity:1; 
stroke-linecap:round; stroke-linejoin:round;">
</g>
<g style="fill:#000000; fill-opacity:1.0; 
stroke:#000000; stroke-width:0; stroke-opacity:1; 
stroke-linecap:round; stroke-linejoin:round;">
<circle cx="57064" cy="36082" r="98.4252" /> 
</g>
<g style="fill:#000000; fill-opacity:1.0; 
stroke:#000000; stroke-width:39.3701; stroke-opacity:1; 
stroke-linecap:round; stroke-linejoin:round;">
</g>
<g style="fill:#000000; fill-opacity:1.0; 
stroke:#000000; stroke-width:0; stroke-opacity:1; 
stroke-linecap:round; stroke-linejoin:round;">
<circle cx="57511" cy="32559" r="98.4252" /> 
</g>
<g style="fill:#000000; fill-opacity:1.0; 
stroke:#000000; stroke-width:39.3701; stroke-opacity:1; 
stroke-linecap:round; stroke-linejoin:round;">
</g>
<g style="fill:#000000; fill-opacity:1.0; 
stroke:#000000; stroke-width:0; stroke-opacity:1; 
stroke-linecap:round; stroke-linejoin:round;">
<circle cx="59928" cy="32559" r="98.4252" /> 
</g>
<g style="fill:#000000; fill-opacity:1.0; 
stroke:#000000; stroke-width:39.3701; stroke-opacity:1; 
stroke-linecap:round; stroke-linejoin:round;">
</g>
<g style="fill:#000000; fill-opacity:1.0; 
stroke:#000000; stroke-width:0; stroke-opacity:1; 
stroke-linecap:round; stroke-linejoin:round;">
<circle cx="55603" cy="34606" r="98.4252" /> 
</g>
<g style="fill:#000000; fill-opacity:1.0; 
stroke:#000000; stroke-width:39.3701; stroke-opacity:1; 
stroke-linecap:round; stroke-linejoin:round;">
</g>
<g style="fill:#000000; fill-opacity:1.0; 
stroke:#000000; stroke-width:0; stroke-opacity:1; 
stroke-linecap:round; stroke-linejoin:round;">
<circle cx="60642" cy="35582" r="98.4252" /> 
</g>
<g style="fill:#000000; fill-opacity:1.0; 
stroke:#000000; stroke-width:39.3701; stroke-opacity:1; 
stroke-linecap:round; stroke-linejoin:round;">
</g>
<g style="fill:#000000; fill-opacity:1.0; 
stroke:#000000; stroke-width:0; stroke-opacity:1; 
stroke-linecap:round; stroke-linejoin:round;">
<circle cx="57743.4" cy="36948" r="98.4252" /> 
</g>
<g style="fill:#000000; fill-opacity:1.0; 
stroke:#000000; stroke-width:39.3701; stroke-opacity:1; 
stroke-linecap:round; stroke-linejoin:round;">
</g>
<g style="fill:#000000; fill-opacity:1.0; 
stroke:#000000; stroke-width:0; stroke-opacity:1; 
stroke-linecap:round; stroke-linejoin:round;">
<circle cx="57008" cy="33832" r="98.4252" /> 
</g>
<g style="fill:#000000; fill-opacity:1.0; 
stroke:#000000; stroke-width:39.3701; stroke-opacity:1; 
stroke-linecap:round; stroke-linejoin:round;">
</g>
<g style="fill:#000000; fill-opacity:1.0; 
stroke:#000000; stroke-width:0; stroke-opacity:1; 
stroke-linecap:round; stroke-linejoin:round;">
<circle cx="56260" cy="33832" r="98.4252" /> 
</g>
<g style="fill:#000000; fill-opacity:1.0; 
stroke:#000000; stroke-width:39.3701; stroke-opacity:1; 
stroke-linecap:round; stroke-linejoin:round;">
</g>
<g style="fill:#000000; fill-opacity:1.0; 
stroke:#000000; stroke-width:0; stroke-opacity:1; 
stroke-linecap:round; stroke-linejoin:round;">
<circle cx="59790.6" cy="38716" r="196.85" /> 
</g>
<g style="fill:#000000; fill-opacity:1.0; 
stroke:#000000; stroke-width:39.3701; stroke-opacity:1; 
stroke-linecap:round; stroke-linejoin:round;">
</g>
<g style="fill:#000000; fill-opacity:1.0; 
stroke:#000000; stroke-width:0; stroke-opacity:1; 
stroke-linecap:round; stroke-linejoin:round;">
<circle cx="59790.6" cy="39716" r="177.165" /> 
</g>
<g style="fill:#000000; fill-opacity:1.0; 
stroke:#000000; stroke-width:39.3701; stroke-opacity:1; 
stroke-linecap:round; stroke-linejoin:round;">
</g>
<g style="fill:#000000; fill-opacity:1.0; 
stroke:#000000; stroke-width:0; stroke-opacity:1; 
stroke-linecap:round; stroke-linejoin:round;">
<circle cx="58790.6" cy="38716" r="196.85" /> 
</g>
<g style="fill:#000000; fill-opacity:1.0; 
stroke:#000000; stroke-width:39.3701; stroke-opacity:1; 
stroke-linecap:round; stroke-linejoin:round;">
</g>
<g style="fill:#000000; fill-opacity:1.0; 
stroke:#000000; stroke-width:0; stroke-opacity:1; 
stroke-linecap:round; stroke-linejoin:round;">
<circle cx="58790.6" cy="39716" r="177.165" /> 
</g>
<g style="fill:#000000; fill-opacity:1.0; 
stroke:#000000; stroke-width:39.3701; stroke-opacity:1; 
stroke-linecap:round; stroke-linejoin:round;">
</g>
<g style="fill:#000000; fill-opacity:1.0; 
stroke:#000000; stroke-width:0; stroke-opacity:1; 
stroke-linecap:round; stroke-linejoin:round;">
<circle cx="57790.6" cy="38716" r="196.85" /> 
</g>
<g style="fill:#000000; fill-opacity:1.0; 
stroke:#000000; stroke-width:39.3701; stroke-opacity:1; 
stroke-linecap:round; stroke-linejoin:round;">
</g>
<g style="fill:#000000; fill-opacity:1.0; 
stroke:#000000; stroke-width:0; stroke-opacity:1; 
stroke-linecap:round; stroke-linejoin:round;">
<circle cx="57790.6" cy="39716" r="177.165" /> 
</g>
<g style="fill:#000000; fill-opacity:1.0; 
stroke:#000000; stroke-width:39.3701; stroke-opacity:1; 
stroke-linecap:round; stroke-linejoin:round;">
</g>
<g style="fill:#000000; fill-opacity:1.0; 
stroke:#000000; stroke-width:0; stroke-opacity:1; 
stroke-linecap:round; stroke-linejoin:round;">
<circle cx="56790.6" cy="38716" r="196.85" /> 
</g>
<g style="fill:#000000; fill-opacity:1.0; 
stroke:#000000; stroke-width:39.3701; stroke-opacity:1; 
stroke-linecap:round; stroke-linejoin:round;">
</g>
<g style="fill:#000000; fill-opacity:1.0; 
stroke:#000000; stroke-width:0; stroke-opacity:1; 
stroke-linecap:round; stroke-linejoin:round;">
<circle cx="56790.6" cy="39716" r="177.165" /> 
</g>
<g style="fill:#000000; fill-opacity:1.0; 
stroke:#000000; stroke-width:39.3701; stroke-opacity:1; 
stroke-linecap:round; stroke-linejoin:round;">
</g>
<g style="fill:#000000; fill-opacity:1.0; 
stroke:#000000; stroke-width:0; stroke-opacity:1; 
stroke-linecap:round; stroke-linejoin:round;">
<circle cx="55790.6" cy="38716" r="196.85" /> 
</g>
<g style="fill:#000000; fill-opacity:1.0; 
stroke:#000000; stroke-width:39.3701; stroke-opacity:1; 
stroke-linecap:round; stroke-linejoin:round;">
</g>
<g style="fill:#000000; fill-opacity:1.0; 
stroke:#000000; stroke-width:0; stroke-opacity:1; 
stroke-linecap:round; stroke-linejoin:round;">
<circle cx="55790.6" cy="39716" r="177.165" /> 
</g>
<g style="fill:#000000; fill-opacity:1.0; 
stroke:#000000; stroke-width:39.3701; stroke-opacity:1; 
stroke-linecap:round; stroke-linejoin:round;">
</g>
<g style="fill:#FFFFFF; fill-opacity:1.0; 
stroke:#FFFFFF; stroke-width:39.3701; stroke-opacity:1; 
stroke-linecap:round; stroke-linejoin:round;">
</g> 
</svg>
